<svg width="62" height="62" viewBox="0 0 62 62" fill="none" xmlns="http://www.w3.org/2000/svg">
<path d="M36.4658 40.3492C50.8833 41.2669 61.8215 45.7267 61.8215 51.0879C61.8215 57.1146 48.0016 62 30.9537 62C13.9059 62 0.0859375 57.1146 0.0859375 51.0879C0.0859375 45.7267 11.0242 41.2669 25.4416 40.3492" fill="#6EC1E4"/>
<g clip-path="url(#clip0_149_1439)">
<path d="M30.8968 51.2836C24.4473 51.2836 10.1377 36.8699 10.1377 19.7564C10.1377 8.79055 19.4319 -0.098938 30.8968 -0.098938C42.3618 -0.098938 51.656 8.79055 51.656 19.7564C51.656 36.8699 37.3464 51.2836 30.8968 51.2836Z" fill="url(#paint0_linear_149_1439)"/>
<path d="M30.8965 26.743C34.9308 26.743 38.2012 23.615 38.2012 19.7564C38.2012 15.8977 34.9308 12.7697 30.8965 12.7697C26.8622 12.7697 23.5918 15.8977 23.5918 19.7564C23.5918 23.615 26.8622 26.743 30.8965 26.743Z" fill="white"/>
<path d="M23.2381 34.134C25.2497 34.134 26.8805 32.5742 26.8805 30.6502C26.8805 28.7261 25.2497 27.1664 23.2381 27.1664C21.2265 27.1664 19.5957 28.7261 19.5957 30.6502C19.5957 32.5742 21.2265 34.134 23.2381 34.134Z" fill="white"/>
<path d="M26.8802 30.6502C26.8802 31.7969 25.9083 32.7265 24.7094 32.7265C23.5105 32.7265 22.5386 31.7969 22.5386 30.6502C22.5386 29.5034 23.5105 28.5739 24.7094 28.5739C25.9083 28.5737 26.8802 29.5033 26.8802 30.6502Z" fill="#3B3B44"/>
<path d="M38.556 34.134C40.5676 34.134 42.1984 32.5742 42.1984 30.6502C42.1984 28.7261 40.5676 27.1664 38.556 27.1664C36.5443 27.1664 34.9136 28.7261 34.9136 30.6502C34.9136 32.5742 36.5443 34.134 38.556 34.134Z" fill="white"/>
<path d="M42.1908 30.6502C42.1908 31.7969 41.2189 32.7265 40.02 32.7265C38.821 32.7265 37.8491 31.7969 37.8491 30.6502C37.8491 29.5034 38.821 28.5739 40.02 28.5739C41.2189 28.5737 42.1908 29.5033 42.1908 30.6502Z" fill="#3B3B44"/>
<path d="M30.8968 35.3321C31.7969 35.3321 32.5265 34.4183 32.5265 33.2911C32.5265 32.1639 31.7969 31.2501 30.8968 31.2501C29.9967 31.2501 29.2671 32.1639 29.2671 33.2911C29.2671 34.4183 29.9967 35.3321 30.8968 35.3321Z" fill="white"/>
<path d="M34.5667 47.0234C34.1936 47.0234 33.8249 46.8615 33.5833 46.5544C33.1749 46.0355 33.2834 45.2979 33.8263 44.9073C34.7596 44.2353 35.7248 43.4042 36.6955 42.4368C37.1657 41.9681 37.9444 41.9527 38.4343 42.4026C38.9244 42.8524 38.9404 43.597 38.4701 44.0657C37.4085 45.1237 36.3438 46.0392 35.3055 46.7868C35.0839 46.9462 34.8241 47.0234 34.5667 47.0234Z" fill="#E3FCFF"/>
<path d="M40.7517 40.7742C40.5027 40.7742 40.2513 40.7021 40.0338 40.552C39.4828 40.1721 39.358 39.437 39.7551 38.9101C39.9076 38.7076 40.0637 38.4957 40.2189 38.2801C40.604 37.7449 41.3695 37.6098 41.9291 37.9782C42.4886 38.3465 42.63 39.0788 42.2448 39.614C42.0797 39.8435 41.9133 40.0695 41.7504 40.2856C41.5101 40.6045 41.1336 40.7742 40.7517 40.7742Z" fill="#E3FCFF"/>
</g>
<defs>
<linearGradient id="paint0_linear_149_1439" x1="30.8968" y1="51.6191" x2="30.8968" y2="-10.1513" gradientUnits="userSpaceOnUse">
<stop stop-color="#FF455E"/>
<stop offset="1" stop-color="#FF919F"/>
</linearGradient>
<clipPath id="clip0_149_1439">
<rect width="45.2728" height="53.1429" fill="white" transform="translate(8.26074)"/>
</clipPath>
</defs>
</svg>
