<svg width="57" height="61" viewBox="0 0 57 61" fill="none" xmlns="http://www.w3.org/2000/svg">
<g clip-path="url(#clip0_194_325)" filter="url(#filter0_d_194_325)">
<path d="M44.603 56.2154H12.3249C6.46644 56.2154 1.71155 51.4406 1.71155 45.5576V19.9237C1.71155 14.0407 6.46644 9.26593 12.3249 9.26593H44.603C50.4614 9.26593 55.2163 14.0407 55.2163 19.9237V45.5576C55.2163 51.4406 50.4614 56.2154 44.603 56.2154Z" fill="#F9B842"/>
<path d="M44.603 56.2154H12.3249C6.46644 56.2154 1.71155 51.4406 1.71155 45.5576V19.9237C1.71155 14.0407 6.46644 9.26593 12.3249 9.26593H44.603C50.4614 9.26593 55.2163 14.0407 55.2163 19.9237V45.5576C55.2163 51.4406 50.4614 56.2154 44.603 56.2154Z" fill="#FFD27B"/>
<path d="M45.9824 4.94742C51.0781 4.94742 55.2163 9.49407 55.2163 15.1163V46.0465C55.2163 51.6524 50.0882 56.2154 44.9763 56.2154H33.584V4.94742H45.9824Z" fill="url(#paint0_linear_194_325)"/>
<path d="M10.9454 4.94742C5.84975 4.94742 1.71153 9.49407 1.71153 15.1163V46.0465C1.71153 51.6524 6.83968 56.2154 11.9516 56.2154H23.3439V4.94742H10.9454Z" fill="url(#paint1_linear_194_325)"/>
<path d="M44.603 46.8613H12.3249C6.46644 46.8613 1.71155 42.0865 1.71155 36.2036V10.5859C1.71155 4.70299 6.46644 -0.0718079 12.3249 -0.0718079H44.603C50.4614 -0.0718079 55.2163 4.70299 55.2163 10.5859V36.2199C55.2163 42.0865 50.4614 46.8613 44.603 46.8613Z" fill="#FFDE32"/>
<path d="M28.8439 33.376C29.1081 33.376 29.3663 33.2976 29.5859 33.1506C29.8056 33.0037 29.9768 32.7948 30.0779 32.5504C30.179 32.306 30.2054 32.0371 30.1539 31.7776C30.1023 31.5182 29.9751 31.2799 29.7883 31.0928C29.6016 30.9058 29.3636 30.7784 29.1045 30.7268C28.8454 30.6752 28.5768 30.7017 28.3328 30.8029C28.0887 30.9041 27.8801 31.0755 27.7334 31.2955C27.5866 31.5154 27.5083 31.774 27.5083 32.0385C27.5083 32.3933 27.649 32.7335 27.8995 32.9843C28.15 33.2351 28.4897 33.376 28.8439 33.376ZM35.522 33.376C35.7862 33.376 36.0444 33.2976 36.2641 33.1506C36.4837 33.0037 36.6549 32.7948 36.756 32.5504C36.8571 32.306 36.8835 32.0371 36.832 31.7776C36.7805 31.5182 36.6533 31.2799 36.4665 31.0928C36.2797 30.9058 36.0417 30.7784 35.7826 30.7268C35.5235 30.6752 35.255 30.7017 35.0109 30.8029C34.7669 30.9041 34.5583 31.0755 34.4115 31.2955C34.2647 31.5154 34.1864 31.774 34.1864 32.0385C34.1864 32.3933 34.3271 32.7335 34.5776 32.9843C34.8281 33.2351 35.1678 33.376 35.522 33.376ZM35.522 28.0261C35.7862 28.0261 36.0444 27.9477 36.2641 27.8007C36.4837 27.6538 36.6549 27.4449 36.756 27.2005C36.8571 26.9561 36.8835 26.6872 36.832 26.4277C36.7805 26.1683 36.6533 25.93 36.4665 25.7429C36.2797 25.5559 36.0417 25.4285 35.7826 25.3769C35.5235 25.3253 35.255 25.3518 35.0109 25.453C34.7669 25.5542 34.5583 25.7257 34.4115 25.9456C34.2647 26.1656 34.1864 26.4241 34.1864 26.6887C34.1864 27.0434 34.3271 27.3836 34.5776 27.6344C34.8281 27.8852 35.1678 28.0261 35.522 28.0261ZM28.8439 28.0261C29.1081 28.0261 29.3663 27.9477 29.5859 27.8007C29.8056 27.6538 29.9768 27.4449 30.0779 27.2005C30.179 26.9561 30.2054 26.6872 30.1539 26.4277C30.1023 26.1683 29.9751 25.93 29.7883 25.7429C29.6016 25.5559 29.3636 25.4285 29.1045 25.3769C28.8454 25.3253 28.5768 25.3518 28.3328 25.453C28.0887 25.5542 27.8801 25.7257 27.7334 25.9456C27.5866 26.1656 27.5083 26.4241 27.5083 26.6887C27.5083 27.0434 27.649 27.3836 27.8995 27.6344C28.15 27.8852 28.4897 28.0261 28.8439 28.0261ZM38.1933 11.9765H36.8577V10.639C36.8577 10.2843 36.7169 9.94413 36.4665 9.69331C36.216 9.44249 35.8763 9.30157 35.522 9.30157C35.1678 9.30157 34.8281 9.44249 34.5776 9.69331C34.3271 9.94413 34.1864 10.2843 34.1864 10.639V11.9765H23.5014V10.639C23.5014 10.2843 23.3607 9.94413 23.1102 9.69331C22.8597 9.44249 22.52 9.30157 22.1658 9.30157C21.8116 9.30157 21.4718 9.44249 21.2214 9.69331C20.9709 9.94413 20.8302 10.2843 20.8302 10.639V11.9765H19.4945C18.4319 11.9765 17.4127 12.3992 16.6613 13.1517C15.9098 13.9042 15.4877 14.9248 15.4877 15.9889V34.7135C15.4877 35.7776 15.9098 36.7982 16.6613 37.5507C17.4127 38.3032 18.4319 38.7259 19.4945 38.7259H38.1933C39.256 38.7259 40.2751 38.3032 41.0266 37.5507C41.778 36.7982 42.2002 35.7776 42.2002 34.7135V15.9889C42.2002 14.9248 41.778 13.9042 41.0266 13.1517C40.2751 12.3992 39.256 11.9765 38.1933 11.9765ZM39.5289 34.7135C39.5289 35.0682 39.3882 35.4084 39.1377 35.6592C38.8872 35.91 38.5475 36.051 38.1933 36.051H19.4945C19.1403 36.051 18.8006 35.91 18.5501 35.6592C18.2996 35.4084 18.1589 35.0682 18.1589 34.7135V22.6763H39.5289V34.7135ZM39.5289 20.0013H18.1589V15.9889C18.1589 15.6342 18.2996 15.294 18.5501 15.0432C18.8006 14.7924 19.1403 14.6515 19.4945 14.6515H20.8302V15.9889C20.8302 16.3436 20.9709 16.6838 21.2214 16.9347C21.4718 17.1855 21.8116 17.3264 22.1658 17.3264C22.52 17.3264 22.8597 17.1855 23.1102 16.9347C23.3607 16.6838 23.5014 16.3436 23.5014 15.9889V14.6515H34.1864V15.9889C34.1864 16.3436 34.3271 16.6838 34.5776 16.9347C34.8281 17.1855 35.1678 17.3264 35.522 17.3264C35.8763 17.3264 36.216 17.1855 36.4665 16.9347C36.7169 16.6838 36.8577 16.3436 36.8577 15.9889V14.6515H38.1933C38.5475 14.6515 38.8872 14.7924 39.1377 15.0432C39.3882 15.294 39.5289 15.6342 39.5289 15.9889V20.0013ZM22.1658 28.0261C22.43 28.0261 22.6882 27.9477 22.9078 27.8007C23.1275 27.6538 23.2987 27.4449 23.3997 27.2005C23.5008 26.9561 23.5273 26.6872 23.4758 26.4277C23.4242 26.1683 23.297 25.93 23.1102 25.7429C22.9234 25.5559 22.6854 25.4285 22.4264 25.3769C22.1673 25.3253 21.8987 25.3518 21.6547 25.453C21.4106 25.5542 21.202 25.7257 21.0553 25.9456C20.9085 26.1656 20.8302 26.4241 20.8302 26.6887C20.8302 27.0434 20.9709 27.3836 21.2214 27.6344C21.4718 27.8852 21.8116 28.0261 22.1658 28.0261ZM22.1658 33.376C22.43 33.376 22.6882 33.2976 22.9078 33.1506C23.1275 33.0037 23.2987 32.7948 23.3997 32.5504C23.5008 32.306 23.5273 32.0371 23.4758 31.7776C23.4242 31.5182 23.297 31.2799 23.1102 31.0928C22.9234 30.9058 22.6854 30.7784 22.4264 30.7268C22.1673 30.6752 21.8987 30.7017 21.6547 30.8029C21.4106 30.9041 21.202 31.0755 21.0553 31.2955C20.9085 31.5154 20.8302 31.774 20.8302 32.0385C20.8302 32.3933 20.9709 32.7335 21.2214 32.9843C21.4718 33.2351 21.8116 33.376 22.1658 33.376Z" fill="white"/>
</g>
<defs>
<filter id="filter0_d_194_325" x="0" y="0" width="57" height="61" filterUnits="userSpaceOnUse" color-interpolation-filters="sRGB">
<feFlood flood-opacity="0" result="BackgroundImageFix"/>
<feColorMatrix in="SourceAlpha" type="matrix" values="0 0 0 0 0 0 0 0 0 0 0 0 0 0 0 0 0 0 127 0" result="hardAlpha"/>
<feOffset dy="3"/>
<feGaussianBlur stdDeviation="1"/>
<feColorMatrix type="matrix" values="0 0 0 0 0.870588 0 0 0 0 0.6 0 0 0 0 0.34902 0 0 0 1 0"/>
<feBlend mode="normal" in2="BackgroundImageFix" result="effect1_dropShadow_194_325"/>
<feBlend mode="normal" in="SourceGraphic" in2="effect1_dropShadow_194_325" result="shape"/>
</filter>
<linearGradient id="paint0_linear_194_325" x1="62.2829" y1="30.5824" x2="33.5874" y2="30.5824" gradientUnits="userSpaceOnUse">
<stop stop-color="#FFBE5C"/>
<stop offset="0.84375" stop-color="#FFA90B" stop-opacity="0"/>
</linearGradient>
<linearGradient id="paint1_linear_194_325" x1="-5.35509" y1="30.5824" x2="23.3405" y2="30.5824" gradientUnits="userSpaceOnUse">
<stop stop-color="#FFBE5C"/>
<stop offset="0.84375" stop-color="#FFA90B" stop-opacity="0"/>
</linearGradient>
<clipPath id="clip0_194_325">
<rect width="53" height="56" fill="white" transform="translate(2)"/>
</clipPath>
</defs>
</svg>
