<svg width="384" height="84" viewBox="0 0 384 84" fill="none" xmlns="http://www.w3.org/2000/svg">
<g clip-path="url(#clip0_161_57)" filter="url(#filter0_d_161_57)">
<path d="M364.287 71.9999H19.7127C13.2474 71.9999 8 66.3047 8 59.2877V28.7122C8 21.6952 13.2474 15.9999 19.7127 15.9999H364.287C370.753 15.9999 376 21.6952 376 28.7122V59.2877C375.982 66.3047 370.753 71.9999 364.287 71.9999Z" fill="#BD000B"/>
<path d="M365.858 11C371.455 11 376 16.4097 376 23.0992V59.9008C376 66.5709 370.368 72 364.753 72H273V11H365.858Z" fill="url(#paint0_linear_161_57)"/>
<path d="M18.1416 11C12.545 11 8 16.4097 8 23.0992V59.9008C8 66.5709 13.6323 72 19.2467 72H111V11H18.1416Z" fill="url(#paint1_linear_161_57)"/>
<path d="M364.305 64.8686H19.7132C13.2477 64.8686 8 58.676 8 51.0463V17.8222C8 10.1925 13.2477 4 19.7132 4H364.305C370.77 4 376.018 10.1925 376.018 17.8222V51.0675C376 58.676 370.77 64.8686 364.305 64.8686Z" fill="#FF000A"/>
<path d="M127.979 42.9727C125.162 42.9727 122.765 41.9974 120.787 40.0469C118.818 38.0872 117.834 35.7174 117.834 32.9375C117.834 30.1484 118.818 27.7695 120.787 25.8008C122.765 23.8229 125.098 22.834 127.787 22.834C130.476 22.834 132.458 23.4036 133.734 24.543C135.02 25.6823 135.694 26.7852 135.758 27.8516V28.0703C135.758 29.5469 134.965 30.7044 133.379 31.543C133.033 31.7982 132.499 31.9577 131.779 32.0215L131.588 31.6387C131.278 31.0736 130.813 30.6042 130.193 30.2305C129.583 29.8568 128.926 29.6699 128.225 29.6699C127.14 29.6699 126.224 30.0163 125.477 30.709C124.738 31.4017 124.369 32.2311 124.369 33.1973C124.369 34.1543 124.747 34.9837 125.504 35.6855C126.251 36.3783 127.158 36.7246 128.225 36.7246C128.562 36.7246 128.899 36.6882 129.236 36.6152L129.154 33.2246C130.166 32.8327 131.305 32.6367 132.572 32.6367C133.821 32.6367 134.814 32.8145 135.553 33.1699C136.291 33.5254 136.66 34.0221 136.66 34.6602V37.7637L136.51 43.1094C135.917 43.8932 134.979 44.2852 133.693 44.2852C131.679 44.2852 130.371 43.8203 129.77 42.8906C129.159 42.9453 128.562 42.9727 127.979 42.9727ZM155.813 32.5547L155.526 41.8516C155.526 41.9245 155.535 41.9701 155.553 41.9883C155.198 42.2708 154.701 42.5124 154.063 42.7129C153.388 42.9225 152.75 43.0273 152.149 43.0273C151.52 43.0273 151.005 42.9408 150.604 42.7676C150.194 42.5853 149.929 42.4212 149.811 42.2754C149.692 42.1296 149.542 41.8743 149.36 41.5098L149.086 40.9902L147.746 42.002C147.464 42.2025 147.04 42.4212 146.475 42.6582C145.928 42.8861 145.24 43 144.41 43C143.581 43 142.825 42.8861 142.141 42.6582C141.466 42.4303 140.815 42.0247 140.186 41.4414C139.584 40.8672 139.284 39.6322 139.284 37.7363V36.752C139.284 35.6855 139.32 34.291 139.393 32.5684C139.484 30.472 139.53 29.3737 139.53 29.2734C139.557 29.2096 139.821 28.9727 140.323 28.5625C140.824 28.1615 141.708 27.9609 142.975 27.9609C144.251 27.9609 145.167 28.2891 145.723 28.9453C146.297 29.6016 146.584 30.3398 146.584 31.1602L146.448 36.8613C146.448 37.5176 146.757 37.8457 147.377 37.8457C147.979 37.8366 148.416 37.4902 148.69 36.8066V28.918C149.164 28.4167 150.285 28.166 152.053 28.166C153.438 28.166 154.441 28.5443 155.061 29.3008C155.836 29.5104 156.291 29.4876 156.428 29.2324C156.592 28.8132 156.419 28.4987 155.909 28.2891L154.719 28.0156C154.145 27.7878 153.958 27.291 154.159 26.5254C154.605 25.4134 155.672 25.1947 157.358 25.8691C158.379 26.2793 159.062 26.9355 159.409 27.8379C159.746 28.7402 159.741 29.6335 159.395 30.5176C159.039 31.4108 158.324 32.0215 157.248 32.3496C156.774 32.4954 156.296 32.5638 155.813 32.5547ZM145.668 20.2227C147.09 19.6029 148.462 19.6576 149.784 20.3867C150.431 20.9518 150.754 21.6719 150.754 22.5469C150.754 23.4219 150.381 24.151 149.633 24.7344C149.351 25.0716 148.913 25.4499 148.321 25.8691C147.181 26.4069 146.475 26.1562 146.201 25.1172C146.201 24.6341 146.361 24.2422 146.68 23.9414L147.159 23.5859C147.687 23.2396 147.974 22.8932 148.02 22.5469C148.002 22.1732 147.765 21.9863 147.309 21.9863L146.311 22.123C145.791 22.123 145.481 21.7949 145.381 21.1387C145.381 20.7285 145.477 20.4232 145.668 20.2227ZM160.618 28.7539C160.618 27.5143 161.019 26.5755 161.821 25.9375C162.632 25.2904 163.671 24.9668 164.938 24.9668C166.214 24.9668 167.317 25.4043 168.247 26.2793C169.185 27.1361 169.655 28.2799 169.655 29.7109C169.655 31.1328 169.03 32.304 167.782 33.2246C168.265 33.6257 168.506 34.2044 168.506 34.9609V41.8242C167.814 42.6445 166.556 43.0547 164.733 43.0547C162.646 43.0547 161.57 42.2161 161.506 40.5391C161.433 37.8138 161.397 36.2734 161.397 35.918C161.397 35.3529 161.415 34.9382 161.452 34.6738C161.497 34.3639 161.602 34.0632 161.766 33.7715C161.939 33.4707 162.126 33.2702 162.327 33.1699C162.773 33.3249 163.293 33.4115 163.885 33.4297C165.097 33.4297 166.137 33.0104 167.002 32.1719C167.877 31.3242 168.315 30.3125 168.315 29.1367L167.563 28.7266C167.563 29.6836 167.198 30.513 166.469 31.2148C165.749 31.9076 164.888 32.2539 163.885 32.2539H163.776C163.311 32.2539 162.791 32.1217 162.217 31.8574C161.151 31.3379 160.618 30.3034 160.618 28.7539ZM184.666 32.0215L184.53 41.0176C184.347 41.4186 184.019 41.8516 183.545 42.3164C183.062 42.7721 182.383 43 181.508 43C178.428 43 176.887 41.3594 176.887 38.0781L176.696 24.2969C177.762 23.6406 178.965 23.3125 180.305 23.3125C181.636 23.3125 182.702 23.6087 183.504 24.2012C184.306 24.7845 184.708 25.6367 184.708 26.7578L184.666 32.0215ZM185.309 28.7539C185.309 27.5143 185.71 26.5755 186.512 25.9375C187.323 25.2904 188.362 24.9668 189.629 24.9668C190.905 24.9668 192.008 25.4043 192.938 26.2793C193.877 27.1361 194.346 28.2799 194.346 29.7109C194.346 31.1328 193.722 32.304 192.473 33.2246C192.956 33.6257 193.198 34.2044 193.198 34.9609V41.8242C192.505 42.6445 191.247 43.0547 189.424 43.0547C187.337 43.0547 186.262 42.2161 186.198 40.5391C186.125 37.8138 186.088 36.2734 186.088 35.918C186.088 35.3529 186.107 34.9382 186.143 34.6738C186.189 34.3639 186.293 34.0632 186.457 33.7715C186.631 33.4707 186.818 33.2702 187.018 33.1699C187.465 33.3249 187.984 33.4115 188.577 33.4297C189.789 33.4297 190.828 33.0104 191.694 32.1719C192.569 31.3242 193.006 30.3125 193.006 29.1367L192.254 28.7266C192.254 29.6836 191.89 30.513 191.161 31.2148C190.441 31.9076 189.579 32.2539 188.577 32.2539H188.467C188.002 32.2539 187.483 32.1217 186.909 31.8574C185.842 31.3379 185.309 30.3034 185.309 28.7539ZM209.645 34.1816C209.645 35.8587 209.335 36.8477 208.715 37.1484H200.102C200.102 37.2852 200.28 37.5723 200.635 38.0098C201.009 38.4473 201.702 38.666 202.713 38.666C204.573 38.666 205.858 38.4199 206.569 37.9277L206.924 37.6816C207.034 37.6816 207.43 37.7956 208.114 38.0234C208.816 38.2604 209.185 38.7344 209.221 39.4453C209.239 39.6458 209.249 39.901 209.249 40.2109C209.249 40.5664 209.185 40.8945 209.057 41.1953C208.93 41.487 208.569 41.8607 207.977 42.3164C207.385 42.7721 205.831 43 203.315 43C201.775 43 200.444 42.7904 199.323 42.3711C198.183 41.9427 197.158 41.1999 196.247 40.1426C195.326 39.0579 194.866 37.4811 194.866 35.4121C194.866 34.7012 194.966 33.9173 195.166 33.0605C195.376 32.1855 195.663 31.4746 196.028 30.9277C196.402 30.3535 197.008 29.6699 197.846 28.877C198.703 28.0658 200.321 27.6602 202.7 27.6602C204.969 27.6602 206.651 28.1979 207.745 29.2734C208.219 29.7201 208.656 30.3581 209.057 31.1875C209.449 31.9805 209.645 32.9785 209.645 34.1816ZM204.682 34.209V34.0176C204.682 33.4251 204.5 32.9421 204.135 32.5684C203.752 32.1855 203.228 31.9941 202.563 31.9941C201.196 31.9941 200.485 32.7324 200.43 34.209H204.682ZM206.159 23.5723C206.514 23.8548 206.692 24.2741 206.692 24.8301C206.628 25.222 206.473 25.541 206.227 25.7871C206.017 25.9967 205.548 26.2656 204.819 26.5938C203.825 25.8555 203.032 25.222 202.44 24.6934L200.034 26.7305C199.478 26.4935 199.008 26.1882 198.625 25.8145C198.325 25.4681 198.161 25.14 198.133 24.8301V24.6387C198.133 24.1921 198.32 23.8366 198.694 23.5723L201.374 21.6035C201.829 21.2116 202.18 21.0156 202.426 21.0156C202.654 21.0156 203.347 21.4486 204.504 22.3145L206.159 23.5723ZM214.485 42.9727C211.978 42.9727 210.725 41.7513 210.725 39.3086V38.6387L210.985 29C211.34 28.7174 211.832 28.4759 212.461 28.2754C213.136 28.0658 213.774 27.9609 214.375 27.9609C214.986 27.9609 215.497 28.0521 215.907 28.2344C216.326 28.4167 216.595 28.5807 216.713 28.7266C216.85 28.8815 217 29.1322 217.165 29.4785L217.452 30.0117L217.93 29.6426C218.24 29.3965 218.682 29.0684 219.256 28.6582C219.867 28.2116 220.833 27.9883 222.155 27.9883C222.93 27.9883 223.672 28.1068 224.383 28.3438C225.085 28.5807 225.732 28.9818 226.325 29.5469C226.935 30.1211 227.241 31.3561 227.241 33.252V34.2363C227.241 35.3027 227.204 36.6973 227.131 38.4199C227.04 40.5163 226.995 41.6146 226.995 41.7148C226.958 41.806 226.826 41.9427 226.598 42.125C226.398 42.2891 226.083 42.485 225.655 42.7129C225.254 42.9225 224.488 43.0273 223.358 43.0273C222.219 43.0273 221.362 42.7038 220.788 42.0566C220.222 41.3913 219.94 40.653 219.94 39.8418L220.077 34.127C220.077 33.4707 219.771 33.1426 219.161 33.1426C218.568 33.1517 218.126 33.498 217.834 34.1816V42.2207C217.36 42.722 216.244 42.9727 214.485 42.9727ZM245.479 27.9062C249.116 27.9062 250.934 29.4831 250.934 32.6367L250.647 41.7969C250.61 41.8789 250.364 42.125 249.909 42.5352C249.453 42.9362 248.56 43.1367 247.229 43.1367C245.889 43.1367 244.932 42.8132 244.358 42.166C243.793 41.5007 243.51 40.7533 243.51 39.9238L243.647 34.127C243.647 33.4525 243.323 33.1152 242.676 33.1152C242.12 33.1152 241.669 33.4707 241.323 34.1816V42.2207C241.131 42.4121 240.717 42.5898 240.079 42.7539C239.441 42.918 238.743 43 237.987 43C237.212 43 236.579 42.8861 236.086 42.6582C235.603 42.4395 235.129 42.0384 234.665 41.4551C234.218 40.8991 233.995 39.3997 233.995 36.957L234.131 30.0391C234.131 28.9362 234.086 27.0495 233.995 24.3789C235.216 23.7227 236.41 23.3945 237.577 23.3945C237.923 23.3945 238.155 23.4264 238.274 23.4902C240.352 23.8001 241.4 25.1536 241.418 27.5508C241.418 28.3164 241.341 29.0501 241.186 29.752C242.735 28.5215 244.166 27.9062 245.479 27.9062ZM266.329 34.1816C266.329 35.8587 266.019 36.8477 265.399 37.1484H256.786C256.786 37.2852 256.963 37.5723 257.319 38.0098C257.693 38.4473 258.385 38.666 259.397 38.666C261.256 38.666 262.541 38.4199 263.252 37.9277L263.608 37.6816C263.717 37.6816 264.114 37.7956 264.797 38.0234C265.499 38.2604 265.868 38.7344 265.905 39.4453C265.923 39.6458 265.932 39.901 265.932 40.2109C265.932 40.5664 265.868 40.8945 265.741 41.1953C265.613 41.487 265.253 41.8607 264.661 42.3164C264.068 42.7721 262.514 43 259.999 43C258.458 43 257.127 42.7904 256.006 42.3711C254.867 41.9427 253.842 41.1999 252.93 40.1426C252.01 39.0579 251.549 37.4811 251.549 35.4121C251.549 34.7012 251.65 33.9173 251.85 33.0605C252.06 32.1855 252.347 31.4746 252.711 30.9277C253.085 30.3535 253.691 29.6699 254.53 28.877C255.387 28.0658 257.004 27.6602 259.383 27.6602C261.653 27.6602 263.334 28.1979 264.428 29.2734C264.902 29.7201 265.34 30.3581 265.741 31.1875C266.133 31.9805 266.329 32.9785 266.329 34.1816ZM261.366 34.209V34.0176C261.366 33.4251 261.183 32.9421 260.819 32.5684C260.436 32.1855 259.912 31.9941 259.247 31.9941C257.879 31.9941 257.168 32.7324 257.114 34.209H261.366ZM263.184 23.4219C263.54 23.7044 263.717 24.1237 263.717 24.6797C263.653 25.0716 263.499 25.3906 263.252 25.6367C263.043 25.8464 262.573 26.1152 261.844 26.4434C260.851 25.7051 260.058 25.0716 259.465 24.543L257.059 26.5801C256.503 26.3431 256.034 26.0378 255.651 25.6641C255.35 25.3177 255.186 24.9896 255.159 24.6797V24.4883C255.159 24.0417 255.346 23.6862 255.719 23.4219L258.399 21.4531C258.855 21.0612 259.206 20.8652 259.452 20.8652C259.68 20.8652 260.372 21.2982 261.53 22.1641L263.184 23.4219ZM257.579 48.9062C257.214 48.5417 257.032 48.0951 257.032 47.5664C257.032 47.0378 257.209 46.582 257.565 46.1992C257.93 45.8073 258.376 45.6113 258.905 45.6113C259.433 45.6113 259.889 45.8073 260.272 46.1992C260.664 46.582 260.86 47.0378 260.86 47.5664C260.86 48.0859 260.668 48.5326 260.286 48.9062C259.912 49.2708 259.456 49.4531 258.918 49.4531C258.39 49.4531 257.943 49.2708 257.579 48.9062Z" fill="white"/>
</g>
<defs>
<filter id="filter0_d_161_57" x="0" y="0" width="384" height="84" filterUnits="userSpaceOnUse" color-interpolation-filters="sRGB">
<feFlood flood-opacity="0" result="BackgroundImageFix"/>
<feColorMatrix in="SourceAlpha" type="matrix" values="0 0 0 0 0 0 0 0 0 0 0 0 0 0 0 0 0 0 127 0" result="hardAlpha"/>
<feOffset dy="4"/>
<feGaussianBlur stdDeviation="4"/>
<feColorMatrix type="matrix" values="0 0 0 0 0.645833 0 0 0 0 0.0592014 0 0 0 0 0.0592014 0 0 0 0.45 0"/>
<feBlend mode="normal" in2="BackgroundImageFix" result="effect1_dropShadow_161_57"/>
<feBlend mode="normal" in="SourceGraphic" in2="effect1_dropShadow_161_57" result="shape"/>
</filter>
<linearGradient id="paint0_linear_161_57" x1="376" y1="41.4966" x2="259" y2="42" gradientUnits="userSpaceOnUse">
<stop offset="0.28125" stop-color="#93000A"/>
<stop offset="1" stop-color="#D23333" stop-opacity="0"/>
</linearGradient>
<linearGradient id="paint1_linear_161_57" x1="8" y1="41.4966" x2="125" y2="42" gradientUnits="userSpaceOnUse">
<stop offset="0.28125" stop-color="#93000A"/>
<stop offset="1" stop-color="#D23333" stop-opacity="0"/>
</linearGradient>
<clipPath id="clip0_161_57">
<rect width="368" height="68" fill="white" transform="translate(8 4)"/>
</clipPath>
</defs>
</svg>
