<svg width="160" height="40" viewBox="0 0 160 40" fill="none" xmlns="http://www.w3.org/2000/svg">
<g clip-path="url(#clip0_190_592)">
<path d="M29.8672 23.0527C28.918 23.0527 28.1621 22.751 27.5996 22.1475C27.0371 21.5381 26.7559 20.8789 26.7559 20.1699C26.7559 19.8359 26.835 19.5078 26.9932 19.1855C27.1631 18.8574 27.3242 18.6172 27.4766 18.4648L27.7139 18.2451L29.5684 16.7686L26.5801 12.8838C26.9961 12.0518 27.4238 11.4512 27.8633 11.082C28.3145 10.7012 28.8828 10.5107 29.5684 10.5107C30.2539 10.5107 30.8047 10.6836 31.2207 11.0293C31.6426 11.3809 31.9004 11.6621 31.9941 11.873L33.0576 13.9121L34.7275 10.458H34.9824C35.8027 10.4873 36.541 10.7627 37.1973 11.2842C37.8594 11.8115 38.1904 12.4473 38.1904 13.1914C38.1904 13.9355 37.9355 14.5889 37.4258 15.1514C36.8574 15.7725 36.2832 16.3555 35.7031 16.9004L38.3135 20.5918C37.9209 21.4941 37.499 22.1182 37.0479 22.4639C36.6025 22.8096 36.0342 22.9824 35.3428 22.9824C34.6514 22.9824 34.0918 22.7832 33.6641 22.3848C33.248 21.9746 32.9141 21.585 32.6621 21.2158L32.2139 20.5479C30.7725 22.2178 29.9902 23.0527 29.8672 23.0527ZM47.9639 17.3311C47.9639 18.4092 47.7646 19.0449 47.3662 19.2383H41.8291C41.8291 19.3262 41.9434 19.5107 42.1719 19.792C42.4121 20.0732 42.8574 20.2139 43.5078 20.2139C44.7031 20.2139 45.5293 20.0557 45.9863 19.7393L46.2148 19.5811C46.2852 19.5811 46.54 19.6543 46.9795 19.8008C47.4307 19.9531 47.668 20.2578 47.6914 20.7148C47.7031 20.8438 47.709 21.0078 47.709 21.207C47.709 21.4355 47.668 21.6465 47.5859 21.8398C47.5039 22.0273 47.2725 22.2676 46.8916 22.5605C46.5107 22.8535 45.5117 23 43.8945 23C42.9043 23 42.0488 22.8652 41.3281 22.5957C40.5957 22.3203 39.9365 21.8428 39.3506 21.1631C38.7588 20.4658 38.4629 19.4521 38.4629 18.1221C38.4629 17.665 38.5273 17.1611 38.6562 16.6104C38.791 16.0479 38.9756 15.5908 39.21 15.2393C39.4502 14.8701 39.8398 14.4307 40.3789 13.9209C40.9297 13.3994 41.9697 13.1387 43.499 13.1387C44.958 13.1387 46.0391 13.4844 46.7422 14.1758C47.0469 14.4629 47.3281 14.873 47.5859 15.4062C47.8379 15.916 47.9639 16.5576 47.9639 17.3311ZM44.7734 17.3486V17.2256C44.7734 16.8447 44.6562 16.5342 44.4219 16.2939C44.1758 16.0479 43.8389 15.9248 43.4111 15.9248C42.5322 15.9248 42.0752 16.3994 42.04 17.3486H44.7734ZM59.2051 17.3662C59.2051 18.0518 59.1816 18.9482 59.1348 20.0557C59.0762 21.4033 59.0469 22.1094 59.0469 22.1738C58.9004 22.4609 58.5986 22.6748 58.1416 22.8154C57.6846 22.9502 57.2363 23.0176 56.7969 23.0176C56.0527 23.0176 55.4756 22.8125 55.0654 22.4023C54.585 22.0098 54.3447 21.3857 54.3447 20.5303C54.3799 19.2471 54.4062 18.0049 54.4238 16.8037C54.3301 16.71 54.1895 16.6631 54.002 16.6631C53.6152 16.6689 53.334 16.8916 53.1582 17.3311V22.5166C52.8535 22.8389 52.1328 23 50.9961 23C49.3906 23 48.5879 22.2148 48.5879 20.6445C48.6465 18.3945 48.6758 16.1738 48.6758 13.9824C49.4023 13.5488 50.1758 13.332 50.9961 13.332C51.3477 13.332 51.6553 13.3906 51.9189 13.5078C52.1885 13.625 52.3613 13.7305 52.4375 13.8242C52.5254 13.9238 52.6221 14.085 52.7275 14.3076L52.9033 14.6504L53.2197 14.4131C53.4189 14.2549 53.7031 14.0439 54.0723 13.7803C54.4648 13.4932 55.0361 13.3496 55.7861 13.3496C57.2275 13.3496 58.2119 13.7656 58.7393 14.5977L58.8799 14.4834C59.2021 14.2256 59.4336 14.0527 59.5742 13.9648C59.7559 13.8418 60.0312 13.71 60.4004 13.5693C60.7695 13.4229 61.209 13.3496 61.7188 13.3496C62.2051 13.3496 62.6768 13.4258 63.1338 13.5781C63.585 13.7305 64.001 13.9912 64.3818 14.3604C64.7744 14.7354 64.9707 15.5264 64.9707 16.7334V17.3662C64.9707 17.9932 64.9443 18.8574 64.8916 19.959L64.8037 22.1738C64.7803 22.2324 64.6953 22.3203 64.5488 22.4375C64.4199 22.543 64.2178 22.6689 63.9424 22.8154C63.6846 22.9502 63.1924 23.0176 62.4658 23.0176C61.7334 23.0176 61.1826 22.8096 60.8135 22.3936C60.4502 21.9658 60.2686 21.4912 60.2686 20.9697L60.3564 17.2959C60.3564 16.874 60.1602 16.6631 59.7676 16.6631C59.5684 16.6924 59.3809 16.7773 59.2051 16.918V17.3662ZM74.4014 16.4521C73.9033 16.4521 73.4727 16.6104 73.1094 16.9268C72.7578 17.2432 72.582 17.6299 72.582 18.0869C72.582 18.5439 72.7578 18.9365 73.1094 19.2646C73.4727 19.5928 73.9033 19.7568 74.4014 19.7568C74.6943 19.7568 74.9785 19.6836 75.2539 19.5371C75.5352 19.3906 75.749 19.2002 75.8955 18.9658C76.1357 18.8955 76.3584 18.8604 76.5635 18.8604C77.0029 18.8721 77.3691 19.0625 77.6621 19.4316C77.9609 19.8066 78.1104 20.1699 78.1104 20.5215C78.1104 20.8613 78.0693 21.1543 77.9873 21.4004C77.3428 22.4668 76.1064 23 74.2783 23C72.8604 23 71.6592 22.5078 70.6748 21.5234C69.6904 20.5391 69.1982 19.3525 69.1982 17.9639C69.1982 16.5693 69.6934 15.377 70.6836 14.3867C71.6738 13.3965 72.8428 12.9014 74.1904 12.9014C75.5439 12.9014 76.54 13.1943 77.1787 13.7803C77.8232 14.3604 78.1631 14.9199 78.1982 15.459C78.1982 16.2852 77.7969 16.915 76.9941 17.3486C76.8418 17.4541 76.5547 17.5332 76.1328 17.5859C76.0449 17.4512 75.9951 17.3662 75.9834 17.3311C75.5908 16.7451 75.0635 16.4521 74.4014 16.4521ZM86.1875 13.2969C88.5254 13.2969 89.6943 14.3105 89.6943 16.3379L89.5098 22.2266C89.4863 22.2793 89.3281 22.4375 89.0352 22.7012C88.7422 22.959 88.168 23.0879 87.3125 23.0879C86.4512 23.0879 85.8359 22.8799 85.4668 22.4639C85.1035 22.0361 84.9219 21.5557 84.9219 21.0225L85.0098 17.2959C85.0098 16.8623 84.8018 16.6455 84.3857 16.6455C84.0283 16.6455 83.7383 16.874 83.5156 17.3311V22.499C83.3926 22.6221 83.126 22.7363 82.7158 22.8418C82.3057 22.9473 81.8574 23 81.3711 23C80.873 23 80.4658 22.9268 80.1494 22.7803C79.8389 22.6396 79.5342 22.3818 79.2354 22.0068C78.9482 21.6494 78.8047 20.6855 78.8047 19.1152L78.8926 14.668C78.8926 13.959 78.8633 12.7461 78.8047 11.0293C79.5898 10.6074 80.3574 10.3965 81.1074 10.3965C81.3301 10.3965 81.4795 10.417 81.5557 10.458C82.8916 10.6572 83.5654 11.5273 83.5771 13.0684C83.5771 13.5605 83.5273 14.0322 83.4277 14.4834C84.4238 13.6924 85.3438 13.2969 86.1875 13.2969ZM89.8174 13.8418C89.8174 13.0449 90.0752 12.4414 90.5908 12.0312C91.1123 11.6152 91.7803 11.4072 92.5947 11.4072C93.415 11.4072 94.124 11.6885 94.7217 12.251C95.3252 12.8018 95.627 13.5371 95.627 14.457C95.627 15.3711 95.2256 16.124 94.4229 16.7158C94.7334 16.9736 94.8887 17.3457 94.8887 17.832V22.2441C94.4434 22.7715 93.6348 23.0352 92.4629 23.0352C91.1211 23.0352 90.4297 22.4961 90.3887 21.418C90.3418 19.666 90.3184 18.6758 90.3184 18.4473C90.3184 18.084 90.3301 17.8174 90.3535 17.6475C90.3828 17.4482 90.4502 17.2549 90.5557 17.0674C90.667 16.874 90.7871 16.7451 90.916 16.6807C91.2031 16.7803 91.5371 16.8359 91.918 16.8477C92.6973 16.8477 93.3652 16.5781 93.9219 16.0391C94.4844 15.4941 94.7656 14.8438 94.7656 14.0879L94.2822 13.8242C94.2822 14.4395 94.0479 14.9727 93.5791 15.4238C93.1162 15.8691 92.5625 16.0918 91.918 16.0918H91.8477C91.5488 16.0918 91.2148 16.0068 90.8457 15.8369C90.1602 15.5029 89.8174 14.8379 89.8174 13.8418ZM100.997 19.0186C100.997 18.3037 101.038 17.542 101.12 16.7334C100.282 16.54 99.8398 16.3057 99.793 16.0303C99.7695 15.9307 99.7578 15.541 99.7578 14.8613C99.7578 14.1934 99.7695 13.8594 99.793 13.8594L100.461 13.6748C100.9 13.5459 101.152 13.4814 101.217 13.4814L101.067 11.7148L101.032 11.1172C101.495 10.7715 102.254 10.5986 103.309 10.5986C104.375 10.5986 105.025 10.8477 105.26 11.3457C105.5 11.8555 105.62 12.4883 105.62 13.2441L107.984 13.1387C108.178 13.9121 108.271 14.6387 108.266 15.3184C108.266 16.3027 108.014 16.8184 107.51 16.8652L105.638 17.0059C105.579 17.334 105.55 17.6943 105.55 18.0869C105.55 18.9775 105.772 19.4199 106.218 19.4141H106.288C106.938 19.373 107.396 19.2734 107.659 19.1152C107.706 19.1152 107.847 19.2061 108.081 19.3877C108.315 19.5635 108.433 20.0117 108.433 20.7324C108.433 21.459 108.157 22.0273 107.606 22.4375C107.067 22.8477 106.083 23.0527 104.653 23.0527C102.216 23.0527 100.997 21.708 100.997 19.0186ZM108.591 13.8418C108.591 13.0449 108.849 12.4414 109.364 12.0312C109.886 11.6152 110.554 11.4072 111.368 11.4072C112.188 11.4072 112.897 11.6885 113.495 12.251C114.099 12.8018 114.4 13.5371 114.4 14.457C114.4 15.3711 113.999 16.124 113.196 16.7158C113.507 16.9736 113.662 17.3457 113.662 17.832V22.2441C113.217 22.7715 112.408 23.0352 111.236 23.0352C109.895 23.0352 109.203 22.4961 109.162 21.418C109.115 19.666 109.092 18.6758 109.092 18.4473C109.092 18.084 109.104 17.8174 109.127 17.6475C109.156 17.4482 109.224 17.2549 109.329 17.0674C109.44 16.874 109.561 16.7451 109.689 16.6807C109.977 16.7803 110.311 16.8359 110.691 16.8477C111.471 16.8477 112.139 16.5781 112.695 16.0391C113.258 15.4941 113.539 14.8438 113.539 14.0879L113.056 13.8242C113.056 14.4395 112.821 14.9727 112.353 15.4238C111.89 15.8691 111.336 16.0918 110.691 16.0918H110.621C110.322 16.0918 109.988 16.0068 109.619 15.8369C108.934 15.5029 108.591 14.8379 108.591 13.8418ZM124.235 17.3311C124.235 18.4092 124.036 19.0449 123.638 19.2383H118.101C118.101 19.3262 118.215 19.5107 118.443 19.792C118.684 20.0732 119.129 20.2139 119.779 20.2139C120.975 20.2139 121.801 20.0557 122.258 19.7393L122.486 19.5811C122.557 19.5811 122.812 19.6543 123.251 19.8008C123.702 19.9531 123.939 20.2578 123.963 20.7148C123.975 20.8438 123.98 21.0078 123.98 21.207C123.98 21.4355 123.939 21.6465 123.857 21.8398C123.775 22.0273 123.544 22.2676 123.163 22.5605C122.782 22.8535 121.783 23 120.166 23C119.176 23 118.32 22.8652 117.6 22.5957C116.867 22.3203 116.208 21.8428 115.622 21.1631C115.03 20.4658 114.734 19.4521 114.734 18.1221C114.734 17.665 114.799 17.1611 114.928 16.6104C115.062 16.0479 115.247 15.5908 115.481 15.2393C115.722 14.8701 116.111 14.4307 116.65 13.9209C117.201 13.3994 118.241 13.1387 119.771 13.1387C121.229 13.1387 122.311 13.4844 123.014 14.1758C123.318 14.4629 123.6 14.873 123.857 15.4062C124.109 15.916 124.235 16.5576 124.235 17.3311ZM121.045 17.3486V17.2256C121.045 16.8447 120.928 16.5342 120.693 16.2939C120.447 16.0479 120.11 15.9248 119.683 15.9248C118.804 15.9248 118.347 16.3994 118.312 17.3486H121.045ZM121.95 10.5723C122.179 10.7539 122.293 11.0234 122.293 11.3809C122.252 11.6328 122.152 11.8379 121.994 11.9961C121.859 12.1309 121.558 12.3037 121.089 12.5146C120.45 12.04 119.94 11.6328 119.56 11.293L118.013 12.6025C117.655 12.4502 117.354 12.2539 117.107 12.0137C116.914 11.791 116.809 11.5801 116.791 11.3809V11.2578C116.791 10.9707 116.911 10.7422 117.151 10.5723L118.874 9.30664C119.167 9.05469 119.393 8.92871 119.551 8.92871C119.697 8.92871 120.143 9.20703 120.887 9.76367L121.95 10.5723ZM117.811 6.52051C117.957 6.40332 118.689 5.89941 120.008 5.00879L120.597 4.61328C120.849 4.61328 121.124 4.7832 121.423 5.12305C121.728 5.45117 121.88 5.79102 121.88 6.14258C121.88 6.25391 121.769 6.43848 121.546 6.69629C121.323 6.94238 120.289 7.66016 118.443 8.84961C118.109 8.84961 117.811 8.72656 117.547 8.48047C117.289 8.23438 117.16 7.92676 117.16 7.55762C117.16 7.19434 117.377 6.84863 117.811 6.52051ZM126.011 19.0186C126.011 18.3037 126.052 17.542 126.134 16.7334C125.296 16.54 124.854 16.3057 124.807 16.0303C124.783 15.9307 124.771 15.541 124.771 14.8613C124.771 14.1934 124.783 13.8594 124.807 13.8594L125.475 13.6748C125.914 13.5459 126.166 13.4814 126.23 13.4814L126.081 11.7148L126.046 11.1172C126.509 10.7715 127.268 10.5986 128.322 10.5986C129.389 10.5986 130.039 10.8477 130.273 11.3457C130.514 11.8555 130.634 12.4883 130.634 13.2441L132.998 13.1387C133.191 13.9121 133.285 14.6387 133.279 15.3184C133.279 16.3027 133.027 16.8184 132.523 16.8652L130.651 17.0059C130.593 17.334 130.563 17.6943 130.563 18.0869C130.563 18.9775 130.786 19.4199 131.231 19.4141H131.302C131.952 19.373 132.409 19.2734 132.673 19.1152C132.72 19.1152 132.86 19.2061 133.095 19.3877C133.329 19.5635 133.446 20.0117 133.446 20.7324C133.446 21.459 133.171 22.0273 132.62 22.4375C132.081 22.8477 131.097 23.0527 129.667 23.0527C127.229 23.0527 126.011 21.708 126.011 19.0186Z" fill="white"/>
<g clip-path="url(#clip1_190_592)" filter="url(#filter0_d_190_592)">
<path d="M154.908 40H5.09247C2.28149 40 0 36.6498 0 32.5222V14.5366C0 10.4089 2.28149 7.05878 5.09247 7.05878H154.908C157.719 7.05878 160 10.4089 160 14.5366V32.5222C159.992 36.6498 157.719 40 154.908 40Z" fill="#BD000B"/>
<path d="M155.591 4.11765C158.024 4.11765 160 7.29984 160 11.2348V32.8828C160 36.8064 157.552 40 155.111 40H115.218V4.11765H155.591Z" fill="url(#paint0_linear_190_592)"/>
<path d="M4.40903 4.11765C1.97572 4.11765 -0.000385284 7.29984 -0.000385284 11.2348V32.8828C-0.000385284 36.8064 2.44842 40 4.88948 40H44.7822V4.11765H4.40903Z" fill="url(#paint1_linear_190_592)"/>
<path d="M154.915 35.805H5.09271C2.2816 35.805 0 32.1624 0 27.6743V8.13073C0 3.64266 2.2816 0 5.09271 0H154.915C157.726 0 160.008 3.64266 160.008 8.13073V27.6867C160 32.1624 157.726 35.805 154.915 35.805Z" fill="#FF000A"/>
<path d="M44.7369 24.9824C42.9263 24.9824 41.3853 24.3555 40.1138 23.1016C38.8482 21.8418 38.2154 20.3184 38.2154 18.5312C38.2154 16.7383 38.8482 15.209 40.1138 13.9434C41.3853 12.6719 42.8853 12.0361 44.6138 12.0361C46.3423 12.0361 47.6168 12.4023 48.4371 13.1348C49.2632 13.8672 49.6968 14.5762 49.7379 15.2617V15.4023C49.7379 16.3516 49.2281 17.0957 48.2086 17.6348C47.9859 17.7988 47.6431 17.9014 47.1802 17.9424L47.0572 17.6963C46.858 17.333 46.5591 17.0312 46.1607 16.791C45.7681 16.5508 45.3462 16.4307 44.8951 16.4307C44.1978 16.4307 43.6089 16.6533 43.1285 17.0986C42.6539 17.5439 42.4166 18.0771 42.4166 18.6982C42.4166 19.3135 42.6597 19.8467 43.1461 20.2979C43.6265 20.7432 44.2095 20.9658 44.8951 20.9658C45.1119 20.9658 45.3287 20.9424 45.5455 20.8955L45.4927 18.7158C46.1431 18.4639 46.8755 18.3379 47.69 18.3379C48.4927 18.3379 49.1314 18.4521 49.606 18.6807C50.0806 18.9092 50.3179 19.2285 50.3179 19.6387V21.6338L50.2212 25.0703C49.8404 25.5742 49.2369 25.8262 48.4107 25.8262C47.1158 25.8262 46.275 25.5273 45.8882 24.9297C45.4957 24.9648 45.1119 24.9824 44.7369 24.9824ZM61.5504 18.2852L61.3658 24.2617C61.3658 24.3086 61.3716 24.3379 61.3834 24.3496C61.1548 24.5312 60.8355 24.6865 60.4254 24.8154C59.9918 24.9502 59.5816 25.0176 59.1949 25.0176C58.7906 25.0176 58.4595 24.9619 58.2017 24.8506C57.938 24.7334 57.7681 24.6279 57.692 24.5342C57.6158 24.4404 57.5191 24.2764 57.4019 24.042L57.2261 23.708L56.3648 24.3584C56.1832 24.4873 55.9107 24.6279 55.5474 24.7803C55.1959 24.9268 54.7535 25 54.2203 25C53.6871 25 53.2007 24.9268 52.7613 24.7803C52.3277 24.6338 51.9087 24.373 51.5045 23.998C51.1177 23.6289 50.9244 22.835 50.9244 21.6162V20.9834C50.9244 20.2979 50.9478 19.4014 50.9947 18.2939C51.0533 16.9463 51.0826 16.2402 51.0826 16.1758C51.1002 16.1348 51.2701 15.9824 51.5923 15.7188C51.9146 15.4609 52.483 15.332 53.2974 15.332C54.1177 15.332 54.7066 15.543 55.064 15.9648C55.4332 16.3867 55.6177 16.8613 55.6177 17.3887L55.5298 21.0537C55.5298 21.4756 55.7291 21.6865 56.1275 21.6865C56.5142 21.6807 56.7955 21.458 56.9712 21.0186V15.9473C57.2759 15.625 57.9966 15.4639 59.1334 15.4639C60.024 15.4639 60.6685 15.707 61.067 16.1934C61.565 16.3281 61.858 16.3135 61.9459 16.1494C62.0513 15.8799 61.94 15.6777 61.6119 15.543L60.8472 15.3672C60.4781 15.2207 60.358 14.9014 60.4869 14.4092C60.774 13.6943 61.4595 13.5537 62.5435 13.9873C63.1998 14.251 63.6392 14.6729 63.8619 15.2529C64.0787 15.833 64.0757 16.4072 63.8531 16.9756C63.6246 17.5498 63.1646 17.9424 62.4732 18.1533C62.1685 18.2471 61.8609 18.291 61.5504 18.2852ZM55.0289 10.3574C55.9429 9.95898 56.8248 9.99414 57.6744 10.4629C58.0904 10.8262 58.2984 11.2891 58.2984 11.8516C58.2984 12.4141 58.0582 12.8828 57.5777 13.2578C57.3961 13.4746 57.1148 13.7178 56.7339 13.9873C56.0015 14.333 55.5474 14.1719 55.3716 13.5039C55.3716 13.1934 55.4742 12.9414 55.6793 12.748L55.9869 12.5195C56.3267 12.2969 56.5113 12.0742 56.5406 11.8516C56.5289 11.6113 56.3765 11.4912 56.0836 11.4912L55.442 11.5791C55.108 11.5791 54.9087 11.3682 54.8443 10.9463C54.8443 10.6826 54.9058 10.4863 55.0289 10.3574ZM63.4692 15.8418C63.4692 15.0449 63.727 14.4414 64.2426 14.0312C64.7641 13.6152 65.4321 13.4072 66.2465 13.4072C67.0668 13.4072 67.7758 13.6885 68.3735 14.251C68.977 14.8018 69.2787 15.5371 69.2787 16.457C69.2787 17.3711 68.8774 18.124 68.0746 18.7158C68.3852 18.9736 68.5405 19.3457 68.5405 19.832V24.2441C68.0952 24.7715 67.2866 25.0352 66.1147 25.0352C64.7729 25.0352 64.0815 24.4961 64.0405 23.418C63.9936 21.666 63.9702 20.6758 63.9702 20.4473C63.9702 20.084 63.9819 19.8174 64.0053 19.6475C64.0346 19.4482 64.102 19.2549 64.2075 19.0674C64.3188 18.874 64.4389 18.7451 64.5678 18.6807C64.8549 18.7803 65.1889 18.8359 65.5698 18.8477C66.3491 18.8477 67.017 18.5781 67.5737 18.0391C68.1362 17.4941 68.4174 16.8438 68.4174 16.0879L67.934 15.8242C67.934 16.4395 67.6996 16.9727 67.2309 17.4238C66.768 17.8691 66.2143 18.0918 65.5698 18.0918H65.4995C65.2006 18.0918 64.8666 18.0068 64.4975 17.8369C63.812 17.5029 63.4692 16.8379 63.4692 15.8418ZM73.7524 14.3037C73.7524 13.8408 73.9106 13.4248 74.227 13.0557C74.8305 12.3408 75.8588 11.9834 77.312 11.9834L81.3989 11.9307C81.5043 11.9307 81.768 12.0244 82.1899 12.2119C82.6 12.3936 82.8051 12.9355 82.8051 13.8379C82.8051 15.1914 82.1078 15.8711 80.7133 15.877L78.8588 15.8594L78.8764 17.0107L81.2055 16.8965C81.4164 16.8965 81.6303 17.0049 81.8471 17.2217C82.0639 17.4385 82.1723 17.8223 82.1723 18.373C82.1723 18.9238 82.0112 19.3311 81.6889 19.5947C81.3608 19.8525 81.0004 19.9814 80.6078 19.9814C80.5551 19.9814 79.9897 19.9492 78.9116 19.8848V21.2031L82.2426 20.9482L82.392 21.1592C82.4682 21.2529 82.5532 21.4873 82.6469 21.8623C82.7524 22.2373 82.8051 22.6416 82.8051 23.0752C82.8051 23.8779 82.5707 24.4082 82.102 24.666C81.6391 24.9121 81.2055 25.0352 80.8012 25.0352L78.4809 25.123C77.9536 25.123 77.4789 25.1084 77.0571 25.0791C76.7055 25.0557 76.2983 24.9795 75.8354 24.8506C75.3842 24.7158 74.9418 24.458 74.5082 24.0771C74.0688 23.6787 73.8286 22.8994 73.7875 21.7393C73.7641 21.7158 73.7524 19.2373 73.7524 14.3037ZM94.2221 19.3662C94.2221 20.0518 94.1987 20.9482 94.1518 22.0557C94.0932 23.4033 94.0639 24.1094 94.0639 24.1738C93.9174 24.4609 93.6157 24.6748 93.1586 24.8154C92.7016 24.9502 92.2534 25.0176 91.8139 25.0176C91.0698 25.0176 90.4926 24.8125 90.0825 24.4023C89.602 24.0098 89.3618 23.3857 89.3618 22.5303C89.3969 21.2471 89.4233 20.0049 89.4409 18.8037C89.3471 18.71 89.2065 18.6631 89.019 18.6631C88.6323 18.6689 88.351 18.8916 88.1752 19.3311V24.5166C87.8705 24.8389 87.1498 25 86.0131 25C84.4077 25 83.6049 24.2148 83.6049 22.6445C83.6635 20.3945 83.6928 18.1738 83.6928 15.9824C84.4194 15.5488 85.1928 15.332 86.0131 15.332C86.3647 15.332 86.6723 15.3906 86.936 15.5078C87.2055 15.625 87.3784 15.7305 87.4545 15.8242C87.5424 15.9238 87.6391 16.085 87.7446 16.3076L87.9203 16.6504L88.2368 16.4131C88.436 16.2549 88.7202 16.0439 89.0893 15.7803C89.4819 15.4932 90.0532 15.3496 90.8032 15.3496C92.2446 15.3496 93.2289 15.7656 93.7563 16.5977L93.8969 16.4834C94.2192 16.2256 94.4506 16.0527 94.5912 15.9648C94.7729 15.8418 95.0483 15.71 95.4174 15.5693C95.7866 15.4229 96.226 15.3496 96.7358 15.3496C97.2221 15.3496 97.6938 15.4258 98.1508 15.5781C98.602 15.7305 99.018 15.9912 99.3989 16.3604C99.7914 16.7354 99.9877 17.5264 99.9877 18.7334V19.3662C99.9877 19.9932 99.9614 20.8574 99.9086 21.959L99.8207 24.1738C99.7973 24.2324 99.7123 24.3203 99.5659 24.4375C99.437 24.543 99.2348 24.6689 98.9594 24.8154C98.7016 24.9502 98.2094 25.0176 97.4828 25.0176C96.7504 25.0176 96.1996 24.8096 95.8305 24.3936C95.4672 23.9658 95.2856 23.4912 95.2856 22.9697L95.3735 19.2959C95.3735 18.874 95.1772 18.6631 94.7846 18.6631C94.5854 18.6924 94.3979 18.7773 94.2221 18.918V19.3662ZM106.957 23.9365C106.336 24.6455 105.522 25 104.514 25C103.506 25 102.61 24.7363 101.825 24.209C101.045 23.6816 100.656 22.9404 100.656 21.9854C100.656 21.0303 100.998 20.3125 101.684 19.832C102.375 19.3516 103.149 19.1113 104.004 19.1113C104.866 19.1113 105.686 19.2695 106.465 19.5859V19.4541C106.465 18.7803 105.909 18.4463 104.795 18.4521L102.888 18.5752C102.355 18.5752 101.936 18.458 101.631 18.2236C101.327 17.9893 101.174 17.5293 101.174 16.8438C101.174 16.1582 101.242 15.7041 101.376 15.4814C102.378 15.1299 103.445 14.9482 104.576 14.9365C106.081 14.9365 107.33 15.3438 108.32 16.1582C109.316 16.9668 109.814 18.127 109.814 19.6387L109.638 22.2842C109.632 22.4834 109.823 22.668 110.209 22.8379C110.209 23.8867 110.031 24.5107 109.673 24.71C109.322 24.9033 108.985 25 108.663 25C108.34 25 108.068 24.9414 107.845 24.8242C107.634 24.707 107.467 24.5869 107.344 24.4639C107.227 24.3291 107.098 24.1533 106.957 23.9365ZM104.971 22.7676C105.616 22.7676 106.09 22.6182 106.395 22.3193V21.6514C106.319 21.5752 106.102 21.4785 105.745 21.3613C104.983 21.1035 104.438 21.1211 104.11 21.4141C103.823 21.6426 103.764 21.9238 103.934 22.2578C104.11 22.6152 104.456 22.7852 104.971 22.7676ZM110.139 15.8418C110.139 15.0449 110.397 14.4414 110.913 14.0312C111.434 13.6152 112.102 13.4072 112.916 13.4072C113.737 13.4072 114.446 13.6885 115.043 14.251C115.647 14.8018 115.949 15.5371 115.949 16.457C115.949 17.3711 115.547 18.124 114.745 18.7158C115.055 18.9736 115.21 19.3457 115.21 19.832V24.2441C114.765 24.7715 113.956 25.0352 112.785 25.0352C111.443 25.0352 110.751 24.4961 110.71 23.418C110.664 21.666 110.64 20.6758 110.64 20.4473C110.64 20.084 110.652 19.8174 110.675 19.6475C110.705 19.4482 110.772 19.2549 110.877 19.0674C110.989 18.874 111.109 18.7451 111.238 18.6807C111.525 18.7803 111.859 18.8359 112.24 18.8477C113.019 18.8477 113.687 18.5781 114.244 18.0391C114.806 17.4941 115.087 16.8438 115.087 16.0879L114.604 15.8242C114.604 16.4395 114.37 16.9727 113.901 17.4238C113.438 17.8691 112.884 18.0918 112.24 18.0918H112.169C111.871 18.0918 111.537 18.0068 111.167 17.8369C110.482 17.5029 110.139 16.8379 110.139 15.8418ZM121.855 17.9424L121.767 23.7256C121.65 23.9834 121.439 24.2617 121.134 24.5605C120.824 24.8535 120.387 25 119.825 25C117.844 25 116.854 23.9453 116.854 21.8359L116.731 12.9766C117.416 12.5547 118.19 12.3438 119.051 12.3438C119.907 12.3438 120.592 12.5342 121.108 12.915C121.623 13.29 121.881 13.8379 121.881 14.5586L121.855 17.9424Z" fill="white"/>
</g>
</g>
<defs>
<filter id="filter0_d_190_592" x="-8" y="-4" width="176" height="56" filterUnits="userSpaceOnUse" color-interpolation-filters="sRGB">
<feFlood flood-opacity="0" result="BackgroundImageFix"/>
<feColorMatrix in="SourceAlpha" type="matrix" values="0 0 0 0 0 0 0 0 0 0 0 0 0 0 0 0 0 0 127 0" result="hardAlpha"/>
<feOffset dy="4"/>
<feGaussianBlur stdDeviation="4"/>
<feColorMatrix type="matrix" values="0 0 0 0 0.645833 0 0 0 0 0.0592014 0 0 0 0 0.0592014 0 0 0 0.45 0"/>
<feBlend mode="normal" in2="BackgroundImageFix" result="effect1_dropShadow_190_592"/>
<feBlend mode="normal" in="SourceGraphic" in2="effect1_dropShadow_190_592" result="shape"/>
</filter>
<linearGradient id="paint0_linear_190_592" x1="160" y1="22.0568" x2="109.13" y2="22.2186" gradientUnits="userSpaceOnUse">
<stop offset="0.28125" stop-color="#93000A"/>
<stop offset="1" stop-color="#D23333" stop-opacity="0"/>
</linearGradient>
<linearGradient id="paint1_linear_190_592" x1="-0.000386551" y1="22.0568" x2="50.8696" y2="22.2186" gradientUnits="userSpaceOnUse">
<stop offset="0.28125" stop-color="#93000A"/>
<stop offset="1" stop-color="#D23333" stop-opacity="0"/>
</linearGradient>
<clipPath id="clip0_190_592">
<rect width="160" height="40" fill="white"/>
</clipPath>
<clipPath id="clip1_190_592">
<rect width="160" height="40" fill="white"/>
</clipPath>
</defs>
</svg>
