<svg width="324" height="99" viewBox="0 0 324 99" fill="none" xmlns="http://www.w3.org/2000/svg">
<path d="M27.7656 76C37.3281 76 42.5312 72.5312 43.3281 65.6406C43.4688 64.5156 43.5156 63.5312 43.5156 62.6406C43.5156 57.9531 42.3438 53.9688 39.9531 50.7344C36.2969 50.5 32.7812 50.6406 29.4062 51.1562C29.7344 40.5156 29.875 29.7812 29.875 18.9531C29.875 15.0625 28.4219 12.1094 25.5156 10C22.6562 7.89062 18.7656 6.85938 13.9375 6.85938C9.10938 6.85938 4.75 8.03125 0.859375 10.3281L1.5625 59.3125C1.5625 64.8906 3.48438 69.5312 7.32812 73.1406C9.4375 75.0625 14.6406 76 22.9375 76H27.7656ZM46.0938 27.1562C46.0938 32.4531 47.9219 36.0156 51.5781 37.7969C53.5469 38.6875 55.3281 39.1562 56.9219 39.1562H57.2969C60.7188 39.1562 63.6719 37.9844 66.1562 35.5938C68.6406 33.2031 69.9062 30.3438 69.9062 27.0625L72.4844 28.4688C72.4844 32.5 70.9844 35.9688 67.9844 38.875C65.0312 41.7344 61.4688 43.1875 57.2969 43.1875C55.2812 43.1406 53.5 42.8125 51.9531 42.2969C51.25 42.625 50.6406 43.3281 50.0312 44.3594C49.4688 45.3438 49.0938 46.375 48.9531 47.4531C48.8125 48.3438 48.7656 49.7969 48.7656 51.7188C48.7656 52.9375 48.9062 58.2344 49.1406 67.5625C49.375 73.3281 53.0312 76.1875 60.2031 76.1875C66.4375 76.1875 70.75 74.7812 73.1406 71.9688V48.4375C73.1406 45.8594 72.2969 43.8438 70.6562 42.4844C74.9219 39.3438 77.0781 35.3125 77.0781 30.4375C77.0781 25.5156 75.4844 21.625 72.25 18.6719C69.0625 15.6719 65.2656 14.1719 60.9062 14.1719C56.5469 14.1719 52.9844 15.2969 50.2188 17.5C47.4531 19.7031 46.0938 22.8906 46.0938 27.1562ZM129.531 45.7656C129.531 41.6406 128.875 38.2188 127.516 35.5C126.156 32.6406 124.656 30.4844 123.016 28.9375C119.266 25.2344 113.5 23.4062 105.719 23.4062C97.5625 23.4062 92.0312 24.8125 89.0781 27.5781C86.2188 30.2969 84.1094 32.6406 82.8438 34.6094C81.5781 36.4844 80.5938 38.9219 79.8906 41.9219C79.1875 44.875 78.8594 47.5469 78.8594 49.9844C78.8594 57.0625 80.4531 62.5 83.5938 66.2031C86.7344 69.8125 90.25 72.3906 94.1406 73.8438C97.9844 75.2969 102.531 76 107.828 76C116.453 76 121.797 75.2031 123.812 73.6562C125.828 72.1094 127.094 70.7969 127.516 69.8125C127.938 68.7812 128.172 67.6562 128.172 66.4375C128.172 65.3594 128.125 64.5156 128.078 63.8125C127.938 61.375 126.672 59.7344 124.281 58.9375C121.938 58.1406 120.578 57.7656 120.203 57.7656L118.984 58.6094C116.547 60.2969 112.141 61.1406 105.766 61.1406C102.297 61.1406 99.9062 60.3906 98.6406 58.8906C97.4219 57.3906 96.8125 56.4062 96.8125 55.9375H126.344C128.453 54.9062 129.531 51.5312 129.531 45.7656ZM97.9375 45.8594C98.125 40.7969 100.562 38.2656 105.25 38.2656C107.547 38.2656 109.328 38.9219 110.641 40.2344C111.906 41.5 112.516 43.1875 112.516 45.2031V45.8594H97.9375ZM111.906 5.07812C107.922 2.125 105.578 0.625 104.781 0.625C103.938 0.625 102.719 1.28125 101.172 2.64062L91.9844 9.39062C90.7188 10.2812 90.0625 11.5 90.0625 13.0469V13.7031C90.1562 14.7812 90.7188 15.9062 91.75 17.0781C93.0625 18.3438 94.6562 19.4219 96.5781 20.2188L104.828 13.2344C106.844 15.0625 109.562 17.2188 112.984 19.75C115.469 18.625 117.109 17.6875 117.812 16.9844C118.656 16.1406 119.172 15.0625 119.406 13.7031C119.406 11.7812 118.797 10.375 117.578 9.39062L111.906 5.07812ZM146.125 75.9062C152.172 75.9062 155.969 75.0625 157.609 73.3281V45.7656C158.594 43.4219 160.141 42.25 162.156 42.2031C164.266 42.2031 165.297 43.3281 165.297 45.5781L164.828 65.1719C164.828 67.9375 165.812 70.4688 167.734 72.7656C169.703 74.9688 172.656 76.0938 176.547 76.0938C180.438 76.0938 183.062 75.7188 184.422 75.0156C185.875 74.2188 186.953 73.5625 187.656 73C188.453 72.3906 188.875 71.9219 189.016 71.5938C189.016 71.2656 189.156 67.4688 189.484 60.2969C189.719 54.3906 189.859 49.6094 189.859 45.9531V42.5781C189.859 36.0625 188.828 31.8438 186.719 29.875C184.703 27.9531 182.453 26.5469 180.062 25.75C177.625 24.9531 175.094 24.5312 172.422 24.5312C167.875 24.5312 164.594 25.2812 162.484 26.8281C160.516 28.2344 159.016 29.3594 157.938 30.2031L156.297 31.4688L155.312 29.6406C154.75 28.4688 154.234 27.5781 153.766 27.0625C153.344 26.5469 152.453 25.9844 151 25.375C149.594 24.7656 147.859 24.4375 145.75 24.4375C143.688 24.4375 141.484 24.8125 139.188 25.5156C137.031 26.2188 135.344 27.0156 134.125 28L133.234 61.0469V63.3438C133.234 71.7344 137.547 75.9062 146.125 75.9062ZM252.391 24.25C247.891 24.25 242.969 26.3594 237.672 30.5781C238.188 28.1875 238.469 25.6562 238.469 23.0312C238.422 14.8281 234.812 10.1875 227.688 9.10938C227.266 8.875 226.469 8.78125 225.297 8.78125C221.312 8.78125 217.188 9.90625 213.016 12.1562C213.344 21.2969 213.484 27.7656 213.484 31.5625L213.016 55.2812C213.016 63.6719 213.766 68.7812 215.312 70.7031C216.906 72.7188 218.547 74.0781 220.188 74.8281C221.875 75.625 224.031 76 226.703 76C229.281 76 231.672 75.7188 233.875 75.1562C236.078 74.5938 237.484 73.9844 238.141 73.3281V45.7656C239.312 43.3281 240.859 42.1094 242.781 42.1094C244.984 42.1094 246.109 43.2812 246.109 45.5781L245.641 65.4531C245.641 68.3125 246.625 70.8438 248.547 73.1406C250.516 75.3438 253.797 76.4688 258.391 76.4688C262.938 76.4688 266.031 75.7656 267.578 74.4062C269.125 73 269.969 72.1562 270.109 71.875L271.094 40.4688C271.094 29.6406 264.859 24.25 252.391 24.25ZM323.875 45.7656C323.875 41.6406 323.219 38.2188 321.859 35.5C320.5 32.6406 319 30.4844 317.359 28.9375C313.609 25.2344 307.844 23.4062 300.062 23.4062C291.906 23.4062 286.375 24.8125 283.422 27.5781C280.562 30.2969 278.453 32.6406 277.188 34.6094C275.922 36.4844 274.938 38.9219 274.234 41.9219C273.531 44.875 273.203 47.5469 273.203 49.9844C273.203 57.0625 274.797 62.5 277.938 66.2031C281.078 69.8125 284.594 72.3906 288.484 73.8438C292.328 75.2969 296.875 76 302.172 76C310.797 76 316.141 75.2031 318.156 73.6562C320.172 72.1094 321.438 70.7969 321.859 69.8125C322.281 68.7812 322.516 67.6562 322.516 66.4375C322.516 65.3594 322.469 64.5156 322.422 63.8125C322.281 61.375 321.016 59.7344 318.625 58.9375C316.281 58.1406 314.922 57.7656 314.547 57.7656L313.328 58.6094C310.891 60.2969 306.484 61.1406 300.109 61.1406C296.641 61.1406 294.25 60.3906 292.984 58.8906C291.766 57.3906 291.156 56.4062 291.156 55.9375H320.688C322.797 54.9062 323.875 51.5312 323.875 45.7656ZM292.281 45.8594C292.469 40.7969 294.906 38.2656 299.594 38.2656C301.891 38.2656 303.672 38.9219 304.984 40.2344C306.25 41.5 306.859 43.1875 306.859 45.2031V45.8594H292.281ZM307.422 4.5625C303.438 1.60938 301.094 0.109375 300.297 0.109375C299.453 0.109375 298.234 0.765625 296.688 2.125L287.5 8.875C286.234 9.76562 285.578 10.9844 285.578 12.5312V13.1875C285.672 14.2656 286.234 15.3906 287.266 16.5625C288.578 17.8281 290.172 18.9062 292.094 19.7031L300.344 12.7188C302.359 14.5469 305.078 16.7031 308.5 19.2344C310.984 18.1094 312.625 17.1719 313.328 16.4688C314.172 15.625 314.688 14.5469 314.922 13.1875C314.922 11.2656 314.312 9.85938 313.094 8.875L307.422 4.5625ZM293.875 96.25C295.141 97.5156 296.641 98.125 298.469 98.125C300.297 98.125 301.891 97.5156 303.156 96.25C304.469 94.9844 305.125 93.4375 305.125 91.6562C305.125 89.8281 304.469 88.2812 303.109 86.9688C301.797 85.6094 300.25 84.9531 298.422 84.9531C296.594 84.9531 295.094 85.6094 293.828 86.9688C292.609 88.2812 292 89.8281 292 91.6562C292 93.4844 292.609 94.9844 293.875 96.25Z" fill="white"/>
</svg>
