<svg width="62" height="62" viewBox="0 0 62 62" fill="none" xmlns="http://www.w3.org/2000/svg">
<g clip-path="url(#clip0_158_125)">
<path d="M61.957 16.5193C51.243 13.9216 42.3499 14.1768 31 14.1768C19.6502 14.1768 10.757 13.9217 0.0429883 16.5194C0.0150156 16.7814 0 17.0473 0 17.3168V44.6832C0 48.7967 3.33468 52.1314 7.44811 52.1314H54.5518C58.6652 52.1314 61.9999 48.7967 61.9999 44.6832V17.3168C62 17.0473 61.985 16.7814 61.957 16.5193Z" fill="url(#paint0_linear_158_125)"/>
<path d="M35.1203 37.577C34.7571 36.6299 33.7833 36.0539 32.7816 36.2132C29.8754 36.6751 26.828 36 24.3353 34.1869L21.5137 32.1349L18.3203 35.1575L21.6595 37.5861C24.3459 39.5399 27.5686 40.654 30.8903 40.6766C31.7534 40.6825 32.6067 40.6185 33.4444 40.4866C34.8004 40.2734 35.6115 38.8587 35.1203 37.577Z" fill="#04A5DE"/>
<path d="M61.957 16.5193C50.471 17.0419 31 23.1565 31 23.1565L59.5644 50.1922C61.0608 48.8299 62 46.8662 62 44.6832V17.3168C62 17.0473 61.985 16.7814 61.957 16.5193Z" fill="url(#paint1_linear_158_125)"/>
<path d="M0.0429883 16.5193C11.5291 17.0419 31 23.1565 31 23.1565L2.43556 50.1922C0.939203 48.8297 0 46.8662 0 44.6832V17.3168C0 17.0473 0.0150156 16.7814 0.0429883 16.5193Z" fill="url(#paint2_linear_158_125)"/>
<path d="M10.9306 39.1942C11.753 40.0523 13.1137 40.0854 13.9768 39.2685L21.5139 32.1348L0.0433516 16.5195C0.0152578 16.7815 0 17.0475 0 17.3168V21.833L14.7645 32.5711L11.0055 36.1289C10.1347 36.9531 10.1012 38.3285 10.9306 39.1942Z" fill="#04A5DE"/>
<path d="M54.5518 9.86867H7.44797C3.60397 9.86867 0.441004 12.781 0.0429688 16.5194L24.3355 34.1871C28.3087 37.0767 33.6913 37.0767 37.6645 34.1871L61.957 16.5194C61.5587 12.7809 58.3958 9.86867 54.5518 9.86867Z" fill="url(#paint3_linear_158_125)"/>
<path d="M20.146 25.3274C21.1648 25.3274 21.9908 24.6637 21.9908 23.8449C21.9908 23.0262 21.1648 22.3625 20.146 22.3625C19.1272 22.3625 18.3013 23.0262 18.3013 23.8449C18.3013 24.6637 19.1272 25.3274 20.146 25.3274Z" fill="#EAADCD"/>
<path d="M41.8545 25.3274C42.8733 25.3274 43.6993 24.6637 43.6993 23.8449C43.6993 23.0262 42.8733 22.3625 41.8545 22.3625C40.8357 22.3625 40.0098 23.0262 40.0098 23.8449C40.0098 24.6637 40.8357 25.3274 41.8545 25.3274Z" fill="#EAADCD"/>
<path d="M23.3079 23.8449C25.3282 23.8449 26.9659 22.2072 26.9659 20.1869C26.9659 18.1667 25.3282 16.5289 23.3079 16.5289C21.2876 16.5289 19.6499 18.1667 19.6499 20.1869C19.6499 22.2072 21.2876 23.8449 23.3079 23.8449Z" fill="white"/>
<path d="M38.6917 23.8449C40.7119 23.8449 42.3497 22.2072 42.3497 20.1869C42.3497 18.1667 40.7119 16.5289 38.6917 16.5289C36.6714 16.5289 35.0337 18.1667 35.0337 20.1869C35.0337 22.2072 36.6714 23.8449 38.6917 23.8449Z" fill="white"/>
<path d="M23.3081 22.3671C24.5122 22.3671 25.4883 21.391 25.4883 20.187C25.4883 18.9829 24.5122 18.0068 23.3081 18.0068C22.104 18.0068 21.1279 18.9829 21.1279 20.187C21.1279 21.391 22.104 22.3671 23.3081 22.3671Z" fill="#3B3B44"/>
<path d="M38.6919 22.3671C39.896 22.3671 40.8721 21.391 40.8721 20.187C40.8721 18.9829 39.896 18.0068 38.6919 18.0068C37.4878 18.0068 36.5117 18.9829 36.5117 20.187C36.5117 21.391 37.4878 22.3671 38.6919 22.3671Z" fill="#3B3B44"/>
<path d="M31.0001 23.9613C30.3519 23.9613 29.7039 23.7162 29.1752 23.2259C28.9252 22.994 28.9103 22.6034 29.1423 22.3532C29.3742 22.1031 29.765 22.0882 30.015 22.3203C30.5952 22.8582 31.4053 22.8582 31.9854 22.3203C32.2354 22.0884 32.6262 22.1031 32.8582 22.3532C33.0899 22.6033 33.0753 22.9939 32.8252 23.2259C32.2963 23.7161 31.6483 23.9613 31.0001 23.9613Z" fill="#3B3B44"/>
<path d="M47.6998 14.809H46.3307C45.6486 14.809 45.0957 14.2561 45.0957 13.574C45.0957 12.8919 45.6486 12.339 46.3307 12.339H47.6998C48.3819 12.339 48.9349 12.8919 48.9349 13.574C48.9349 14.2561 48.3819 14.809 47.6998 14.809Z" fill="#DFF7FA"/>
<path d="M57.3099 16.0147C56.9767 16.0147 56.6445 15.8806 56.401 15.6161C55.9287 15.1032 55.2548 14.8089 54.5521 14.8089H52.7468C52.0646 14.8089 51.5117 14.256 51.5117 13.5739C51.5117 12.8918 52.0646 12.3389 52.7468 12.3389H54.5521C55.9434 12.3389 57.2798 12.9235 58.2183 13.9432C58.6803 14.445 58.648 15.2263 58.1461 15.6883C57.9087 15.9069 57.6089 16.0147 57.3099 16.0147Z" fill="#DFF7FA"/>
</g>
<defs>
<linearGradient id="paint0_linear_158_125" x1="31.0024" y1="22.8784" x2="31.0024" y2="48.4118" gradientUnits="userSpaceOnUse">
<stop stop-color="#53AAE6"/>
<stop offset="1" stop-color="#A4D2F0"/>
</linearGradient>
<linearGradient id="paint1_linear_158_125" x1="45.9472" y1="33.3534" x2="68.2742" y2="33.3534" gradientUnits="userSpaceOnUse">
<stop stop-color="#53AAE6"/>
<stop offset="1" stop-color="#A4D2F0"/>
</linearGradient>
<linearGradient id="paint2_linear_158_125" x1="16.0499" y1="33.3534" x2="-6.27717" y2="33.3534" gradientUnits="userSpaceOnUse">
<stop stop-color="#53AAE6"/>
<stop offset="1" stop-color="#A4D2F0"/>
</linearGradient>
<linearGradient id="paint3_linear_158_125" x1="31.0024" y1="-3.42056" x2="31.0024" y2="28.0795" gradientUnits="userSpaceOnUse">
<stop stop-color="#74D2E8"/>
<stop offset="1" stop-color="#BAEAF5"/>
</linearGradient>
<clipPath id="clip0_158_125">
<rect width="62" height="62" fill="white"/>
</clipPath>
</defs>
</svg>
