<svg width="57" height="61" viewBox="0 0 57 61" fill="none" xmlns="http://www.w3.org/2000/svg">
<g clip-path="url(#clip0_190_641)" filter="url(#filter0_d_190_641)">
<path d="M44.6034 56.2154H12.3252C6.46681 56.2154 1.71191 51.4406 1.71191 45.5576V19.9237C1.71191 14.0407 6.46681 9.26593 12.3252 9.26593H44.6034C50.4618 9.26593 55.2167 14.0407 55.2167 19.9237V45.5576C55.2167 51.4406 50.4618 56.2154 44.6034 56.2154Z" fill="#F9B842"/>
<path d="M44.6034 56.2154H12.3252C6.46681 56.2154 1.71191 51.4406 1.71191 45.5576V19.9237C1.71191 14.0407 6.46681 9.26593 12.3252 9.26593H44.6034C50.4618 9.26593 55.2167 14.0407 55.2167 19.9237V45.5576C55.2167 51.4406 50.4618 56.2154 44.6034 56.2154Z" fill="#FFD27B"/>
<path d="M45.9824 4.94742C51.0781 4.94742 55.2163 9.49407 55.2163 15.1163V46.0465C55.2163 51.6524 50.0882 56.2154 44.9763 56.2154H33.584V4.94742H45.9824Z" fill="url(#paint0_linear_190_641)"/>
<path d="M10.9453 4.94742C5.84963 4.94742 1.7114 9.49407 1.7114 15.1163V46.0465C1.7114 51.6524 6.83955 56.2154 11.9515 56.2154H23.3438V4.94742H10.9453Z" fill="url(#paint1_linear_190_641)"/>
<path d="M44.6034 46.8613H12.3252C6.46681 46.8613 1.71191 42.0865 1.71191 36.2036V10.5859C1.71191 4.70299 6.46681 -0.0718079 12.3252 -0.0718079H44.6034C50.4618 -0.0718079 55.2167 4.70299 55.2167 10.5859V36.2199C55.2167 42.0865 50.4618 46.8613 44.6034 46.8613Z" fill="#FFDE32"/>
<path d="M35.0371 24.5243C34.9616 24.6018 34.6762 24.933 34.4104 25.2055C32.8521 26.9191 28.7869 29.7239 26.6592 30.5801C26.3361 30.7176 25.5191 31.0088 25.0827 31.0275C24.6644 31.0275 24.2657 30.9313 23.8853 30.7363C23.411 30.4639 23.0305 30.0351 22.8221 29.5289C22.6878 29.1776 22.4794 28.1265 22.4794 28.1078C22.2709 26.9578 22.1562 25.0893 22.1562 23.0244C22.1562 21.0571 22.2709 19.2646 22.4416 18.0973C22.4611 18.0786 22.6696 16.7724 22.8976 16.3249C23.3159 15.5075 24.1328 15 25.0071 15L25.0827 15C25.652 15.02 26.8494 15.5276 26.8494 15.5463C28.8625 16.4037 32.8339 19.071 34.43 20.8434C34.43 20.8434 34.8795 21.2988 35.0749 21.5833C35.3798 21.992 35.5309 22.4982 35.5309 23.0044C35.5309 23.5694 35.3603 24.0956 35.0371 24.5243Z" fill="white"/>
</g>
<defs>
<filter id="filter0_d_190_641" x="0" y="0" width="57" height="61" filterUnits="userSpaceOnUse" color-interpolation-filters="sRGB">
<feFlood flood-opacity="0" result="BackgroundImageFix"/>
<feColorMatrix in="SourceAlpha" type="matrix" values="0 0 0 0 0 0 0 0 0 0 0 0 0 0 0 0 0 0 127 0" result="hardAlpha"/>
<feOffset dy="3"/>
<feGaussianBlur stdDeviation="1"/>
<feColorMatrix type="matrix" values="0 0 0 0 0.870588 0 0 0 0 0.6 0 0 0 0 0.34902 0 0 0 1 0"/>
<feBlend mode="normal" in2="BackgroundImageFix" result="effect1_dropShadow_190_641"/>
<feBlend mode="normal" in="SourceGraphic" in2="effect1_dropShadow_190_641" result="shape"/>
</filter>
<linearGradient id="paint0_linear_190_641" x1="62.2829" y1="30.5824" x2="33.5874" y2="30.5824" gradientUnits="userSpaceOnUse">
<stop stop-color="#FFBE5C"/>
<stop offset="0.84375" stop-color="#FFA90B" stop-opacity="0"/>
</linearGradient>
<linearGradient id="paint1_linear_190_641" x1="-5.35521" y1="30.5824" x2="23.3403" y2="30.5824" gradientUnits="userSpaceOnUse">
<stop stop-color="#FFBE5C"/>
<stop offset="0.84375" stop-color="#FFA90B" stop-opacity="0"/>
</linearGradient>
<clipPath id="clip0_190_641">
<rect width="53" height="56" fill="white" transform="translate(2)"/>
</clipPath>
</defs>
</svg>
