<svg width="260" height="72" viewBox="0 0 260 72" fill="none" xmlns="http://www.w3.org/2000/svg">
<path d="M27.9531 1.85938C49.0781 1.85938 59.6406 9.60938 59.6406 25.1094C59.6406 32.6406 56.9531 39 51.5781 44.1875C46.2031 49.375 39.5469 51.9688 31.6094 51.9688H26.5938V67.8125C24.9375 69.9375 20.9375 71 14.5938 71C10 71 6.625 69.7969 4.46875 67.3906C2.34375 64.9844 1.28125 61.9688 1.28125 58.3438L0.859375 8.14062C0.859375 6.98437 4.3125 5.65625 11.2188 4.15625C18.0938 2.625 23.6719 1.85938 27.9531 1.85938ZM29.2188 35.2812C34.6562 35.2812 37.375 32.9219 37.375 28.2031C37.375 23.7969 35.125 21.5781 30.625 21.5469C28.25 21.5469 26.4688 22.0312 25.2812 23V34.4375C25.6562 35 26.9688 35.2812 29.2188 35.2812ZM125.875 61.6719C125.875 63.2344 125.109 64.9219 123.578 66.7344C122.984 67.4219 121.766 68.3125 119.922 69.4062C118.109 70.4688 115.516 71 112.141 71C106.234 71 102.172 67.7344 99.9531 61.2031C99.3906 59.5781 98.8125 57.7969 98.2188 55.8594L97.3281 52.9531L97.2344 52.2031C93.4531 51.4531 89.9375 51.4531 86.6875 52.2031C83.8438 58.9531 82.3125 63.4219 82.0938 65.6094C81.875 66.0781 81.5312 66.5781 81.0625 67.1094C80.5312 67.7969 79.3906 68.6094 77.6406 69.5469C75.8906 70.5156 73.8594 71 71.5469 71C67.6719 71 64.5 69.9844 62.0312 67.9531C59.5938 65.8906 58.375 63.2969 58.375 60.1719C58.375 58.0781 58.7344 55.9531 59.4531 53.7969C59.3906 54.2656 65.3281 38.1094 77.2656 5.32812C78.2344 4.54687 80.0469 3.78125 82.7031 3.03125C85.3281 2.25 88.875 1.85938 93.3438 1.85938C97.7812 1.85938 101.266 2.79688 103.797 4.67188C106.328 6.45312 108.703 10.1406 110.922 15.7344C113.141 21.2969 114.969 26.6562 116.406 31.8125C117.812 36.6562 118.688 39.6094 119.031 40.6719L125.875 61.6719ZM89.0781 38.375H95.8281L93.4375 23.2812C93.4375 22.3125 93.2031 21.8281 92.7344 21.8281C92.4844 21.8906 92.2656 22.4062 92.0781 23.375L89.0781 38.375ZM155.359 1.85938C176.422 1.85938 186.953 9.60938 186.953 25.1094C186.953 32.6719 185 38.2656 181.094 41.8906C180.844 42.0469 180.719 42.3438 180.719 42.7812C180.719 44.3438 182.344 47.9219 185.594 53.5156C188.875 59.0781 190.516 61.9375 190.516 62.0938C190.266 64.7812 188.641 66.9531 185.641 68.6094C182.641 70.2969 179.297 71.1562 175.609 71.1875C171.547 71.1875 168.172 69.1562 165.484 65.0938C164.234 63.2188 163.203 61.5312 162.391 60.0312C161.547 58.4062 160.797 56.6875 160.141 54.875C159.422 52.9062 159.047 51.9062 159.016 51.875H153.906V67.7188C152.281 69.9062 148.312 71 142 71C137.406 71 134.031 69.7812 131.875 67.3438C129.75 64.875 128.688 61.8438 128.688 58.25L128.266 8.14062C128.266 6.98437 131.703 5.65625 138.578 4.15625C145.391 2.625 150.984 1.85938 155.359 1.85938ZM156.531 35.2812C161.969 35.2812 164.688 32.9219 164.688 28.2031C164.688 23.7969 162.469 21.5781 158.031 21.5469C155.656 21.5469 153.875 22.0312 152.688 23V34.3438C153.031 34.9688 154.312 35.2812 156.531 35.2812ZM258.906 19.0156C258.906 22.8594 257.938 27.4219 256 32.7031C254.094 37.8906 251.188 42.2031 247.281 45.6406C249.938 48.7656 252.359 51.6562 254.547 54.3125C257.766 58.1562 259.344 60.1094 259.281 60.1719C258.938 62.3281 258.094 64.4062 256.75 66.4062C255.406 68.4062 253.609 69.7344 251.359 70.3906C249.172 71.0469 247.406 71.375 246.062 71.375C242.969 71.375 240.172 70.6406 237.672 69.1719C235.266 67.7656 233.031 65.3906 230.969 62.0469C229 58.7969 227.75 55.2812 227.219 51.5L222.156 51.5938V64.2031C221.594 65.8594 220.375 67.4375 218.5 68.9375C216.625 70.4375 214.188 71.1875 211.188 71.1875C200.062 71.1875 194.5 65.4219 194.5 53.8906L193.797 5.51562C197.609 3.23437 201.938 2.09375 206.781 2.09375C211.625 2.09375 215.484 3.14062 218.359 5.23438C221.266 7.29688 222.719 10.2812 222.719 14.1875L222.531 33.1719C223.062 33.2969 223.797 33.3594 224.734 33.3594C229.078 33.3594 231.25 31.1875 231.25 26.8438L231.344 8.70312C231.344 5.54688 231.312 3.9375 231.25 3.875L234.156 2.84375C241.719 1 247.734 1.51563 252.203 4.39062C256.672 7.26562 258.906 12.1406 258.906 19.0156Z" fill="white"/>
</svg>
