<svg width="62" height="62" viewBox="0 0 62 62" fill="none" xmlns="http://www.w3.org/2000/svg">
<path d="M54.143 54.7469C51.7268 50.0544 49.6836 47.6098 47.0018 44.928C44.3199 42.2463 41.8754 40.2029 37.183 37.7868L34.516 40.4538C32.0727 42.8971 27.2152 39.9341 24.6409 37.3596C22.0664 34.7852 19.1035 29.9276 21.5467 27.4844L24.2138 24.8174C21.7976 20.1249 19.7544 17.6804 17.0725 14.9987C14.3907 12.317 11.9462 10.2736 7.25382 7.85745L4.58659 10.5244C-6.04382 21.155 3.86506 38.9127 13.4764 48.524C23.0878 58.1354 40.8456 68.0443 51.476 57.4139L54.143 54.7469Z" fill="url(#paint0_linear_161_37)"/>
<path d="M53.9869 51.4294C53.0239 50.4554 51.4523 50.451 50.4838 51.4195L47.9828 53.9206C45.8703 56.0329 43.3039 57.0598 40.1363 57.0598C36.7498 57.0598 33.0162 55.8889 29.3866 54.0676C28.2253 53.4849 26.811 53.9018 26.1504 55.0206C25.4233 56.2517 25.8862 57.846 27.1646 58.4864C35.5843 62.7041 44.8956 63.9942 51.476 57.4138L53.977 54.9129C54.9379 53.952 54.9422 52.3956 53.9869 51.4294V51.4294Z" fill="#E20000"/>
<path d="M25.7844 12.2924L19.7785 6.28658C16.7536 3.26167 11.8493 3.26167 8.82441 6.28658L7.25342 7.85745C9.02906 11.3027 11.7022 15.0052 14.3839 17.687C17.0656 20.3687 20.7682 23.0418 24.2135 24.8175L25.7844 23.2467C28.8093 20.2216 28.8093 15.3173 25.7844 12.2924V12.2924Z" fill="#FFD000"/>
<path d="M49.7081 36.216L55.7139 42.2219C58.7388 45.2468 58.7388 50.1511 55.7139 53.176L54.1431 54.7468C50.6979 52.9712 46.9953 50.298 44.3136 47.6164C41.6319 44.9347 38.9589 41.2321 37.1831 37.7869L38.754 36.216C41.7789 33.191 46.6832 33.1911 49.7081 36.216Z" fill="#FFD000"/>
<path d="M50.4837 51.4195L49.7866 52.1166C51.2183 53.1037 52.697 54.0008 54.1322 54.7411C54.9342 53.7746 54.8873 52.34 53.9867 51.4294C53.0237 50.4554 51.4521 50.4511 50.4837 51.4195Z" fill="#EFC534"/>
<path d="M56.5924 23.2856C56.5923 13.4277 48.5723 5.40783 38.7145 5.40771C37.2213 5.40759 36.0107 4.19698 36.0107 2.70379C36.0109 1.21061 37.2213 0 38.7147 0C51.554 0.000247012 61.9999 10.4459 62.0001 23.2854C62.0001 24.7788 60.7896 25.9894 59.2963 25.9892C57.8032 25.9894 56.5924 24.7789 56.5924 23.2856V23.2856Z" fill="#FFD000"/>
<path d="M46.319 23.2852C46.319 19.0923 42.908 15.6812 38.715 15.6812C37.2218 15.6812 36.0115 14.4707 36.0112 12.9773C36.0114 11.4841 37.2218 10.2735 38.7151 10.2735C45.8895 10.2736 51.7265 16.1106 51.7266 23.2849C51.7267 24.7783 50.5161 25.9889 49.0228 25.9887C47.5298 25.9891 46.319 24.7785 46.319 23.2852V23.2852Z" fill="#FFD000"/>
<path d="M11.5197 10.94C11.2036 10.94 10.8875 10.8195 10.6464 10.5783C10.1641 10.096 10.1641 9.31396 10.6464 8.83155L11.0081 8.4698C11.5627 7.91538 12.2501 7.50756 12.9962 7.29056C13.651 7.1 14.3365 7.47656 14.5269 8.13164C14.7175 8.78659 14.3409 9.47205 13.686 9.6625C13.333 9.76513 13.0198 9.9515 12.7548 10.2165L12.393 10.5783C12.1518 10.8195 11.8357 10.94 11.5197 10.94Z" fill="#FFFDE3"/>
<path d="M4.93731 19.1091C4.80689 19.1091 4.67437 19.0882 4.54394 19.0445C3.89739 18.8274 3.5491 18.1272 3.76623 17.4805C4.36807 15.6883 5.35056 14.1271 6.76989 12.7077L7.0521 12.4254C7.53439 11.9431 8.31643 11.943 8.79872 12.4252C9.28114 12.9075 9.28114 13.6894 8.79897 14.1718L8.51664 14.4542C7.37322 15.5976 6.58537 16.8446 6.1079 18.2668C5.93462 18.783 5.45332 19.1091 4.93731 19.1091V19.1091Z" fill="white"/>
<defs>
<linearGradient id="paint0_linear_161_37" x1="27.0005" y1="65.5" x2="27.0717" y2="31.7809" gradientUnits="userSpaceOnUse">
<stop stop-color="#E61F1F"/>
<stop offset="1" stop-color="#FF6969"/>
</linearGradient>
</defs>
</svg>
