<svg width="57" height="61" viewBox="0 0 57 61" fill="none" xmlns="http://www.w3.org/2000/svg">
<g clip-path="url(#clip0_190_630)" filter="url(#filter0_d_190_630)">
<path d="M44.6029 56.2154H12.3247C6.46632 56.2154 1.71143 51.4406 1.71143 45.5576V19.9237C1.71143 14.0407 6.46632 9.26593 12.3247 9.26593H44.6029C50.4613 9.26593 55.2162 14.0407 55.2162 19.9237V45.5576C55.2162 51.4406 50.4613 56.2154 44.6029 56.2154Z" fill="#F9B842"/>
<path d="M44.6029 56.2154H12.3247C6.46632 56.2154 1.71143 51.4406 1.71143 45.5576V19.9237C1.71143 14.0407 6.46632 9.26593 12.3247 9.26593H44.6029C50.4613 9.26593 55.2162 14.0407 55.2162 19.9237V45.5576C55.2162 51.4406 50.4613 56.2154 44.6029 56.2154Z" fill="#FFD27B"/>
<path d="M45.9824 4.94742C51.0781 4.94742 55.2163 9.49407 55.2163 15.1163V46.0465C55.2163 51.6524 50.0882 56.2154 44.9763 56.2154H33.584V4.94742H45.9824Z" fill="url(#paint0_linear_190_630)"/>
<path d="M10.9453 4.94742C5.84963 4.94742 1.7114 9.49407 1.7114 15.1163V46.0465C1.7114 51.6524 6.83955 56.2154 11.9515 56.2154H23.3438V4.94742H10.9453Z" fill="url(#paint1_linear_190_630)"/>
<path d="M44.6029 46.8613H12.3247C6.46632 46.8613 1.71143 42.0865 1.71143 36.2036V10.5859C1.71143 4.70299 6.46632 -0.0718079 12.3247 -0.0718079H44.6029C50.4613 -0.0718079 55.2162 4.70299 55.2162 10.5859V36.2199C55.2162 42.0865 50.4613 46.8613 44.6029 46.8613Z" fill="#FFDE32"/>
<path d="M22.6504 21.5031C22.7259 21.4257 23.0113 21.0944 23.2771 20.822C24.8354 19.1084 28.9006 16.3036 31.0283 15.4474C31.3514 15.3099 32.1684 15.0187 32.6048 15C33.0231 15 33.4218 15.0962 33.8022 15.2912C34.2765 15.5636 34.657 15.9924 34.8654 16.4986C34.9996 16.8498 35.2081 17.901 35.2081 17.9197C35.4166 19.0696 35.5312 20.9382 35.5312 23.0031C35.5312 24.9704 35.4166 26.7628 35.2459 27.9302C35.2264 27.9489 35.0179 29.2551 34.7899 29.7025C34.3716 30.5199 33.5547 31.0275 32.6804 31.0275L32.6048 31.0275C32.0355 31.0074 30.8381 30.4999 30.8381 30.4812C28.825 29.6237 24.8536 26.9565 23.2575 25.1841C23.2575 25.1841 22.808 24.7287 22.6126 24.4442C22.3077 24.0355 22.1566 23.5293 22.1566 23.0231C22.1566 22.4581 22.3272 21.9319 22.6504 21.5031Z" fill="white"/>
</g>
<defs>
<filter id="filter0_d_190_630" x="0" y="0" width="57" height="61" filterUnits="userSpaceOnUse" color-interpolation-filters="sRGB">
<feFlood flood-opacity="0" result="BackgroundImageFix"/>
<feColorMatrix in="SourceAlpha" type="matrix" values="0 0 0 0 0 0 0 0 0 0 0 0 0 0 0 0 0 0 127 0" result="hardAlpha"/>
<feOffset dy="3"/>
<feGaussianBlur stdDeviation="1"/>
<feColorMatrix type="matrix" values="0 0 0 0 0.870588 0 0 0 0 0.6 0 0 0 0 0.34902 0 0 0 1 0"/>
<feBlend mode="normal" in2="BackgroundImageFix" result="effect1_dropShadow_190_630"/>
<feBlend mode="normal" in="SourceGraphic" in2="effect1_dropShadow_190_630" result="shape"/>
</filter>
<linearGradient id="paint0_linear_190_630" x1="62.2829" y1="30.5824" x2="33.5874" y2="30.5824" gradientUnits="userSpaceOnUse">
<stop stop-color="#FFBE5C"/>
<stop offset="0.84375" stop-color="#FFA90B" stop-opacity="0"/>
</linearGradient>
<linearGradient id="paint1_linear_190_630" x1="-5.35521" y1="30.5824" x2="23.3403" y2="30.5824" gradientUnits="userSpaceOnUse">
<stop stop-color="#FFBE5C"/>
<stop offset="0.84375" stop-color="#FFA90B" stop-opacity="0"/>
</linearGradient>
<clipPath id="clip0_190_630">
<rect width="53" height="56" fill="white" transform="translate(2)"/>
</clipPath>
</defs>
</svg>
