<svg width="687" height="116" viewBox="0 0 687 116" fill="none" xmlns="http://www.w3.org/2000/svg">
<path d="M52.4062 71.2031C52.4062 77.7969 50.2188 83 45.8438 86.8125C41.5 90.5938 35.5625 92.6562 28.0312 93H27.2812C19.8125 92.8438 13.8438 91.4688 9.375 88.875C4.90625 86.25 2.67188 82.9531 2.67188 78.9844C2.67188 76.6719 3.04688 74.6719 3.79688 72.9844C4.60938 71.2344 5.39062 70.125 6.14062 69.6562L7.21875 68.9062C14.3125 72.0938 20 73.6875 24.2812 73.6875C27.0938 73.6875 28.5312 72.9531 28.5938 71.4844C28.5938 70.5781 27.3438 69.4844 24.8438 68.2031C22.3438 66.8594 19.8906 65.7812 17.4844 64.9688L13.7344 63.6094C10.8281 62.5156 8.42188 61.0156 6.51562 59.1094C4.60938 57.1719 3.20312 54.8281 2.29688 52.0781C1.39062 49.2344 0.953125 46.5312 0.984375 43.9688C1.04688 41.2812 1.625 38.7188 2.71875 36.2812C3.875 33.75 5.9375 31.3906 8.90625 29.2031C11.9062 26.9531 15.3438 25.5 19.2188 24.8438C23.125 24.1875 26.1406 23.8594 28.2656 23.8594C33.2031 23.8594 38.1094 24.875 42.9844 26.9062C45.5469 27.9688 47.625 29.5625 49.2188 31.6875C50.8438 33.7812 51.6562 36.0312 51.6562 38.4375C51.6562 40.8125 51.0938 43.0625 49.9688 45.1875C48.875 47.3438 47.6719 48.625 46.3594 49.0312C39.1406 46.0312 33.6406 44.5312 29.8594 44.5312C27.1094 44.5312 25.5781 45.0781 25.2656 46.1719L25.0781 46.7344C25.0781 47.5781 25.9844 48.375 27.7969 49.125C29.6406 49.8438 31.4844 50.3594 33.3281 50.6719L36.0938 51.1406C39.1562 52.0156 41.875 53.3438 44.25 55.125C46.5625 56.875 48.5 59.2344 50.0625 62.2031C51.625 65.1719 52.4062 68.1719 52.4062 71.2031ZM113.906 57.1875L112.922 89.0625C112.922 89.3125 112.953 89.4688 113.016 89.5312C111.797 90.5 110.094 91.3281 107.906 92.0156C105.594 92.7344 103.406 93.0938 101.344 93.0938C99.1875 93.0938 97.4219 92.7969 96.0469 92.2031C94.6406 91.5781 93.7344 91.0156 93.3281 90.5156C92.9219 90.0156 92.4062 89.1406 91.7812 87.8906L90.8438 86.1094L86.25 89.5781C85.2812 90.2656 83.8281 91.0156 81.8906 91.8281C80.0156 92.6094 77.6562 93 74.8125 93C71.9688 93 69.375 92.6094 67.0312 91.8281C64.7188 91.0469 62.4844 89.6562 60.3281 87.6562C58.2656 85.6875 57.2344 81.4531 57.2344 74.9531V71.5781C57.2344 67.9219 57.3594 63.1406 57.6094 57.2344C57.9219 50.0469 58.0781 46.2812 58.0781 45.9375C58.1719 45.7188 59.0781 44.9062 60.7969 43.5C62.5156 42.125 65.5469 41.4375 69.8906 41.4375C74.2656 41.4375 77.4062 42.5625 79.3125 44.8125C81.2812 47.0625 82.2656 49.5938 82.2656 52.4062L81.7969 71.9531C81.7969 74.2031 82.8594 75.3281 84.9844 75.3281C87.0469 75.2969 88.5469 74.1094 89.4844 71.7656V44.7188C91.1094 43 94.9531 42.1406 101.016 42.1406C105.766 42.1406 109.203 43.4375 111.328 46.0312C113.984 46.75 115.547 46.6719 116.016 45.7969C116.578 44.3594 115.984 43.2812 114.234 42.5625L110.156 41.625C108.188 40.8438 107.547 39.1406 108.234 36.5156C109.766 32.7031 113.422 31.9531 119.203 34.2656C122.703 35.6719 125.047 37.9219 126.234 41.0156C127.391 44.1094 127.375 47.1719 126.188 50.2031C124.969 53.2656 122.516 55.3594 118.828 56.4844C117.203 56.9844 115.562 57.2188 113.906 57.1875ZM81.2344 113.25C79.9844 112 79.3594 110.469 79.3594 108.656C79.3594 106.844 79.9688 105.281 81.1875 103.969C82.4375 102.625 83.9688 101.953 85.7812 101.953C87.5938 101.953 89.1562 102.625 90.4688 103.969C91.8125 105.281 92.4844 106.844 92.4844 108.656C92.4844 110.438 91.8281 111.969 90.5156 113.25C89.2344 114.5 87.6719 115.125 85.8281 115.125C84.0156 115.125 82.4844 114.5 81.2344 113.25ZM182.203 33.0938C186.109 33.0938 189.531 34.2656 192.469 36.6094C195.438 38.9531 196.922 42.8125 196.922 48.1875C196.922 52.1875 196.125 55.7656 194.531 58.9219C193 62.0469 190.328 65.3438 186.516 68.8125C193.797 77.9688 197.391 82.6094 197.297 82.7344C197.078 84.6719 196.484 86.4062 195.516 87.9375C194.516 89.4688 193.281 90.75 191.812 91.7812C190.281 92.8438 188.141 93.375 185.391 93.375C182.641 93.375 180.141 92.6719 177.891 91.2656C175.641 89.8594 173.672 87.625 171.984 84.5625C170.328 81.5 169.188 78.1094 168.562 74.3906L163.969 74.4844V86.5781C162.906 88.4531 161.703 90.0469 160.359 91.3594C159.109 92.5781 157.047 93.1875 154.172 93.1875C144.266 93.1875 139.312 87.6875 139.312 76.6875L138.609 28.875C142.047 26.6875 145.969 25.5938 150.375 25.5938C154.812 25.5938 158.266 26.5781 160.734 28.5469C163.266 30.5469 164.531 33.4062 164.531 37.125L164.344 57C164.844 57.125 165.516 57.1875 166.359 57.1875C170.203 57.1875 172.125 55.1094 172.125 50.9531L172.219 39.6094C172.219 36.6094 172.188 35.1094 172.125 35.1094L174.609 34.1719C177.109 33.4531 179.641 33.0938 182.203 33.0938ZM196.688 44.1562C196.688 39.9062 198.062 36.6875 200.812 34.5C203.594 32.2812 207.156 31.1719 211.5 31.1719C215.875 31.1719 219.656 32.6719 222.844 35.6719C226.062 38.6094 227.672 42.5312 227.672 47.4375C227.672 52.3125 225.531 56.3281 221.25 59.4844C222.906 60.8594 223.734 62.8438 223.734 65.4375V88.9688C221.359 91.7812 217.047 93.1875 210.797 93.1875C203.641 93.1875 199.953 90.3125 199.734 84.5625C199.484 75.2188 199.359 69.9375 199.359 68.7188C199.359 66.7812 199.422 65.3594 199.547 64.4531C199.703 63.3906 200.062 62.3594 200.625 61.3594C201.219 60.3281 201.859 59.6406 202.547 59.2969C204.078 59.8281 205.859 60.125 207.891 60.1875C212.047 60.1875 215.609 58.75 218.578 55.875C221.578 52.9688 223.078 49.5 223.078 45.4688L220.5 44.0625C220.5 47.3438 219.25 50.1875 216.75 52.5938C214.281 54.9688 211.328 56.1562 207.891 56.1562H207.516C205.922 56.1562 204.141 55.7031 202.172 54.7969C198.516 53.0156 196.688 49.4688 196.688 44.1562ZM280.125 62.7656C280.125 68.5156 279.062 71.9062 276.938 72.9375H247.406C247.406 73.4062 248.016 74.3906 249.234 75.8906C250.516 77.3906 252.891 78.1406 256.359 78.1406C262.734 78.1406 267.141 77.2969 269.578 75.6094L270.797 74.7656C271.172 74.7656 272.531 75.1562 274.875 75.9375C277.281 76.75 278.547 78.375 278.672 80.8125C278.734 81.5 278.766 82.375 278.766 83.4375C278.766 84.6562 278.547 85.7812 278.109 86.8125C277.672 87.8125 276.438 89.0938 274.406 90.6562C272.375 92.2188 267.047 93 258.422 93C253.141 93 248.578 92.2812 244.734 90.8438C240.828 89.375 237.312 86.8281 234.188 83.2031C231.031 79.4844 229.453 74.0781 229.453 66.9844C229.453 64.5469 229.797 61.8594 230.484 58.9219C231.203 55.9219 232.188 53.4844 233.438 51.6094C234.719 49.6406 236.797 47.2969 239.672 44.5781C242.609 41.7969 248.156 40.4062 256.312 40.4062C264.094 40.4062 269.859 42.25 273.609 45.9375C275.234 47.4688 276.734 49.6562 278.109 52.5C279.453 55.2188 280.125 58.6406 280.125 62.7656ZM263.109 62.8594V62.2031C263.109 60.1719 262.484 58.5156 261.234 57.2344C259.922 55.9219 258.125 55.2656 255.844 55.2656C251.156 55.2656 248.719 57.7969 248.531 62.8594H263.109ZM269.344 25.875C270.562 26.8438 271.172 28.2812 271.172 30.1875C270.953 31.5312 270.422 32.625 269.578 33.4688C268.859 34.1875 267.25 35.1094 264.75 36.2344C261.344 33.7031 258.625 31.5312 256.594 29.7188L248.344 36.7031C246.438 35.8906 244.828 34.8438 243.516 33.5625C242.484 32.375 241.922 31.25 241.828 30.1875V29.5312C241.828 28 242.469 26.7812 243.75 25.875L252.938 19.125C254.5 17.7812 255.703 17.1094 256.547 17.1094C257.328 17.1094 259.703 18.5938 263.672 21.5625L269.344 25.875ZM250.125 113.25C248.875 112 248.25 110.469 248.25 108.656C248.25 106.844 248.859 105.281 250.078 103.969C251.328 102.625 252.859 101.953 254.672 101.953C256.484 101.953 258.047 102.625 259.359 103.969C260.703 105.281 261.375 106.844 261.375 108.656C261.375 110.438 260.719 111.969 259.406 113.25C258.125 114.5 256.562 115.125 254.719 115.125C252.906 115.125 251.375 114.5 250.125 113.25ZM296.719 92.9062C288.125 92.9062 283.828 88.7188 283.828 80.3438V78.0469L284.719 45C285.938 44.0312 287.625 43.2031 289.781 42.5156C292.094 41.7969 294.281 41.4375 296.344 41.4375C298.438 41.4375 300.188 41.75 301.594 42.375C303.031 43 303.953 43.5625 304.359 44.0625C304.828 44.5938 305.344 45.4531 305.906 46.6406L306.891 48.4688L308.531 47.2031C309.594 46.3594 311.109 45.2344 313.078 43.8281C315.172 42.2969 318.484 41.5312 323.016 41.5312C325.672 41.5312 328.219 41.9375 330.656 42.75C333.062 43.5625 335.281 44.9375 337.312 46.875C339.406 48.8438 340.453 53.0781 340.453 59.5781V62.9531C340.453 66.6094 340.328 71.3906 340.078 77.2969C339.766 84.4844 339.609 88.25 339.609 88.5938C339.484 88.9062 339.031 89.375 338.25 90C337.562 90.5625 336.484 91.2344 335.016 92.0156C333.641 92.7344 331.016 93.0938 327.141 93.0938C323.234 93.0938 320.297 91.9844 318.328 89.7656C316.391 87.4844 315.422 84.9531 315.422 82.1719L315.891 62.5781C315.891 60.3281 314.844 59.2031 312.75 59.2031C310.719 59.2344 309.203 60.4219 308.203 62.7656V90.3281C306.578 92.0469 302.75 92.9062 296.719 92.9062ZM377.062 92.9062C368.469 92.9062 364.172 88.7188 364.172 80.3438V78.0469L365.062 45C366.281 44.0312 367.969 43.2031 370.125 42.5156C372.438 41.7969 374.625 41.4375 376.688 41.4375C378.781 41.4375 380.531 41.75 381.938 42.375C383.375 43 384.297 43.5625 384.703 44.0625C385.172 44.5938 385.688 45.4531 386.25 46.6406L387.234 48.4688L388.875 47.2031C389.938 46.3594 391.453 45.2344 393.422 43.8281C395.516 42.2969 398.828 41.5312 403.359 41.5312C406.016 41.5312 408.562 41.9375 411 42.75C413.406 43.5625 415.625 44.9375 417.656 46.875C419.75 48.8438 420.797 53.0781 420.797 59.5781V62.9531C420.797 66.6094 420.672 71.3906 420.422 77.2969C420.109 84.4844 419.953 88.25 419.953 88.5938C419.828 88.9062 419.375 89.375 418.594 90C417.906 90.5625 416.828 91.2344 415.359 92.0156C413.984 92.7344 411.359 93.0938 407.484 93.0938C403.578 93.0938 400.641 91.9844 398.672 89.7656C396.734 87.4844 395.766 84.9531 395.766 82.1719L396.234 62.5781C396.234 60.3281 395.188 59.2031 393.094 59.2031C391.062 59.2344 389.547 60.4219 388.547 62.7656V90.3281C386.922 92.0469 383.094 92.9062 377.062 92.9062ZM449.016 40.4062C452.734 40.4062 456.062 41.25 459 42.9375C462.031 44.6562 464.391 46.4375 466.078 48.2812C467.859 50.1562 469.328 52.6875 470.484 55.875C471.672 59.0938 472.266 62.6875 472.266 66.6562C472.266 70.6875 471.688 74.2969 470.531 77.4844C469.344 80.7344 467.906 83.2656 466.219 85.0781C464.5 86.9531 462.141 88.75 459.141 90.4688C456.203 92.1562 452.828 93 449.016 93C446.984 93 445.141 92.8906 443.484 92.6719C441.734 92.4219 439.547 91.7656 436.922 90.7031C434.297 89.6094 432.047 88.1562 430.172 86.3438C428.297 84.5312 426.656 81.8281 425.25 78.2344C423.875 74.5781 423.188 70.3438 423.188 65.5312C423.188 57.875 425.594 51.7812 430.406 47.25C435.25 42.6875 441.453 40.4062 449.016 40.4062ZM440.391 66.5156C440.391 72.7031 443.047 75.7656 448.359 75.7031C449.984 75.7031 451.562 75 453.094 73.5938C454.688 72.1875 455.484 69.9688 455.484 66.9375C455.484 63.9062 454.672 61.6875 453.047 60.2812C451.453 58.875 449.688 58.1719 447.75 58.1719C445.812 58.1719 444.094 58.9375 442.594 60.4688C441.125 62.0312 440.391 64.0469 440.391 66.5156ZM460.828 28.0781C462.047 29.0469 462.656 30.4844 462.656 32.3906C462.438 33.7344 461.906 34.8281 461.062 35.6719C460.344 36.3906 458.734 37.3125 456.234 38.4375C452.828 35.9062 450.109 33.7344 448.078 31.9219L439.828 38.9062C437.922 38.0938 436.312 37.0469 435 35.7656C433.969 34.5781 433.406 33.4531 433.312 32.3906V31.7344C433.312 30.2031 433.953 28.9844 435.234 28.0781L444.422 21.3281C445.984 19.9844 447.188 19.3125 448.031 19.3125C448.812 19.3125 451.188 20.7969 455.156 23.7656L460.828 28.0781ZM457.734 3.1875C462.609 1.0625 467.312 1.25 471.844 3.75C474.062 5.6875 475.172 8.15625 475.172 11.1562C475.172 14.1562 473.891 16.6562 471.328 18.6562C470.359 19.8125 468.859 21.1094 466.828 22.5469C462.922 24.3906 460.5 23.5312 459.562 19.9688C459.562 18.3125 460.109 16.9688 461.203 15.9375L462.844 14.7188C464.656 13.5313 465.641 12.3437 465.797 11.1562C465.734 9.875 464.922 9.23438 463.359 9.23438L459.938 9.70312C458.156 9.70312 457.094 8.57812 456.75 6.32812C456.75 4.92188 457.078 3.875 457.734 3.1875ZM473.25 44.1562C473.25 39.9062 474.625 36.6875 477.375 34.5C480.156 32.2812 483.719 31.1719 488.062 31.1719C492.438 31.1719 496.219 32.6719 499.406 35.6719C502.625 38.6094 504.234 42.5312 504.234 47.4375C504.234 52.3125 502.094 56.3281 497.812 59.4844C499.469 60.8594 500.297 62.8438 500.297 65.4375V88.9688C497.922 91.7812 493.609 93.1875 487.359 93.1875C480.203 93.1875 476.516 90.3125 476.297 84.5625C476.047 75.2188 475.922 69.9375 475.922 68.7188C475.922 66.7812 475.984 65.3594 476.109 64.4531C476.266 63.3906 476.625 62.3594 477.188 61.3594C477.781 60.3281 478.422 59.6406 479.109 59.2969C480.641 59.8281 482.422 60.125 484.453 60.1875C488.609 60.1875 492.172 58.75 495.141 55.875C498.141 52.9688 499.641 49.5 499.641 45.4688L497.062 44.0625C497.062 47.3438 495.812 50.1875 493.312 52.5938C490.844 54.9688 487.891 56.1562 484.453 56.1562H484.078C482.484 56.1562 480.703 55.7031 478.734 54.7969C475.078 53.0156 473.25 49.4688 473.25 44.1562ZM551.438 63.2344C550.188 64.7656 549.562 66.8438 549.562 69.4688C549.562 72.0625 550.156 74.0781 551.344 75.5156C552.531 76.9219 554 77.625 555.75 77.625C557.5 77.625 558.938 76.7812 560.062 75.0938C561.188 73.4062 561.75 71.3438 561.75 68.9062C561.75 66.5 561.156 64.5625 559.969 63.0938C558.812 61.6562 557.422 60.9375 555.797 60.9375C554.141 60.9375 552.688 61.7031 551.438 63.2344ZM563.203 94.1719C557.641 94.1719 553.266 92.0469 550.078 87.7969C549.922 88.6094 549.656 89.4062 549.281 90.1875C548.906 91 548.031 91.9375 546.656 93C545.312 94.0312 543.625 94.5469 541.594 94.5469C537.625 94.5469 534.328 93.5156 531.703 91.4531C529.078 89.3281 527.766 85.75 527.766 80.7188L527.672 29.4375C527.672 29.1562 528.359 28.375 529.734 27.0938C531.078 25.8437 534.781 25.2188 540.844 25.2188C545.188 25.2188 548.219 26.2656 549.938 28.3594C551.688 30.4531 552.562 33.3438 552.562 37.0312L551.906 48.1875C551.906 49.0312 551.938 49.7344 552 50.2969C552.188 49.9844 552.562 49.5 553.125 48.8438C553.656 48.2188 554.875 47.4688 556.781 46.5938C558.719 45.6562 560.75 45.1875 562.875 45.1875C567.125 45.1875 570.953 46.1719 574.359 48.1406C576.297 49.2031 578.031 50.6406 579.562 52.4531C583 56.4219 584.719 62.0938 584.719 69.4688C584.719 73.25 584 77.1562 582.562 81.1875C581.156 85.25 578.453 88.4375 574.453 90.75C570.484 93.0312 566.734 94.1719 563.203 94.1719ZM621.188 87.3281C617.875 91.1094 613.531 93 608.156 93C602.781 93 598 91.5938 593.812 88.7812C589.656 85.9688 587.578 82.0156 587.578 76.9219C587.578 71.8281 589.406 68 593.062 65.4375C596.75 62.875 600.875 61.5938 605.438 61.5938C610.031 61.5938 614.406 62.4375 618.562 64.125V63.4219C618.562 59.8281 615.594 58.0469 609.656 58.0781L599.484 58.7344C596.641 58.7344 594.406 58.1094 592.781 56.8594C591.156 55.6094 590.344 53.1562 590.344 49.5C590.344 45.8438 590.703 43.4219 591.422 42.2344C596.766 40.3594 602.453 39.3906 608.484 39.3281C616.516 39.3281 623.172 41.5 628.453 45.8438C633.766 50.1562 636.422 56.3438 636.422 64.4062L635.484 78.5156C635.453 79.5781 636.469 80.5625 638.531 81.4688C638.531 87.0625 637.578 90.3906 635.672 91.4531C633.797 92.4844 632 93 630.281 93C628.562 93 627.109 92.6875 625.922 92.0625C624.797 91.4375 623.906 90.7969 623.25 90.1406C622.625 89.4219 621.938 88.4844 621.188 87.3281ZM610.594 81.0938C614.031 81.0938 616.562 80.2969 618.188 78.7031V75.1406C617.781 74.7344 616.625 74.2188 614.719 73.5938C610.656 72.2188 607.75 72.3125 606 73.875C604.469 75.0938 604.156 76.5938 605.062 78.375C606 80.2812 607.844 81.1875 610.594 81.0938ZM624.703 25.4062C625.922 26.375 626.531 27.8125 626.531 29.7188C626.312 31.0625 625.781 32.1562 624.938 33C624.219 33.7188 622.609 34.6406 620.109 35.7656C616.703 33.2344 613.984 31.0625 611.953 29.25L603.703 36.2344C601.797 35.4219 600.188 34.375 598.875 33.0938C597.844 31.9062 597.281 30.7812 597.188 29.7188V29.0625C597.188 27.5312 597.828 26.3125 599.109 25.4062L608.297 18.6562C609.859 17.3125 611.062 16.6406 611.906 16.6406C612.688 16.6406 615.062 18.125 619.031 21.0938L624.703 25.4062ZM608.391 113.25C607.141 112 606.516 110.469 606.516 108.656C606.516 106.844 607.125 105.281 608.344 103.969C609.594 102.625 611.125 101.953 612.938 101.953C614.75 101.953 616.312 102.625 617.625 103.969C618.969 105.281 619.641 106.844 619.641 108.656C619.641 110.438 618.984 111.969 617.672 113.25C616.391 114.5 614.828 115.125 612.984 115.125C611.172 115.125 609.641 114.5 608.391 113.25ZM646.5 71.7656C646.5 67.9531 646.719 63.8906 647.156 59.5781C642.688 58.5469 640.328 57.2969 640.078 55.8281C639.953 55.2969 639.891 53.2188 639.891 49.5938C639.891 46.0312 639.953 44.25 640.078 44.25L643.641 43.2656C645.984 42.5781 647.328 42.2344 647.672 42.2344L646.875 32.8125L646.688 29.625C649.156 27.7813 653.203 26.8594 658.828 26.8594C664.516 26.8594 667.984 28.1875 669.234 30.8438C670.516 33.5625 671.156 36.9375 671.156 40.9688L683.766 40.4062C684.797 44.5312 685.297 48.4062 685.266 52.0312C685.266 57.2812 683.922 60.0312 681.234 60.2812L671.25 61.0312C670.938 62.7812 670.781 64.7031 670.781 66.7969C670.781 71.5469 671.969 73.9062 674.344 73.875H674.719C678.188 73.6562 680.625 73.125 682.031 72.2812C682.281 72.2812 683.031 72.7656 684.281 73.7344C685.531 74.6719 686.156 77.0625 686.156 80.9062C686.156 84.7812 684.688 87.8125 681.75 90C678.875 92.1875 673.625 93.2812 666 93.2812C653 93.2812 646.5 86.1094 646.5 71.7656Z" fill="white"/>
</svg>
