<svg width="272" height="66" viewBox="0 0 272 66" fill="none" xmlns="http://www.w3.org/2000/svg">
<path d="M34.9375 36.4688C34.9375 34.4375 34.4062 32.4375 33.375 30.4688C32.3438 28.5 31.0312 26.9062 29.5 25.75C27.9062 24.5625 26.0938 23.6875 24.0625 23.0938L22.2188 22.7812C21 22.5625 19.75 22.2188 18.5312 21.75C17.3125 21.25 16.7188 20.7188 16.7188 20.1562L16.8438 19.7812C17.0625 19.0625 18.0625 18.6875 19.9062 18.6875C22.4375 18.6875 26.0938 19.6875 30.9062 21.6875C31.7812 21.4062 32.5938 20.5625 33.3125 19.125C34.0625 17.7188 34.4375 16.2188 34.4375 14.625C34.4375 13.0312 33.9062 11.5312 32.8125 10.125C31.75 8.71875 30.375 7.65625 28.6562 6.9375C25.4062 5.59375 22.125 4.90625 18.8438 4.90625C17.4375 4.90625 15.4062 5.125 12.8125 5.5625C10.2188 6 7.9375 6.96875 5.9375 8.46875C3.96875 9.9375 2.59375 11.5 1.8125 13.1875C1.09375 14.8125 0.6875 16.5312 0.65625 18.3125C0.625 20.0312 0.9375 21.8125 1.53125 23.7188C2.125 25.5625 3.0625 27.125 4.34375 28.4062C5.625 29.6875 7.21875 30.6875 9.15625 31.4062L11.6562 32.3125C13.25 32.8438 14.9062 33.5625 16.5625 34.4688C18.2188 35.3125 19.0625 36.0625 19.0625 36.6562C19.0312 37.625 18.0625 38.125 16.1875 38.125C13.3438 38.125 9.53125 37.0625 4.8125 34.9375L4.09375 35.4375C3.59375 35.75 3.0625 36.5 2.53125 37.6562C2.03125 38.7812 1.78125 40.125 1.78125 41.6562C1.78125 44.3125 3.28125 46.5 6.25 48.25C9.21875 49.9688 13.2188 50.9062 18.1875 51H18.6875C23.7188 50.7812 27.6562 49.4062 30.5625 46.875C33.4688 44.3438 34.9375 40.875 34.9375 36.4688ZM75.9375 27.125C77.0312 27.1562 78.125 27 79.2188 26.6562C81.6875 25.9062 83.3125 24.5 84.125 22.4688C84.9062 20.4375 84.9375 18.4062 84.1562 16.3438C83.375 14.2812 81.8125 12.7812 79.4688 11.8438C75.625 10.3125 73.1875 10.8125 72.1562 13.3438C71.6875 15.0938 72.125 16.2188 73.4375 16.75L76.1562 17.375C77.3125 17.8438 77.7188 18.5625 77.3438 19.5312C77.0312 20.125 76 20.1562 74.2188 19.6875C72.8125 17.9688 70.5 17.0938 67.3438 17.0938C63.3125 17.0938 60.75 17.6562 59.6562 18.8125V36.8438C59.0312 38.4062 58.0312 39.1875 56.6562 39.2188C55.25 39.2188 54.5312 38.4688 54.5312 36.9688L54.8438 23.9375C54.8438 22.0625 54.1875 20.375 52.875 18.875C51.5938 17.375 49.5 16.625 46.5938 16.625C43.6875 16.625 41.6875 17.0938 40.5312 18C39.375 18.9375 38.7812 19.4688 38.7188 19.625C38.7188 19.8438 38.625 22.375 38.4062 27.1562C38.25 31.0938 38.1562 34.2812 38.1562 36.7188V38.9688C38.1562 43.3125 38.8438 46.125 40.2188 47.4375C41.6562 48.7812 43.1562 49.6875 44.6875 50.2188C46.25 50.75 47.9688 51 49.875 51C51.7812 51 53.3438 50.75 54.5938 50.2188C55.875 49.6875 56.8438 49.1875 57.5 48.7188L60.5625 46.4062L61.1875 47.5938C61.5938 48.4375 61.9375 49 62.2188 49.3438C62.5 49.6875 63.0938 50.0625 64.0312 50.4688C64.9375 50.875 66.125 51.0625 67.5625 51.0625C68.9375 51.0625 70.4062 50.8125 71.9375 50.3438C73.4062 49.875 74.5312 49.3438 75.3438 48.6875C75.3125 48.6562 75.2812 48.5312 75.2812 48.375L75.9375 27.125ZM54.1562 64.5C55 65.3438 56 65.75 57.2188 65.75C58.4375 65.75 59.5 65.3438 60.3438 64.5C61.2188 63.6562 61.6562 62.625 61.6562 61.4375C61.6562 60.2188 61.2188 59.1875 60.3125 58.3125C59.4375 57.4062 58.4062 56.9688 57.1875 56.9688C55.9688 56.9688 54.9688 57.4062 54.125 58.3125C53.3125 59.1875 52.9062 60.2188 52.9062 61.4375C52.9062 62.6562 53.3125 63.6562 54.1562 64.5ZM121.469 11.0625C119.75 11.0625 118.062 11.3125 116.406 11.7812L114.75 12.4062C114.781 12.4062 114.812 13.4062 114.812 15.4062L114.75 22.9688C114.75 25.75 113.469 27.125 110.906 27.125C110.344 27.125 109.906 27.0938 109.562 27L109.688 13.75C109.688 11.2812 108.844 9.375 107.156 8.03125C105.5 6.71875 103.219 6.0625 100.25 6.0625C97.3125 6.0625 94.6875 6.78125 92.4062 8.25L92.875 40.125C92.875 47.4688 96.1875 51.125 102.781 51.125C104.688 51.125 106.062 50.7188 106.906 49.9062C107.812 49.0312 108.594 47.9688 109.312 46.7188V38.6562L112.375 38.5938C112.781 41.0625 113.562 43.3438 114.656 45.375C115.781 47.4062 117.094 48.9062 118.594 49.8438C120.094 50.7812 121.75 51.25 123.594 51.25C125.438 51.25 126.844 50.9062 127.875 50.1875C128.844 49.5 129.688 48.6562 130.344 47.625C131 46.5938 131.375 45.4375 131.531 44.1562C131.594 44.0625 129.188 40.9688 124.344 34.875C126.875 32.5625 128.656 30.375 129.688 28.2812C130.75 26.1875 131.281 23.7812 131.281 21.125C131.281 17.5312 130.281 14.9688 128.312 13.4062C126.344 11.8438 124.062 11.0625 121.469 11.0625ZM131.125 18.4375C131.125 21.9688 132.344 24.3438 134.781 25.5312C136.094 26.125 137.281 26.4375 138.344 26.4375H138.594C140.875 26.4375 142.844 25.6562 144.5 24.0625C146.156 22.4688 147 20.5625 147 18.375L148.719 19.3125C148.719 22 147.719 24.3125 145.719 26.25C143.75 28.1562 141.375 29.125 138.594 29.125C137.25 29.0938 136.062 28.875 135.031 28.5312C134.562 28.75 134.156 29.2188 133.75 29.9062C133.375 30.5625 133.125 31.25 133.031 31.9688C132.938 32.5625 132.906 33.5312 132.906 34.8125C132.906 35.625 133 39.1562 133.156 45.375C133.312 49.2188 135.75 51.125 140.531 51.125C144.688 51.125 147.562 50.1875 149.156 48.3125V32.625C149.156 30.9062 148.594 29.5625 147.5 28.6562C150.344 26.5625 151.781 23.875 151.781 20.625C151.781 17.3438 150.719 14.75 148.562 12.7812C146.438 10.7812 143.906 9.78125 141 9.78125C138.094 9.78125 135.719 10.5312 133.875 12C132.031 13.4688 131.125 15.5938 131.125 18.4375ZM186.75 30.8438C186.75 28.0938 186.312 25.8125 185.406 24C184.5 22.0938 183.5 20.6562 182.406 19.625C179.906 17.1562 176.062 15.9375 170.875 15.9375C165.438 15.9375 161.75 16.875 159.781 18.7188C157.875 20.5312 156.469 22.0938 155.625 23.4062C154.781 24.6562 154.125 26.2812 153.656 28.2812C153.188 30.25 152.969 32.0312 152.969 33.6562C152.969 38.375 154.031 42 156.125 44.4688C158.219 46.875 160.562 48.5938 163.156 49.5625C165.719 50.5312 168.75 51 172.281 51C178.031 51 181.594 50.4688 182.938 49.4375C184.281 48.4062 185.125 47.5312 185.406 46.875C185.688 46.1875 185.844 45.4375 185.844 44.625C185.844 43.9062 185.812 43.3438 185.781 42.875C185.688 41.25 184.844 40.1562 183.25 39.625C181.688 39.0938 180.781 38.8438 180.531 38.8438L179.719 39.4062C178.094 40.5312 175.156 41.0938 170.906 41.0938C168.594 41.0938 167 40.5938 166.156 39.5938C165.344 38.5938 164.938 37.9375 164.938 37.625H184.625C186.031 36.9375 186.75 34.6875 186.75 30.8438ZM165.688 30.9062C165.812 27.5312 167.438 25.8438 170.562 25.8438C172.094 25.8438 173.281 26.2812 174.156 27.1562C175 28 175.406 29.125 175.406 30.4688V30.9062H165.688ZM175.781 3.375C173.125 1.40625 171.562 0.40625 171.031 0.40625C170.469 0.40625 169.656 0.84375 168.625 1.75L162.5 6.25C161.656 6.84375 161.219 7.65625 161.219 8.6875V9.125C161.281 9.84375 161.656 10.5938 162.344 11.375C163.219 12.2188 164.281 12.9375 165.562 13.4688L171.062 8.8125C172.406 10.0312 174.219 11.4688 176.5 13.1562C178.156 12.4062 179.25 11.7812 179.719 11.3125C180.281 10.75 180.625 10.0312 180.781 9.125C180.781 7.84375 180.375 6.90625 179.562 6.25L175.781 3.375ZM166.75 64.5C167.594 65.3438 168.594 65.75 169.812 65.75C171.031 65.75 172.094 65.3438 172.938 64.5C173.812 63.6562 174.25 62.625 174.25 61.4375C174.25 60.2188 173.812 59.1875 172.906 58.3125C172.031 57.4062 171 56.9688 169.781 56.9688C168.562 56.9688 167.562 57.4062 166.719 58.3125C165.906 59.1875 165.5 60.2188 165.5 61.4375C165.5 62.6562 165.906 63.6562 166.75 64.5ZM197.812 50.9375C201.844 50.9375 204.375 50.375 205.469 49.2188V30.8438C206.125 29.2812 207.156 28.5 208.5 28.4688C209.906 28.4688 210.594 29.2188 210.594 30.7188L210.281 43.7812C210.281 45.625 210.938 47.3125 212.219 48.8438C213.531 50.3125 215.5 51.0625 218.094 51.0625C220.688 51.0625 222.438 50.8125 223.344 50.3438C224.312 49.8125 225.031 49.375 225.5 49C226.031 48.5938 226.312 48.2812 226.406 48.0625C226.406 47.8438 226.5 45.3125 226.719 40.5312C226.875 36.5938 226.969 33.4062 226.969 30.9688V28.7188C226.969 24.375 226.281 21.5625 224.875 20.25C223.531 18.9688 222.031 18.0312 220.438 17.5C218.812 16.9688 217.125 16.6875 215.344 16.6875C212.312 16.6875 210.125 17.1875 208.719 18.2188C207.406 19.1562 206.406 19.9062 205.688 20.4688L204.594 21.3125L203.938 20.0938C203.562 19.3125 203.219 18.7188 202.906 18.375C202.625 18.0312 202.031 17.6562 201.062 17.25C200.125 16.8438 198.969 16.625 197.562 16.625C196.188 16.625 194.719 16.875 193.188 17.3438C191.75 17.8125 190.625 18.3438 189.812 19L189.219 41.0312V42.5625C189.219 48.1562 192.094 50.9375 197.812 50.9375ZM250.531 7.875C248.188 7.875 246.25 8.6875 244.656 10.3438C243.062 12 242.281 13.9375 242.281 16.1875C242.281 18.4375 243.094 20.375 244.688 21.9688C246.344 23.5625 248.281 24.375 250.531 24.375C251.656 24.375 252.719 24.1562 253.719 23.75C253.719 35.0938 253.719 41.0938 253.688 41.7188L253.656 43.1875C253.656 44.625 254 46 254.719 47.2812C255.438 48.5938 256.406 49.5312 257.562 50.125C258.75 50.7188 260.219 51 262 51C266.344 51 268.969 50.375 269.875 49.1562C270.812 47.9375 271.281 47.125 271.281 46.7812V10.8125C271.25 6.71875 268.531 4.65625 263.188 4.65625C259.969 4.65625 257.812 5.25 256.75 6.4375C255.688 7.625 255.094 8.5625 254.938 9.21875C253.594 8.3125 252.125 7.875 250.531 7.875Z" fill="white"/>
</svg>
