<svg width="160" height="40" viewBox="0 0 160 40" fill="none" xmlns="http://www.w3.org/2000/svg">
<g clip-path="url(#clip0_190_585)" filter="url(#filter0_d_190_585)">
<path d="M154.908 40H5.09247C2.28149 40 0 36.6498 0 32.5222V14.5366C0 10.4089 2.28149 7.05878 5.09247 7.05878H154.908C157.719 7.05878 160 10.4089 160 14.5366V32.5222C159.992 36.6498 157.719 40 154.908 40Z" fill="#BD000B"/>
<path d="M155.591 4.11765C158.024 4.11765 160 7.29984 160 11.2348V32.8828C160 36.8064 157.552 40 155.111 40H115.218V4.11765H155.591Z" fill="url(#paint0_linear_190_585)"/>
<path d="M4.40903 4.11765C1.97572 4.11765 -0.000385284 7.29984 -0.000385284 11.2348V32.8828C-0.000385284 36.8064 2.44842 40 4.88948 40H44.7822V4.11765H4.40903Z" fill="url(#paint1_linear_190_585)"/>
<path d="M154.915 35.805H5.09271C2.2816 35.805 0 32.1624 0 27.6743V8.13073C0 3.64266 2.2816 0 5.09271 0H154.915C157.726 0 160.008 3.64266 160.008 8.13073V27.6867C160 32.1624 157.726 35.805 154.915 35.805Z" fill="#FF000A"/>
<path d="M62.1849 16.9141V23.1631C62.1849 23.3037 62.1117 23.5 61.9652 23.752C61.8246 24.0039 61.6576 24.2148 61.4642 24.3848C61.2767 24.5488 60.9867 24.6953 60.5941 24.8242C60.2132 24.9531 59.8089 25.0176 59.3812 25.0176C58.6371 25.0176 58.0716 24.8535 57.6849 24.5254C57.5209 24.373 57.3363 24.1533 57.1312 23.8662C56.9203 23.5674 56.7767 23.1104 56.7005 22.4951V16.9141H54.4857C54.0638 16.2637 53.8529 15.5342 53.8529 14.7256C53.8529 13.9053 54.0462 13.2637 54.433 12.8008C54.8197 12.332 55.3705 12.0977 56.0853 12.0977L64.224 12.0361C64.6459 12.6748 64.8568 13.4043 64.8568 14.2246C64.8568 15.0449 64.6634 15.6982 64.2767 16.1846C63.89 16.6709 63.3451 16.9141 62.642 16.9141H62.1849ZM71.264 23.9365C70.6429 24.6455 69.8285 25 68.8207 25C67.8129 25 66.9164 24.7363 66.1312 24.209C65.3519 23.6816 64.9623 22.9404 64.9623 21.9854C64.9623 21.0303 65.305 20.3125 65.9906 19.832C66.682 19.3516 67.4554 19.1113 68.3109 19.1113C69.1722 19.1113 69.9925 19.2695 70.7718 19.5859V19.4541C70.7718 18.7803 70.2152 18.4463 69.1019 18.4521L67.1947 18.5752C66.6615 18.5752 66.2425 18.458 65.9379 18.2236C65.6332 17.9893 65.4808 17.5293 65.4808 16.8438C65.4808 16.1582 65.5482 15.7041 65.683 15.4814C66.6849 15.1299 67.7513 14.9482 68.8822 14.9365C70.388 14.9365 71.6361 15.3438 72.6263 16.1582C73.6224 16.9668 74.1205 18.127 74.1205 19.6387L73.9447 22.2842C73.9388 22.4834 74.1293 22.668 74.516 22.8379C74.516 23.8867 74.3373 24.5107 73.9798 24.71C73.6283 24.9033 73.2914 25 72.9691 25C72.6468 25 72.3744 24.9414 72.1517 24.8242C71.9408 24.707 71.7738 24.5869 71.6507 24.4639C71.5336 24.3291 71.4046 24.1533 71.264 23.9365ZM69.2777 22.7676C69.9222 22.7676 70.3968 22.6182 70.7015 22.3193V21.6514C70.6254 21.5752 70.4086 21.4785 70.0511 21.3613C69.2894 21.1035 68.7445 21.1211 68.4164 21.4141C68.1293 21.6426 68.0707 21.9238 68.2406 22.2578C68.4164 22.6152 68.7621 22.7852 69.2777 22.7676ZM68.1966 9.53125C69.1107 9.13281 69.9925 9.16797 70.8421 9.63672C71.2582 10 71.4662 10.4629 71.4662 11.0254C71.4662 11.5879 71.2259 12.0566 70.7455 12.4316C70.5638 12.6484 70.2826 12.8916 69.9017 13.1611C69.1693 13.5068 68.7152 13.3457 68.5394 12.6777C68.5394 12.3672 68.642 12.1152 68.847 11.9219L69.1546 11.6934C69.4945 11.4707 69.6791 11.248 69.7084 11.0254C69.6966 10.7852 69.5443 10.665 69.2513 10.665L68.6097 10.7529C68.2757 10.7529 68.0765 10.542 68.0121 10.1201C68.0121 9.85645 68.0736 9.66016 68.1966 9.53125ZM75.1657 15.8418C75.1657 15.0449 75.4235 14.4414 75.9391 14.0312C76.4606 13.6152 77.1286 13.4072 77.943 13.4072C78.7633 13.4072 79.4723 13.6885 80.07 14.251C80.6735 14.8018 80.9752 15.5371 80.9752 16.457C80.9752 17.3711 80.5739 18.124 79.7711 18.7158C80.0817 18.9736 80.237 19.3457 80.237 19.832V24.2441C79.7916 24.7715 78.983 25.0352 77.8112 25.0352C76.4694 25.0352 75.778 24.4961 75.737 23.418C75.6901 21.666 75.6666 20.6758 75.6666 20.4473C75.6666 20.084 75.6784 19.8174 75.7018 19.6475C75.7311 19.4482 75.7985 19.2549 75.9039 19.0674C76.0153 18.874 76.1354 18.7451 76.2643 18.6807C76.5514 18.7803 76.8854 18.8359 77.2663 18.8477C78.0455 18.8477 78.7135 18.5781 79.2702 18.0391C79.8327 17.4941 80.1139 16.8438 80.1139 16.0879L79.6305 15.8242C79.6305 16.4395 79.3961 16.9727 78.9274 17.4238C78.4645 17.8691 77.9108 18.0918 77.2663 18.0918H77.1959C76.8971 18.0918 76.5631 18.0068 76.194 17.8369C75.5084 17.5029 75.1657 16.8379 75.1657 15.8418ZM95.6178 17.5293C95.6178 17.957 95.5329 18.4258 95.3629 18.9355C95.1754 19.6035 94.7887 20.4355 94.2028 21.4316C93.6227 22.416 93.0866 23.2334 92.5944 23.8838L91.8561 24.8594C91.4518 24.9766 91.0299 25.0352 90.5905 25.0352C89.8522 25.0352 89.1959 24.8506 88.6217 24.4814C88.0475 24.1006 87.6432 23.5527 87.4088 22.8379C85.8268 19.1465 84.9508 17.2451 84.7809 17.1338C84.7809 16.6416 85.0621 16.1934 85.6246 15.7891C86.1813 15.3789 86.7409 15.1738 87.3034 15.1738C88.1061 15.1738 88.7565 15.6514 89.2545 16.6064C89.7467 17.5381 90.1393 19.0469 90.4323 21.1328H90.5377C91.0299 18.8008 91.3551 16.9639 91.5133 15.6221C91.8473 15.2646 92.3454 15.0859 93.0075 15.0859C93.3356 15.0801 93.7194 15.1562 94.1588 15.3145C95.1315 15.6836 95.6178 16.4219 95.6178 17.5293ZM99.9948 12.3613C100.305 12.1211 101.038 11.6172 102.192 10.8496L102.781 10.4541C103.033 10.4541 103.308 10.624 103.607 10.9639C103.912 11.292 104.064 11.6318 104.064 11.9834C104.064 12.1064 103.956 12.2852 103.739 12.5195C103.522 12.7539 102.485 13.4746 100.628 14.6816C100.299 14.6816 100.001 14.5615 99.7311 14.3213C99.4733 14.0752 99.3444 13.7676 99.3444 13.3984C99.3444 13.0352 99.5612 12.6895 99.9948 12.3613ZM105.576 19.3311C105.576 20.4092 105.377 21.0449 104.978 21.2383H99.4411C99.4411 21.3262 99.5553 21.5107 99.7838 21.792C100.024 22.0732 100.469 22.2139 101.12 22.2139C102.315 22.2139 103.141 22.0557 103.598 21.7393L103.827 21.5811C103.897 21.5811 104.152 21.6543 104.591 21.8008C105.043 21.9531 105.28 22.2578 105.303 22.7148C105.315 22.8438 105.321 23.0078 105.321 23.207C105.321 23.4355 105.28 23.6465 105.198 23.8398C105.116 24.0273 104.884 24.2676 104.504 24.5605C104.123 24.8535 103.124 25 101.506 25C100.516 25 99.6608 24.8652 98.9401 24.5957C98.2077 24.3203 97.5485 23.8428 96.9625 23.1631C96.3707 22.4658 96.0748 21.4521 96.0748 20.1221C96.0748 19.665 96.1393 19.1611 96.2682 18.6104C96.403 18.0479 96.5875 17.5908 96.8219 17.2393C97.0621 16.8701 97.4518 16.4307 97.9909 15.9209C98.5416 15.3994 99.5817 15.1387 101.111 15.1387C102.57 15.1387 103.651 15.4844 104.354 16.1758C104.659 16.4629 104.94 16.873 105.198 17.4062C105.45 17.916 105.576 18.5576 105.576 19.3311ZM102.385 19.3486V19.2256C102.385 18.8447 102.268 18.5342 102.034 18.2939C101.788 18.0479 101.451 17.9248 101.023 17.9248C100.144 17.9248 99.6871 18.3994 99.652 19.3486H102.385Z" fill="white"/>
</g>
<defs>
<filter id="filter0_d_190_585" x="-8" y="-4" width="176" height="56" filterUnits="userSpaceOnUse" color-interpolation-filters="sRGB">
<feFlood flood-opacity="0" result="BackgroundImageFix"/>
<feColorMatrix in="SourceAlpha" type="matrix" values="0 0 0 0 0 0 0 0 0 0 0 0 0 0 0 0 0 0 127 0" result="hardAlpha"/>
<feOffset dy="4"/>
<feGaussianBlur stdDeviation="4"/>
<feColorMatrix type="matrix" values="0 0 0 0 0.645833 0 0 0 0 0.0592014 0 0 0 0 0.0592014 0 0 0 0.45 0"/>
<feBlend mode="normal" in2="BackgroundImageFix" result="effect1_dropShadow_190_585"/>
<feBlend mode="normal" in="SourceGraphic" in2="effect1_dropShadow_190_585" result="shape"/>
</filter>
<linearGradient id="paint0_linear_190_585" x1="160" y1="22.0568" x2="109.13" y2="22.2186" gradientUnits="userSpaceOnUse">
<stop offset="0.28125" stop-color="#93000A"/>
<stop offset="1" stop-color="#D23333" stop-opacity="0"/>
</linearGradient>
<linearGradient id="paint1_linear_190_585" x1="-0.000386551" y1="22.0568" x2="50.8696" y2="22.2186" gradientUnits="userSpaceOnUse">
<stop offset="0.28125" stop-color="#93000A"/>
<stop offset="1" stop-color="#D23333" stop-opacity="0"/>
</linearGradient>
<clipPath id="clip0_190_585">
<rect width="160" height="40" fill="white"/>
</clipPath>
</defs>
</svg>
