<svg width="384" height="84" viewBox="0 0 384 84" fill="none" xmlns="http://www.w3.org/2000/svg">
<g clip-path="url(#clip0_173_77)" filter="url(#filter0_d_173_77)">
<path d="M364.287 71.9999H19.7127C13.2474 71.9999 8 66.3047 8 59.2877V28.7122C8 21.6952 13.2474 15.9999 19.7127 15.9999H364.287C370.753 15.9999 376 21.6952 376 28.7122V59.2877C375.982 66.3047 370.753 71.9999 364.287 71.9999Z" fill="#BD000B"/>
<path d="M365.858 11C371.455 11 376 16.4097 376 23.0992V59.9008C376 66.5709 370.368 72 364.753 72H273V11H365.858Z" fill="url(#paint0_linear_173_77)"/>
<path d="M18.1416 11C12.545 11 8 16.4097 8 23.0992V59.9008C8 66.5709 13.6323 72 19.2467 72H111V11H18.1416Z" fill="url(#paint1_linear_173_77)"/>
<path d="M364.305 64.8686H19.7132C13.2477 64.8686 8 58.676 8 51.0463V17.8222C8 10.1925 13.2477 4 19.7132 4H364.305C370.77 4 376.018 10.1925 376.018 17.8222V51.0675C376 58.676 370.77 64.8686 364.305 64.8686Z" fill="#FF000A"/>
<path d="M123.374 31.5234V41.9385C123.374 42.1729 123.252 42.5 123.008 42.9199C122.773 43.3398 122.495 43.6914 122.173 43.9746C121.86 44.248 121.377 44.4922 120.723 44.707C120.088 44.9219 119.414 45.0293 118.701 45.0293C117.461 45.0293 116.519 44.7559 115.874 44.209C115.601 43.9551 115.293 43.5889 114.951 43.1104C114.6 42.6123 114.36 41.8506 114.233 40.8252V31.5234H110.542C109.839 30.4395 109.487 29.2236 109.487 27.876C109.487 26.5088 109.81 25.4395 110.454 24.668C111.099 23.8867 112.017 23.4961 113.208 23.4961L126.772 23.3936C127.476 24.458 127.827 25.6738 127.827 27.041C127.827 28.4082 127.505 29.4971 126.86 30.3076C126.216 31.1182 125.308 31.5234 124.136 31.5234H123.374ZM140.337 28.8281C144.233 28.8281 146.182 30.5176 146.182 33.8965L145.874 43.7109C145.835 43.7988 145.571 44.0625 145.083 44.502C144.595 44.9316 143.638 45.1465 142.212 45.1465C140.776 45.1465 139.751 44.7998 139.136 44.1064C138.53 43.3936 138.228 42.5928 138.228 41.7041L138.374 35.4932C138.374 34.7705 138.027 34.4092 137.334 34.4092C136.738 34.4092 136.255 34.79 135.884 35.5518V44.165C135.679 44.3701 135.234 44.5605 134.551 44.7363C133.867 44.9121 133.12 45 132.31 45C131.479 45 130.801 44.8779 130.273 44.6338C129.756 44.3994 129.248 43.9697 128.75 43.3447C128.271 42.749 128.032 41.1426 128.032 38.5254L128.179 31.1133C128.179 29.9316 128.13 27.9102 128.032 25.0488C129.341 24.3457 130.62 23.9941 131.87 23.9941C132.241 23.9941 132.49 24.0283 132.617 24.0967C134.844 24.4287 135.967 25.8789 135.986 28.4473C135.986 29.2676 135.903 30.0537 135.737 30.8057C137.397 29.4873 138.931 28.8281 140.337 28.8281ZM157.49 43.2275C156.455 44.4092 155.098 45 153.418 45C151.738 45 150.244 44.5605 148.936 43.6816C147.637 42.8027 146.987 41.5674 146.987 39.9756C146.987 38.3838 147.559 37.1875 148.701 36.3867C149.854 35.5859 151.143 35.1855 152.568 35.1855C154.004 35.1855 155.371 35.4492 156.67 35.9766V35.7568C156.67 34.6338 155.742 34.0771 153.887 34.0869L150.708 34.292C149.819 34.292 149.121 34.0967 148.613 33.7061C148.105 33.3154 147.852 32.5488 147.852 31.4062C147.852 30.2637 147.964 29.5068 148.188 29.1357C149.858 28.5498 151.636 28.2471 153.521 28.2275C156.03 28.2275 158.11 28.9062 159.761 30.2637C161.421 31.6113 162.251 33.5449 162.251 36.0645L161.958 40.4736C161.948 40.8057 162.266 41.1133 162.91 41.3965C162.91 43.1445 162.612 44.1846 162.017 44.5166C161.431 44.8389 160.869 45 160.332 45C159.795 45 159.341 44.9023 158.97 44.707C158.618 44.5117 158.34 44.3115 158.135 44.1064C157.939 43.8818 157.725 43.5889 157.49 43.2275ZM154.18 41.2793C155.254 41.2793 156.045 41.0303 156.553 40.5322V39.4189C156.426 39.292 156.064 39.1309 155.469 38.9355C154.199 38.5059 153.291 38.5352 152.744 39.0234C152.266 39.4043 152.168 39.873 152.451 40.4297C152.744 41.0254 153.32 41.3086 154.18 41.2793ZM167.627 44.9707C164.941 44.9707 163.599 43.6621 163.599 41.0449V40.3271L163.877 30C164.258 29.6973 164.785 29.4385 165.459 29.2236C166.182 28.999 166.865 28.8867 167.51 28.8867C168.164 28.8867 168.711 28.9844 169.15 29.1797C169.6 29.375 169.888 29.5508 170.015 29.707C170.161 29.873 170.322 30.1416 170.498 30.5127L170.806 31.084L171.318 30.6885C171.65 30.4248 172.124 30.0732 172.739 29.6338C173.394 29.1553 174.429 28.916 175.845 28.916C176.675 28.916 177.471 29.043 178.232 29.2969C178.984 29.5508 179.678 29.9805 180.312 30.5859C180.967 31.2012 181.294 32.5244 181.294 34.5557V35.6104C181.294 36.7529 181.255 38.2471 181.177 40.0928C181.079 42.3389 181.03 43.5156 181.03 43.623C180.991 43.7207 180.85 43.8672 180.605 44.0625C180.391 44.2383 180.054 44.4482 179.595 44.6924C179.165 44.917 178.345 45.0293 177.134 45.0293C175.913 45.0293 174.995 44.6826 174.38 43.9893C173.774 43.2764 173.472 42.4854 173.472 41.6162L173.618 35.4932C173.618 34.79 173.291 34.4385 172.637 34.4385C172.002 34.4482 171.528 34.8193 171.216 35.5518V44.165C170.708 44.7021 169.512 44.9707 167.627 44.9707ZM194.595 28.8281C198.491 28.8281 200.439 30.5176 200.439 33.8965L200.132 43.7109C200.093 43.7988 199.829 44.0625 199.341 44.502C198.853 44.9316 197.896 45.1465 196.47 45.1465C195.034 45.1465 194.009 44.7998 193.394 44.1064C192.788 43.3936 192.485 42.5928 192.485 41.7041L192.632 35.4932C192.632 34.7705 192.285 34.4092 191.592 34.4092C190.996 34.4092 190.513 34.79 190.142 35.5518V44.165C189.937 44.3701 189.492 44.5605 188.809 44.7363C188.125 44.9121 187.378 45 186.567 45C185.737 45 185.059 44.8779 184.531 44.6338C184.014 44.3994 183.506 43.9697 183.008 43.3447C182.529 42.749 182.29 41.1426 182.29 38.5254L182.437 31.1133C182.437 29.9316 182.388 27.9102 182.29 25.0488C183.599 24.3457 184.878 23.9941 186.128 23.9941C186.499 23.9941 186.748 24.0283 186.875 24.0967C189.102 24.4287 190.225 25.8789 190.244 28.4473C190.244 29.2676 190.161 30.0537 189.995 30.8057C191.655 29.4873 193.188 28.8281 194.595 28.8281ZM209.492 38.3643C209.492 37.1729 209.561 35.9033 209.697 34.5557C208.301 34.2334 207.563 33.8428 207.485 33.3838C207.446 33.2178 207.427 32.5684 207.427 31.4355C207.427 30.3223 207.446 29.7656 207.485 29.7656L208.599 29.458C209.331 29.2432 209.751 29.1357 209.858 29.1357L209.609 26.1914L209.551 25.1953C210.322 24.6191 211.587 24.3311 213.345 24.3311C215.122 24.3311 216.206 24.7461 216.597 25.5762C216.997 26.4258 217.197 27.4805 217.197 28.7402L221.138 28.5645C221.46 29.8535 221.616 31.0645 221.606 32.1973C221.606 33.8379 221.187 34.6973 220.347 34.7754L217.227 35.0098C217.129 35.5566 217.08 36.1572 217.08 36.8115C217.08 38.2959 217.451 39.0332 218.193 39.0234H218.311C219.395 38.9551 220.156 38.7891 220.596 38.5254C220.674 38.5254 220.908 38.6768 221.299 38.9795C221.689 39.2725 221.885 40.0195 221.885 41.2207C221.885 42.4316 221.426 43.3789 220.508 44.0625C219.609 44.7461 217.969 45.0879 215.586 45.0879C211.523 45.0879 209.492 42.8467 209.492 38.3643ZM230.601 28.5645C231.763 28.5645 232.803 28.8281 233.721 29.3555C234.668 29.8926 235.405 30.4492 235.933 31.0254C236.489 31.6113 236.948 32.4023 237.31 33.3984C237.681 34.4043 237.866 35.5273 237.866 36.7676C237.866 38.0273 237.686 39.1553 237.324 40.1514C236.953 41.167 236.504 41.958 235.977 42.5244C235.439 43.1104 234.702 43.6719 233.765 44.209C232.847 44.7363 231.792 45 230.601 45C229.966 45 229.39 44.9658 228.872 44.8975C228.325 44.8193 227.642 44.6143 226.821 44.2822C226.001 43.9404 225.298 43.4863 224.712 42.9199C224.126 42.3535 223.613 41.5088 223.174 40.3857C222.744 39.2432 222.529 37.9199 222.529 36.416C222.529 34.0234 223.281 32.1191 224.785 30.7031C226.299 29.2773 228.237 28.5645 230.601 28.5645ZM227.905 36.7236C227.905 38.6572 228.735 39.6143 230.396 39.5947C230.903 39.5947 231.396 39.375 231.875 38.9355C232.373 38.4961 232.622 37.8027 232.622 36.8555C232.622 35.9082 232.368 35.2148 231.86 34.7754C231.362 34.3359 230.811 34.1162 230.205 34.1162C229.6 34.1162 229.062 34.3555 228.594 34.834C228.135 35.3223 227.905 35.9521 227.905 36.7236ZM249.277 43.2275C248.242 44.4092 246.885 45 245.205 45C243.525 45 242.031 44.5605 240.723 43.6816C239.424 42.8027 238.774 41.5674 238.774 39.9756C238.774 38.3838 239.346 37.1875 240.488 36.3867C241.641 35.5859 242.93 35.1855 244.355 35.1855C245.791 35.1855 247.158 35.4492 248.457 35.9766V35.7568C248.457 34.6338 247.529 34.0771 245.674 34.0869L242.495 34.292C241.606 34.292 240.908 34.0967 240.4 33.7061C239.893 33.3154 239.639 32.5488 239.639 31.4062C239.639 30.2637 239.751 29.5068 239.976 29.1357C241.646 28.5498 243.423 28.2471 245.308 28.2275C247.817 28.2275 249.897 28.9062 251.548 30.2637C253.208 31.6113 254.038 33.5449 254.038 36.0645L253.745 40.4736C253.735 40.8057 254.053 41.1133 254.697 41.3965C254.697 43.1445 254.399 44.1846 253.804 44.5166C253.218 44.8389 252.656 45 252.119 45C251.582 45 251.128 44.9023 250.757 44.707C250.405 44.5117 250.127 44.3115 249.922 44.1064C249.727 43.8818 249.512 43.5889 249.277 43.2275ZM245.967 41.2793C247.041 41.2793 247.832 41.0303 248.34 40.5322V39.4189C248.213 39.292 247.852 39.1309 247.256 38.9355C245.986 38.5059 245.078 38.5352 244.531 39.0234C244.053 39.4043 243.955 39.873 244.238 40.4297C244.531 41.0254 245.107 41.3086 245.967 41.2793ZM244.517 23.291C244.761 23.0957 245.981 22.2559 248.179 20.7715L249.16 20.1123C249.58 20.1123 250.039 20.3955 250.537 20.9619C251.045 21.5088 251.299 22.0752 251.299 22.6611C251.299 22.8467 251.113 23.1543 250.742 23.584C250.371 23.9941 248.647 25.1904 245.571 27.1729C245.015 27.1729 244.517 26.9678 244.077 26.5576C243.647 26.1475 243.433 25.6348 243.433 25.0195C243.433 24.4141 243.794 23.8379 244.517 23.291ZM259.414 44.9707C256.729 44.9707 255.386 43.6621 255.386 41.0449V40.3271L255.664 30C256.045 29.6973 256.572 29.4385 257.246 29.2236C257.969 28.999 258.652 28.8867 259.297 28.8867C259.951 28.8867 260.498 28.9844 260.938 29.1797C261.387 29.375 261.675 29.5508 261.802 29.707C261.948 29.873 262.109 30.1416 262.285 30.5127L262.593 31.084L263.105 30.6885C263.438 30.4248 263.911 30.0732 264.526 29.6338C265.181 29.1553 266.216 28.916 267.632 28.916C268.462 28.916 269.258 29.043 270.02 29.2969C270.771 29.5508 271.465 29.9805 272.1 30.5859C272.754 31.2012 273.081 32.5244 273.081 34.5557V35.6104C273.081 36.7529 273.042 38.2471 272.964 40.0928C272.866 42.3389 272.817 43.5156 272.817 43.623C272.778 43.7207 272.637 43.8672 272.393 44.0625C272.178 44.2383 271.841 44.4482 271.382 44.6924C270.952 44.917 270.132 45.0293 268.921 45.0293C267.7 45.0293 266.782 44.6826 266.167 43.9893C265.562 43.2764 265.259 42.4854 265.259 41.6162L265.405 35.4932C265.405 34.79 265.078 34.4385 264.424 34.4385C263.789 34.4482 263.315 34.8193 263.003 35.5518V44.165C262.495 44.7021 261.299 44.9707 259.414 44.9707Z" fill="white"/>
</g>
<defs>
<filter id="filter0_d_173_77" x="0" y="0" width="384" height="84" filterUnits="userSpaceOnUse" color-interpolation-filters="sRGB">
<feFlood flood-opacity="0" result="BackgroundImageFix"/>
<feColorMatrix in="SourceAlpha" type="matrix" values="0 0 0 0 0 0 0 0 0 0 0 0 0 0 0 0 0 0 127 0" result="hardAlpha"/>
<feOffset dy="4"/>
<feGaussianBlur stdDeviation="4"/>
<feColorMatrix type="matrix" values="0 0 0 0 0.645833 0 0 0 0 0.0592014 0 0 0 0 0.0592014 0 0 0 0.45 0"/>
<feBlend mode="normal" in2="BackgroundImageFix" result="effect1_dropShadow_173_77"/>
<feBlend mode="normal" in="SourceGraphic" in2="effect1_dropShadow_173_77" result="shape"/>
</filter>
<linearGradient id="paint0_linear_173_77" x1="376" y1="41.4966" x2="259" y2="42" gradientUnits="userSpaceOnUse">
<stop offset="0.28125" stop-color="#93000A"/>
<stop offset="1" stop-color="#D23333" stop-opacity="0"/>
</linearGradient>
<linearGradient id="paint1_linear_173_77" x1="8" y1="41.4966" x2="125" y2="42" gradientUnits="userSpaceOnUse">
<stop offset="0.28125" stop-color="#93000A"/>
<stop offset="1" stop-color="#D23333" stop-opacity="0"/>
</linearGradient>
<clipPath id="clip0_173_77">
<rect width="368" height="68" fill="white" transform="translate(8 4)"/>
</clipPath>
</defs>
</svg>
