<svg width="1067" height="103" viewBox="0 0 1067 103" fill="none" xmlns="http://www.w3.org/2000/svg">
<path d="M44.7969 36.875V70.2031C44.7969 70.9531 44.4062 72 43.625 73.3438C42.875 74.6875 41.9844 75.8125 40.9531 76.7188C39.9531 77.5938 38.4062 78.375 36.3125 79.0625C34.2812 79.75 32.125 80.0938 29.8438 80.0938C25.875 80.0938 22.8594 79.2188 20.7969 77.4688C19.9219 76.6562 18.9375 75.4844 17.8438 73.9531C16.7188 72.3594 15.9531 69.9219 15.5469 66.6406V36.875H3.73438C1.48438 33.4062 0.359375 29.5156 0.359375 25.2031C0.359375 20.8281 1.39062 17.4062 3.45312 14.9375C5.51562 12.4375 8.45312 11.1875 12.2656 11.1875L55.6719 10.8594C57.9219 14.2656 59.0469 18.1562 59.0469 22.5312C59.0469 26.9062 58.0156 30.3906 55.9531 32.9844C53.8906 35.5781 50.9844 36.875 47.2344 36.875H44.7969ZM99.0781 28.25C111.547 28.25 117.781 33.6562 117.781 44.4688L116.797 75.875C116.672 76.1562 115.828 77 114.266 78.4062C112.703 79.7812 109.641 80.4688 105.078 80.4688C100.484 80.4688 97.2031 79.3594 95.2344 77.1406C93.2969 74.8594 92.3281 72.2969 92.3281 69.4531L92.7969 49.5781C92.7969 47.2656 91.6875 46.1094 89.4688 46.1094C87.5625 46.1094 86.0156 47.3281 84.8281 49.7656V77.3281C84.1719 77.9844 82.75 78.5938 80.5625 79.1562C78.375 79.7188 75.9844 80 73.3906 80C70.7344 80 68.5625 79.6094 66.875 78.8281C65.2188 78.0781 63.5938 76.7031 62 74.7031C60.4688 72.7969 59.7031 67.6562 59.7031 59.2812L60.1719 35.5625C60.1719 31.7812 60.0156 25.3125 59.7031 16.1562C63.8906 13.9062 67.9844 12.7812 71.9844 12.7812C73.1719 12.7812 73.9688 12.8906 74.375 13.1094C81.5 14.1719 85.0938 18.8125 85.1562 27.0312C85.1562 29.6562 84.8906 32.1719 84.3594 34.5781C89.6719 30.3594 94.5781 28.25 99.0781 28.25ZM153.969 74.3281C150.656 78.1094 146.312 80 140.938 80C135.562 80 130.781 78.5938 126.594 75.7812C122.438 72.9688 120.359 69.0156 120.359 63.9219C120.359 58.8281 122.188 55 125.844 52.4375C129.531 49.875 133.656 48.5938 138.219 48.5938C142.812 48.5938 147.188 49.4375 151.344 51.125V50.4219C151.344 46.8281 148.375 45.0469 142.438 45.0781L132.266 45.7344C129.422 45.7344 127.188 45.1094 125.562 43.8594C123.938 42.6094 123.125 40.1562 123.125 36.5C123.125 32.8438 123.484 30.4219 124.203 29.2344C129.547 27.3594 135.234 26.3906 141.266 26.3281C149.297 26.3281 155.953 28.5 161.234 32.8438C166.547 37.1562 169.203 43.3438 169.203 51.4062L168.266 65.5156C168.234 66.5781 169.25 67.5625 171.312 68.4688C171.312 74.0625 170.359 77.3906 168.453 78.4531C166.578 79.4844 164.781 80 163.062 80C161.344 80 159.891 79.6875 158.703 79.0625C157.578 78.4375 156.688 77.7969 156.031 77.1406C155.406 76.4219 154.719 75.4844 153.969 74.3281ZM143.375 68.0938C146.812 68.0938 149.344 67.2969 150.969 65.7031V62.1406C150.562 61.7344 149.406 61.2188 147.5 60.5938C143.438 59.2188 140.531 59.3125 138.781 60.875C137.25 62.0938 136.938 63.5938 137.844 65.375C138.781 67.2812 140.625 68.1875 143.375 68.0938ZM186.406 79.9062C177.812 79.9062 173.516 75.7188 173.516 67.3438V65.0469L174.406 32C175.625 31.0312 177.312 30.2031 179.469 29.5156C181.781 28.7969 183.969 28.4375 186.031 28.4375C188.125 28.4375 189.875 28.75 191.281 29.375C192.719 30 193.641 30.5625 194.047 31.0625C194.516 31.5938 195.031 32.4531 195.594 33.6406L196.578 35.4688L198.219 34.2031C199.281 33.3594 200.797 32.2344 202.766 30.8281C204.859 29.2969 208.172 28.5312 212.703 28.5312C215.359 28.5312 217.906 28.9375 220.344 29.75C222.75 30.5625 224.969 31.9375 227 33.875C229.094 35.8438 230.141 40.0781 230.141 46.5781V49.9531C230.141 53.6094 230.016 58.3906 229.766 64.2969C229.453 71.4844 229.297 75.25 229.297 75.5938C229.172 75.9062 228.719 76.375 227.938 77C227.25 77.5625 226.172 78.2344 224.703 79.0156C223.328 79.7344 220.703 80.0938 216.828 80.0938C212.922 80.0938 209.984 78.9844 208.016 76.7656C206.078 74.4844 205.109 71.9531 205.109 69.1719L205.578 49.5781C205.578 47.3281 204.531 46.2031 202.438 46.2031C200.406 46.2344 198.891 47.4219 197.891 49.7656V77.3281C196.266 79.0469 192.438 79.9062 186.406 79.9062ZM272.703 28.25C285.172 28.25 291.406 33.6562 291.406 44.4688L290.422 75.875C290.297 76.1562 289.453 77 287.891 78.4062C286.328 79.7812 283.266 80.4688 278.703 80.4688C274.109 80.4688 270.828 79.3594 268.859 77.1406C266.922 74.8594 265.953 72.2969 265.953 69.4531L266.422 49.5781C266.422 47.2656 265.312 46.1094 263.094 46.1094C261.188 46.1094 259.641 47.3281 258.453 49.7656V77.3281C257.797 77.9844 256.375 78.5938 254.188 79.1562C252 79.7188 249.609 80 247.016 80C244.359 80 242.188 79.6094 240.5 78.8281C238.844 78.0781 237.219 76.7031 235.625 74.7031C234.094 72.7969 233.328 67.6562 233.328 59.2812L233.797 35.5625C233.797 31.7812 233.641 25.3125 233.328 16.1562C237.516 13.9062 241.609 12.7812 245.609 12.7812C246.797 12.7812 247.594 12.8906 248 13.1094C255.125 14.1719 258.719 18.8125 258.781 27.0312C258.781 29.6562 258.516 32.1719 257.984 34.5781C263.297 30.3594 268.203 28.25 272.703 28.25ZM320.375 58.7656C320.375 54.9531 320.594 50.8906 321.031 46.5781C316.562 45.5469 314.203 44.2969 313.953 42.8281C313.828 42.2969 313.766 40.2188 313.766 36.5938C313.766 33.0312 313.828 31.25 313.953 31.25L317.516 30.2656C319.859 29.5781 321.203 29.2344 321.547 29.2344L320.75 19.8125L320.562 16.625C323.031 14.7813 327.078 13.8594 332.703 13.8594C338.391 13.8594 341.859 15.1875 343.109 17.8438C344.391 20.5625 345.031 23.9375 345.031 27.9688L357.641 27.4062C358.672 31.5312 359.172 35.4062 359.141 39.0312C359.141 44.2812 357.797 47.0312 355.109 47.2812L345.125 48.0312C344.812 49.7812 344.656 51.7031 344.656 53.7969C344.656 58.5469 345.844 60.9062 348.219 60.875H348.594C352.062 60.6562 354.5 60.125 355.906 59.2812C356.156 59.2812 356.906 59.7656 358.156 60.7344C359.406 61.6719 360.031 64.0625 360.031 67.9062C360.031 71.7812 358.562 74.8125 355.625 77C352.75 79.1875 347.5 80.2812 339.875 80.2812C326.875 80.2812 320.375 73.1094 320.375 58.7656ZM387.922 27.4062C391.641 27.4062 394.969 28.25 397.906 29.9375C400.938 31.6562 403.297 33.4375 404.984 35.2812C406.766 37.1562 408.234 39.6875 409.391 42.875C410.578 46.0938 411.172 49.6875 411.172 53.6562C411.172 57.6875 410.594 61.2969 409.438 64.4844C408.25 67.7344 406.812 70.2656 405.125 72.0781C403.406 73.9531 401.047 75.75 398.047 77.4688C395.109 79.1562 391.734 80 387.922 80C385.891 80 384.047 79.8906 382.391 79.6719C380.641 79.4219 378.453 78.7656 375.828 77.7031C373.203 76.6094 370.953 75.1562 369.078 73.3438C367.203 71.5312 365.562 68.8281 364.156 65.2344C362.781 61.5781 362.094 57.3438 362.094 52.5312C362.094 44.875 364.5 38.7812 369.312 34.25C374.156 29.6875 380.359 27.4062 387.922 27.4062ZM379.297 53.5156C379.297 59.7031 381.953 62.7656 387.266 62.7031C388.891 62.7031 390.469 62 392 60.5938C393.594 59.1875 394.391 56.9688 394.391 53.9375C394.391 50.9062 393.578 48.6875 391.953 47.2812C390.359 45.875 388.594 45.1719 386.656 45.1719C384.719 45.1719 383 45.9375 381.5 47.4688C380.031 49.0312 379.297 51.0469 379.297 53.5156ZM447.688 74.3281C444.375 78.1094 440.031 80 434.656 80C429.281 80 424.5 78.5938 420.312 75.7812C416.156 72.9688 414.078 69.0156 414.078 63.9219C414.078 58.8281 415.906 55 419.562 52.4375C423.25 49.875 427.375 48.5938 431.938 48.5938C436.531 48.5938 440.906 49.4375 445.062 51.125V50.4219C445.062 46.8281 442.094 45.0469 436.156 45.0781L425.984 45.7344C423.141 45.7344 420.906 45.1094 419.281 43.8594C417.656 42.6094 416.844 40.1562 416.844 36.5C416.844 32.8438 417.203 30.4219 417.922 29.2344C423.266 27.3594 428.953 26.3906 434.984 26.3281C443.016 26.3281 449.672 28.5 454.953 32.8438C460.266 37.1562 462.922 43.3438 462.922 51.4062L461.984 65.5156C461.953 66.5781 462.969 67.5625 465.031 68.4688C465.031 74.0625 464.078 77.3906 462.172 78.4531C460.297 79.4844 458.5 80 456.781 80C455.062 80 453.609 79.6875 452.422 79.0625C451.297 78.4375 450.406 77.7969 449.75 77.1406C449.125 76.4219 448.438 75.4844 447.688 74.3281ZM437.094 68.0938C440.531 68.0938 443.062 67.2969 444.688 65.7031V62.1406C444.281 61.7344 443.125 61.2188 441.219 60.5938C437.156 59.2188 434.25 59.3125 432.5 60.875C430.969 62.0938 430.656 63.5938 431.562 65.375C432.5 67.2812 434.344 68.1875 437.094 68.0938ZM432.453 10.5312C433.234 9.90625 437.141 7.21875 444.172 2.46875L447.312 0.359375C448.656 0.359375 450.125 1.26562 451.719 3.07812C453.344 4.82812 454.156 6.64062 454.156 8.51562C454.156 9.10938 453.562 10.0938 452.375 11.4688C451.188 12.7812 445.672 16.6094 435.828 22.9531C434.047 22.9531 432.453 22.2969 431.047 20.9844C429.672 19.6719 428.984 18.0312 428.984 16.0625C428.984 14.125 430.141 12.2812 432.453 10.5312ZM480.125 79.9062C471.531 79.9062 467.234 75.7188 467.234 67.3438V65.0469L468.125 32C469.344 31.0312 471.031 30.2031 473.188 29.5156C475.5 28.7969 477.688 28.4375 479.75 28.4375C481.844 28.4375 483.594 28.75 485 29.375C486.438 30 487.359 30.5625 487.766 31.0625C488.234 31.5938 488.75 32.4531 489.312 33.6406L490.297 35.4688L491.938 34.2031C493 33.3594 494.516 32.2344 496.484 30.8281C498.578 29.2969 501.891 28.5312 506.422 28.5312C509.078 28.5312 511.625 28.9375 514.062 29.75C516.469 30.5625 518.688 31.9375 520.719 33.875C522.812 35.8438 523.859 40.0781 523.859 46.5781V49.9531C523.859 53.6094 523.734 58.3906 523.484 64.2969C523.172 71.4844 523.016 75.25 523.016 75.5938C522.891 75.9062 522.438 76.375 521.656 77C520.969 77.5625 519.891 78.2344 518.422 79.0156C517.047 79.7344 514.422 80.0938 510.547 80.0938C506.641 80.0938 503.703 78.9844 501.734 76.7656C499.797 74.4844 498.828 71.9531 498.828 69.1719L499.297 49.5781C499.297 47.3281 498.25 46.2031 496.156 46.2031C494.125 46.2344 492.609 47.4219 491.609 49.7656V77.3281C489.984 79.0469 486.156 79.9062 480.125 79.9062ZM553.344 58.7656C553.344 54.9531 553.562 50.8906 554 46.5781C549.531 45.5469 547.172 44.2969 546.922 42.8281C546.797 42.2969 546.734 40.2188 546.734 36.5938C546.734 33.0312 546.797 31.25 546.922 31.25L550.484 30.2656C552.828 29.5781 554.172 29.2344 554.516 29.2344L553.719 19.8125L553.531 16.625C556 14.7813 560.047 13.8594 565.672 13.8594C571.359 13.8594 574.828 15.1875 576.078 17.8438C577.359 20.5625 578 23.9375 578 27.9688L590.609 27.4062C591.641 31.5312 592.141 35.4062 592.109 39.0312C592.109 44.2812 590.766 47.0312 588.078 47.2812L578.094 48.0312C577.781 49.7812 577.625 51.7031 577.625 53.7969C577.625 58.5469 578.812 60.9062 581.188 60.875H581.562C585.031 60.6562 587.469 60.125 588.875 59.2812C589.125 59.2812 589.875 59.7656 591.125 60.7344C592.375 61.6719 593 64.0625 593 67.9062C593 71.7812 591.531 74.8125 588.594 77C585.719 79.1875 580.469 80.2812 572.844 80.2812C559.844 80.2812 553.344 73.1094 553.344 58.7656ZM635.234 28.25C647.703 28.25 653.938 33.6562 653.938 44.4688L652.953 75.875C652.828 76.1562 651.984 77 650.422 78.4062C648.859 79.7812 645.797 80.4688 641.234 80.4688C636.641 80.4688 633.359 79.3594 631.391 77.1406C629.453 74.8594 628.484 72.2969 628.484 69.4531L628.953 49.5781C628.953 47.2656 627.844 46.1094 625.625 46.1094C623.719 46.1094 622.172 47.3281 620.984 49.7656V77.3281C620.328 77.9844 618.906 78.5938 616.719 79.1562C614.531 79.7188 612.141 80 609.547 80C606.891 80 604.719 79.6094 603.031 78.8281C601.375 78.0781 599.75 76.7031 598.156 74.7031C596.625 72.7969 595.859 67.6562 595.859 59.2812L596.328 35.5625C596.328 31.7812 596.172 25.3125 595.859 16.1562C600.047 13.9062 604.141 12.7812 608.141 12.7812C609.328 12.7812 610.125 12.8906 610.531 13.1094C617.656 14.1719 621.25 18.8125 621.312 27.0312C621.312 29.6562 621.047 32.1719 620.516 34.5781C625.828 30.3594 630.734 28.25 635.234 28.25ZM690.125 74.3281C686.812 78.1094 682.469 80 677.094 80C671.719 80 666.938 78.5938 662.75 75.7812C658.594 72.9688 656.516 69.0156 656.516 63.9219C656.516 58.8281 658.344 55 662 52.4375C665.688 49.875 669.812 48.5938 674.375 48.5938C678.969 48.5938 683.344 49.4375 687.5 51.125V50.4219C687.5 46.8281 684.531 45.0469 678.594 45.0781L668.422 45.7344C665.578 45.7344 663.344 45.1094 661.719 43.8594C660.094 42.6094 659.281 40.1562 659.281 36.5C659.281 32.8438 659.641 30.4219 660.359 29.2344C665.703 27.3594 671.391 26.3906 677.422 26.3281C685.453 26.3281 692.109 28.5 697.391 32.8438C702.703 37.1562 705.359 43.3438 705.359 51.4062L704.422 65.5156C704.391 66.5781 705.406 67.5625 707.469 68.4688C707.469 74.0625 706.516 77.3906 704.609 78.4531C702.734 79.4844 700.938 80 699.219 80C697.5 80 696.047 79.6875 694.859 79.0625C693.734 78.4375 692.844 77.7969 692.188 77.1406C691.562 76.4219 690.875 75.4844 690.125 74.3281ZM679.531 68.0938C682.969 68.0938 685.5 67.2969 687.125 65.7031V62.1406C686.719 61.7344 685.562 61.2188 683.656 60.5938C679.594 59.2188 676.688 59.3125 674.938 60.875C673.406 62.0938 673.094 63.5938 674 65.375C674.938 67.2812 676.781 68.1875 679.531 68.0938ZM661.578 9.45312C661.578 7.60938 662.375 5.79688 663.969 4.01562C665.594 2.20312 667.078 1.29688 668.422 1.29688C676.859 6.82812 681.812 10.2187 683.281 11.4688C685.594 13.2187 686.75 15.0625 686.75 17C686.75 18.9375 686.062 20.5625 684.688 21.875C683.344 23.1875 681.766 23.8438 679.953 23.8438C670.109 17.5 664.578 13.6719 663.359 12.3594C662.172 11.0156 661.578 10.0469 661.578 9.45312ZM722.562 79.9062C713.969 79.9062 709.672 75.7188 709.672 67.3438V65.0469L710.562 32C711.781 31.0312 713.469 30.2031 715.625 29.5156C717.938 28.7969 720.125 28.4375 722.188 28.4375C724.281 28.4375 726.031 28.75 727.438 29.375C728.875 30 729.797 30.5625 730.203 31.0625C730.672 31.5938 731.188 32.4531 731.75 33.6406L732.734 35.4688L734.375 34.2031C735.438 33.3594 736.953 32.2344 738.922 30.8281C741.016 29.2969 744.328 28.5312 748.859 28.5312C751.516 28.5312 754.062 28.9375 756.5 29.75C758.906 30.5625 761.125 31.9375 763.156 33.875C765.25 35.8438 766.297 40.0781 766.297 46.5781V49.9531C766.297 53.6094 766.172 58.3906 765.922 64.2969C765.609 71.4844 765.453 75.25 765.453 75.5938C765.328 75.9062 764.875 76.375 764.094 77C763.406 77.5625 762.328 78.2344 760.859 79.0156C759.484 79.7344 756.859 80.0938 752.984 80.0938C749.078 80.0938 746.141 78.9844 744.172 76.7656C742.234 74.4844 741.266 71.9531 741.266 69.1719L741.734 49.5781C741.734 47.3281 740.688 46.2031 738.594 46.2031C736.562 46.2344 735.047 47.4219 734.047 49.7656V77.3281C732.422 79.0469 728.594 79.9062 722.562 79.9062ZM808.859 28.25C821.328 28.25 827.562 33.6562 827.562 44.4688L826.578 75.875C826.453 76.1562 825.609 77 824.047 78.4062C822.484 79.7812 819.422 80.4688 814.859 80.4688C810.266 80.4688 806.984 79.3594 805.016 77.1406C803.078 74.8594 802.109 72.2969 802.109 69.4531L802.578 49.5781C802.578 47.2656 801.469 46.1094 799.25 46.1094C797.344 46.1094 795.797 47.3281 794.609 49.7656V77.3281C793.953 77.9844 792.531 78.5938 790.344 79.1562C788.156 79.7188 785.766 80 783.172 80C780.516 80 778.344 79.6094 776.656 78.8281C775 78.0781 773.375 76.7031 771.781 74.7031C770.25 72.7969 769.484 67.6562 769.484 59.2812L769.953 35.5625C769.953 31.7812 769.797 25.3125 769.484 16.1562C773.672 13.9062 777.766 12.7812 781.766 12.7812C782.953 12.7812 783.75 12.8906 784.156 13.1094C791.281 14.1719 794.875 18.8125 794.938 27.0312C794.938 29.6562 794.672 32.1719 794.141 34.5781C799.453 30.3594 804.359 28.25 808.859 28.25ZM876.875 45.0781C874.219 45.0781 871.922 45.9219 869.984 47.6094C868.109 49.2969 867.172 51.3594 867.172 53.7969C867.172 56.2344 868.109 58.3281 869.984 60.0781C871.922 61.8281 874.219 62.7031 876.875 62.7031C878.438 62.7031 879.953 62.3125 881.422 61.5312C882.922 60.75 884.062 59.7344 884.844 58.4844C886.125 58.1094 887.312 57.9219 888.406 57.9219C890.75 57.9844 892.703 59 894.266 60.9688C895.859 62.9688 896.656 64.9062 896.656 66.7812C896.656 68.5938 896.438 70.1562 896 71.4688C892.562 77.1562 885.969 80 876.219 80C868.656 80 862.25 77.375 857 72.125C851.75 66.875 849.125 60.5469 849.125 53.1406C849.125 45.7031 851.766 39.3438 857.047 34.0625C862.328 28.7812 868.562 26.1406 875.75 26.1406C882.969 26.1406 888.281 27.7031 891.688 30.8281C895.125 33.9219 896.938 36.9062 897.125 39.7812C897.125 44.1875 894.984 47.5469 890.703 49.8594C889.891 50.4219 888.359 50.8438 886.109 51.125C885.641 50.4062 885.375 49.9531 885.312 49.7656C883.219 46.6406 880.406 45.0781 876.875 45.0781ZM925.391 27.4062C929.109 27.4062 932.438 28.25 935.375 29.9375C938.406 31.6562 940.766 33.4375 942.453 35.2812C944.234 37.1562 945.703 39.6875 946.859 42.875C948.047 46.0938 948.641 49.6875 948.641 53.6562C948.641 57.6875 948.062 61.2969 946.906 64.4844C945.719 67.7344 944.281 70.2656 942.594 72.0781C940.875 73.9531 938.516 75.75 935.516 77.4688C932.578 79.1562 929.203 80 925.391 80C923.359 80 921.516 79.8906 919.859 79.6719C918.109 79.4219 915.922 78.7656 913.297 77.7031C910.672 76.6094 908.422 75.1562 906.547 73.3438C904.672 71.5312 903.031 68.8281 901.625 65.2344C900.25 61.5781 899.562 57.3438 899.562 52.5312C899.562 44.875 901.969 38.7812 906.781 34.25C911.625 29.6875 917.828 27.4062 925.391 27.4062ZM916.766 53.5156C916.766 59.7031 919.422 62.7656 924.734 62.7031C926.359 62.7031 927.938 62 929.469 60.5938C931.062 59.1875 931.859 56.9688 931.859 53.9375C931.859 50.9062 931.047 48.6875 929.422 47.2812C927.828 45.875 926.062 45.1719 924.125 45.1719C922.188 45.1719 920.469 45.9375 918.969 47.4688C917.5 49.0312 916.766 51.0469 916.766 53.5156ZM936.688 12.875C937.906 13.8438 938.516 15.2812 938.516 17.1875C938.297 18.5312 937.766 19.625 936.922 20.4688C936.203 21.1875 934.594 22.1094 932.094 23.2344C928.688 20.7031 925.969 18.5312 923.938 16.7188L915.688 23.7031C913.781 22.8906 912.172 21.8438 910.859 20.5625C909.828 19.375 909.266 18.25 909.172 17.1875V16.5312C909.172 15 909.812 13.7812 911.094 12.875L920.281 6.125C921.844 4.78125 923.047 4.10938 923.891 4.10938C924.672 4.10938 927.047 5.59375 931.016 8.5625L936.688 12.875ZM965.094 79.9062C956.5 79.9062 952.203 75.7188 952.203 67.3438V65.0469L953.094 32C954.312 31.0312 956 30.2031 958.156 29.5156C960.469 28.7969 962.656 28.4375 964.719 28.4375C966.812 28.4375 968.562 28.75 969.969 29.375C971.406 30 972.328 30.5625 972.734 31.0625C973.203 31.5938 973.719 32.4531 974.281 33.6406L975.266 35.4688L976.906 34.2031C977.969 33.3594 979.484 32.2344 981.453 30.8281C983.547 29.2969 986.859 28.5312 991.391 28.5312C994.047 28.5312 996.594 28.9375 999.031 29.75C1001.44 30.5625 1003.66 31.9375 1005.69 33.875C1007.78 35.8438 1008.83 40.0781 1008.83 46.5781V49.9531C1008.83 53.6094 1008.7 58.3906 1008.45 64.2969C1008.14 71.4844 1007.98 75.25 1007.98 75.5938C1007.86 75.9062 1007.41 76.375 1006.62 77C1005.94 77.5625 1004.86 78.2344 1003.39 79.0156C1002.02 79.7344 999.391 80.0938 995.516 80.0938C991.609 80.0938 988.672 78.9844 986.703 76.7656C984.766 74.4844 983.797 71.9531 983.797 69.1719L984.266 49.5781C984.266 47.3281 983.219 46.2031 981.125 46.2031C979.094 46.2344 977.578 47.4219 976.578 49.7656V77.3281C974.953 79.0469 971.125 79.9062 965.094 79.9062ZM1044.45 25.2031C1042.61 25.2031 1041.12 24.625 1040 23.4688C1038.81 22.25 1038.22 20.5938 1038.22 18.5C1038.22 16.3438 1039.23 14.2969 1041.27 12.3594C1043.36 10.4219 1046.38 9.45312 1050.31 9.45312C1052.91 9.45312 1055.09 9.84375 1056.88 10.625C1061.12 12.3438 1063.25 15.7656 1063.25 20.8906C1063.25 25.8594 1060.44 29.1719 1054.81 30.8281C1057.94 32.9219 1059.97 35.6094 1060.91 38.8906C1061.84 42.1719 1062.31 44.8594 1062.31 46.9531C1062.31 51.8594 1060.83 55.9375 1057.86 59.1875C1054.92 62.375 1051 64.6719 1046.09 66.0781C1049.97 66.2344 1053.22 66.8281 1055.84 67.8594C1058.53 68.9219 1060.52 70.0469 1061.8 71.2344C1063.05 72.3906 1064.02 73.875 1064.7 75.6875C1065.42 77.5312 1065.83 78.8906 1065.92 79.7656C1066.02 80.6406 1066.06 81.625 1066.06 82.7188C1066.06 85.4062 1065.12 88.2656 1063.25 91.2969C1062.09 93.2656 1060.53 95.0469 1058.56 96.6406C1056.59 98.2656 1053.8 99.6094 1050.17 100.672C1046.48 101.797 1042.45 102.359 1038.08 102.359C1033.73 102.359 1029.8 101.891 1026.27 100.953C1022.8 100.078 1019.67 98.2969 1016.89 95.6094C1014.14 92.9531 1012.77 89.4062 1012.77 84.9688C1012.77 80.5312 1014.78 77.5625 1018.81 76.0625C1018.12 76.0625 1017.52 75.4688 1016.98 74.2812C1016.48 73.1562 1016.23 71.7969 1016.23 70.2031C1016.23 67.6719 1017.67 65.4375 1020.55 63.5C1014.61 59.625 1011.64 53.8281 1011.64 46.1094C1011.64 42.8281 1012.34 39.9062 1013.75 37.3438C1015.19 34.7188 1016.8 32.625 1018.58 31.0625C1022.89 27.2812 1029.62 25.3281 1038.78 25.2031C1038.78 25.7656 1039.39 26.4062 1040.61 27.125C1041.83 27.8125 1043.34 28.1406 1045.16 28.1094C1047 28.0469 1048.88 27.4219 1050.78 26.2344C1052.75 24.9844 1053.75 23.3906 1053.78 21.4531L1052.42 20.0938C1050.23 23.5 1047.58 25.2031 1044.45 25.2031ZM1030.53 46.2969C1030.53 50.3281 1032.88 52.3438 1037.56 52.3438C1038.94 52.3438 1040.3 51.875 1041.64 50.9375C1043.02 50 1043.7 48.5312 1043.7 46.5312C1043.7 44.5312 1043 43.0469 1041.59 42.0781C1040.25 41.1094 1038.72 40.625 1037 40.625C1035.31 40.625 1033.81 41.1406 1032.5 42.1719C1031.19 43.2031 1030.53 44.5781 1030.53 46.2969ZM1047.64 82.8594C1047.64 81.1406 1045.3 80.2812 1040.61 80.2812C1035.92 80.2812 1033.33 80.0312 1032.83 79.5312C1031.58 80.5625 1030.97 81.6875 1031 82.9062C1031.03 84.1562 1031.77 85.1875 1033.2 86C1034.67 86.8125 1036.62 87.2188 1039.06 87.2188C1041.59 87.2188 1043.64 86.8438 1045.2 86.0938C1046.83 85.3125 1047.64 84.2344 1047.64 82.8594Z" fill="white"/>
</svg>
