<svg width="524" height="81" viewBox="0 0 524 81" fill="none" xmlns="http://www.w3.org/2000/svg">
<path d="M44.7969 36.875V70.2031C44.7969 70.9531 44.4062 72 43.625 73.3438C42.875 74.6875 41.9844 75.8125 40.9531 76.7188C39.9531 77.5938 38.4062 78.375 36.3125 79.0625C34.2812 79.75 32.125 80.0938 29.8438 80.0938C25.875 80.0938 22.8594 79.2188 20.7969 77.4688C19.9219 76.6562 18.9375 75.4844 17.8438 73.9531C16.7188 72.3594 15.9531 69.9219 15.5469 66.6406V36.875H3.73438C1.48438 33.4062 0.359375 29.5156 0.359375 25.2031C0.359375 20.8281 1.39062 17.4062 3.45312 14.9375C5.51562 12.4375 8.45312 11.1875 12.2656 11.1875L55.6719 10.8594C57.9219 14.2656 59.0469 18.1562 59.0469 22.5312C59.0469 26.9062 58.0156 30.3906 55.9531 32.9844C53.8906 35.5781 50.9844 36.875 47.2344 36.875H44.7969ZM99.0781 28.25C111.547 28.25 117.781 33.6562 117.781 44.4688L116.797 75.875C116.672 76.1562 115.828 77 114.266 78.4062C112.703 79.7812 109.641 80.4688 105.078 80.4688C100.484 80.4688 97.2031 79.3594 95.2344 77.1406C93.2969 74.8594 92.3281 72.2969 92.3281 69.4531L92.7969 49.5781C92.7969 47.2656 91.6875 46.1094 89.4688 46.1094C87.5625 46.1094 86.0156 47.3281 84.8281 49.7656V77.3281C84.1719 77.9844 82.75 78.5938 80.5625 79.1562C78.375 79.7188 75.9844 80 73.3906 80C70.7344 80 68.5625 79.6094 66.875 78.8281C65.2188 78.0781 63.5938 76.7031 62 74.7031C60.4688 72.7969 59.7031 67.6562 59.7031 59.2812L60.1719 35.5625C60.1719 31.7812 60.0156 25.3125 59.7031 16.1562C63.8906 13.9062 67.9844 12.7812 71.9844 12.7812C73.1719 12.7812 73.9688 12.8906 74.375 13.1094C81.5 14.1719 85.0938 18.8125 85.1562 27.0312C85.1562 29.6562 84.8906 32.1719 84.3594 34.5781C89.6719 30.3594 94.5781 28.25 99.0781 28.25ZM153.969 74.3281C150.656 78.1094 146.312 80 140.938 80C135.562 80 130.781 78.5938 126.594 75.7812C122.438 72.9688 120.359 69.0156 120.359 63.9219C120.359 58.8281 122.188 55 125.844 52.4375C129.531 49.875 133.656 48.5938 138.219 48.5938C142.812 48.5938 147.188 49.4375 151.344 51.125V50.4219C151.344 46.8281 148.375 45.0469 142.438 45.0781L132.266 45.7344C129.422 45.7344 127.188 45.1094 125.562 43.8594C123.938 42.6094 123.125 40.1562 123.125 36.5C123.125 32.8438 123.484 30.4219 124.203 29.2344C129.547 27.3594 135.234 26.3906 141.266 26.3281C149.297 26.3281 155.953 28.5 161.234 32.8438C166.547 37.1562 169.203 43.3438 169.203 51.4062L168.266 65.5156C168.234 66.5781 169.25 67.5625 171.312 68.4688C171.312 74.0625 170.359 77.3906 168.453 78.4531C166.578 79.4844 164.781 80 163.062 80C161.344 80 159.891 79.6875 158.703 79.0625C157.578 78.4375 156.688 77.7969 156.031 77.1406C155.406 76.4219 154.719 75.4844 153.969 74.3281ZM143.375 68.0938C146.812 68.0938 149.344 67.2969 150.969 65.7031V62.1406C150.562 61.7344 149.406 61.2188 147.5 60.5938C143.438 59.2188 140.531 59.3125 138.781 60.875C137.25 62.0938 136.938 63.5938 137.844 65.375C138.781 67.2812 140.625 68.1875 143.375 68.0938ZM186.406 79.9062C177.812 79.9062 173.516 75.7188 173.516 67.3438V65.0469L174.406 32C175.625 31.0312 177.312 30.2031 179.469 29.5156C181.781 28.7969 183.969 28.4375 186.031 28.4375C188.125 28.4375 189.875 28.75 191.281 29.375C192.719 30 193.641 30.5625 194.047 31.0625C194.516 31.5938 195.031 32.4531 195.594 33.6406L196.578 35.4688L198.219 34.2031C199.281 33.3594 200.797 32.2344 202.766 30.8281C204.859 29.2969 208.172 28.5312 212.703 28.5312C215.359 28.5312 217.906 28.9375 220.344 29.75C222.75 30.5625 224.969 31.9375 227 33.875C229.094 35.8438 230.141 40.0781 230.141 46.5781V49.9531C230.141 53.6094 230.016 58.3906 229.766 64.2969C229.453 71.4844 229.297 75.25 229.297 75.5938C229.172 75.9062 228.719 76.375 227.938 77C227.25 77.5625 226.172 78.2344 224.703 79.0156C223.328 79.7344 220.703 80.0938 216.828 80.0938C212.922 80.0938 209.984 78.9844 208.016 76.7656C206.078 74.4844 205.109 71.9531 205.109 69.1719L205.578 49.5781C205.578 47.3281 204.531 46.2031 202.438 46.2031C200.406 46.2344 198.891 47.4219 197.891 49.7656V77.3281C196.266 79.0469 192.438 79.9062 186.406 79.9062ZM272.703 28.25C285.172 28.25 291.406 33.6562 291.406 44.4688L290.422 75.875C290.297 76.1562 289.453 77 287.891 78.4062C286.328 79.7812 283.266 80.4688 278.703 80.4688C274.109 80.4688 270.828 79.3594 268.859 77.1406C266.922 74.8594 265.953 72.2969 265.953 69.4531L266.422 49.5781C266.422 47.2656 265.312 46.1094 263.094 46.1094C261.188 46.1094 259.641 47.3281 258.453 49.7656V77.3281C257.797 77.9844 256.375 78.5938 254.188 79.1562C252 79.7188 249.609 80 247.016 80C244.359 80 242.188 79.6094 240.5 78.8281C238.844 78.0781 237.219 76.7031 235.625 74.7031C234.094 72.7969 233.328 67.6562 233.328 59.2812L233.797 35.5625C233.797 31.7812 233.641 25.3125 233.328 16.1562C237.516 13.9062 241.609 12.7812 245.609 12.7812C246.797 12.7812 247.594 12.8906 248 13.1094C255.125 14.1719 258.719 18.8125 258.781 27.0312C258.781 29.6562 258.516 32.1719 257.984 34.5781C263.297 30.3594 268.203 28.25 272.703 28.25ZM320.375 58.7656C320.375 54.9531 320.594 50.8906 321.031 46.5781C316.562 45.5469 314.203 44.2969 313.953 42.8281C313.828 42.2969 313.766 40.2188 313.766 36.5938C313.766 33.0312 313.828 31.25 313.953 31.25L317.516 30.2656C319.859 29.5781 321.203 29.2344 321.547 29.2344L320.75 19.8125L320.562 16.625C323.031 14.7813 327.078 13.8594 332.703 13.8594C338.391 13.8594 341.859 15.1875 343.109 17.8438C344.391 20.5625 345.031 23.9375 345.031 27.9688L357.641 27.4062C358.672 31.5312 359.172 35.4062 359.141 39.0312C359.141 44.2812 357.797 47.0312 355.109 47.2812L345.125 48.0312C344.812 49.7812 344.656 51.7031 344.656 53.7969C344.656 58.5469 345.844 60.9062 348.219 60.875H348.594C352.062 60.6562 354.5 60.125 355.906 59.2812C356.156 59.2812 356.906 59.7656 358.156 60.7344C359.406 61.6719 360.031 64.0625 360.031 67.9062C360.031 71.7812 358.562 74.8125 355.625 77C352.75 79.1875 347.5 80.2812 339.875 80.2812C326.875 80.2812 320.375 73.1094 320.375 58.7656ZM387.922 27.4062C391.641 27.4062 394.969 28.25 397.906 29.9375C400.938 31.6562 403.297 33.4375 404.984 35.2812C406.766 37.1562 408.234 39.6875 409.391 42.875C410.578 46.0938 411.172 49.6875 411.172 53.6562C411.172 57.6875 410.594 61.2969 409.438 64.4844C408.25 67.7344 406.812 70.2656 405.125 72.0781C403.406 73.9531 401.047 75.75 398.047 77.4688C395.109 79.1562 391.734 80 387.922 80C385.891 80 384.047 79.8906 382.391 79.6719C380.641 79.4219 378.453 78.7656 375.828 77.7031C373.203 76.6094 370.953 75.1562 369.078 73.3438C367.203 71.5312 365.562 68.8281 364.156 65.2344C362.781 61.5781 362.094 57.3438 362.094 52.5312C362.094 44.875 364.5 38.7812 369.312 34.25C374.156 29.6875 380.359 27.4062 387.922 27.4062ZM379.297 53.5156C379.297 59.7031 381.953 62.7656 387.266 62.7031C388.891 62.7031 390.469 62 392 60.5938C393.594 59.1875 394.391 56.9688 394.391 53.9375C394.391 50.9062 393.578 48.6875 391.953 47.2812C390.359 45.875 388.594 45.1719 386.656 45.1719C384.719 45.1719 383 45.9375 381.5 47.4688C380.031 49.0312 379.297 51.0469 379.297 53.5156ZM447.688 74.3281C444.375 78.1094 440.031 80 434.656 80C429.281 80 424.5 78.5938 420.312 75.7812C416.156 72.9688 414.078 69.0156 414.078 63.9219C414.078 58.8281 415.906 55 419.562 52.4375C423.25 49.875 427.375 48.5938 431.938 48.5938C436.531 48.5938 440.906 49.4375 445.062 51.125V50.4219C445.062 46.8281 442.094 45.0469 436.156 45.0781L425.984 45.7344C423.141 45.7344 420.906 45.1094 419.281 43.8594C417.656 42.6094 416.844 40.1562 416.844 36.5C416.844 32.8438 417.203 30.4219 417.922 29.2344C423.266 27.3594 428.953 26.3906 434.984 26.3281C443.016 26.3281 449.672 28.5 454.953 32.8438C460.266 37.1562 462.922 43.3438 462.922 51.4062L461.984 65.5156C461.953 66.5781 462.969 67.5625 465.031 68.4688C465.031 74.0625 464.078 77.3906 462.172 78.4531C460.297 79.4844 458.5 80 456.781 80C455.062 80 453.609 79.6875 452.422 79.0625C451.297 78.4375 450.406 77.7969 449.75 77.1406C449.125 76.4219 448.438 75.4844 447.688 74.3281ZM437.094 68.0938C440.531 68.0938 443.062 67.2969 444.688 65.7031V62.1406C444.281 61.7344 443.125 61.2188 441.219 60.5938C437.156 59.2188 434.25 59.3125 432.5 60.875C430.969 62.0938 430.656 63.5938 431.562 65.375C432.5 67.2812 434.344 68.1875 437.094 68.0938ZM432.453 10.5312C433.234 9.90625 437.141 7.21875 444.172 2.46875L447.312 0.359375C448.656 0.359375 450.125 1.26562 451.719 3.07812C453.344 4.82812 454.156 6.64062 454.156 8.51562C454.156 9.10938 453.562 10.0938 452.375 11.4688C451.188 12.7812 445.672 16.6094 435.828 22.9531C434.047 22.9531 432.453 22.2969 431.047 20.9844C429.672 19.6719 428.984 18.0312 428.984 16.0625C428.984 14.125 430.141 12.2812 432.453 10.5312ZM480.125 79.9062C471.531 79.9062 467.234 75.7188 467.234 67.3438V65.0469L468.125 32C469.344 31.0312 471.031 30.2031 473.188 29.5156C475.5 28.7969 477.688 28.4375 479.75 28.4375C481.844 28.4375 483.594 28.75 485 29.375C486.438 30 487.359 30.5625 487.766 31.0625C488.234 31.5938 488.75 32.4531 489.312 33.6406L490.297 35.4688L491.938 34.2031C493 33.3594 494.516 32.2344 496.484 30.8281C498.578 29.2969 501.891 28.5312 506.422 28.5312C509.078 28.5312 511.625 28.9375 514.062 29.75C516.469 30.5625 518.688 31.9375 520.719 33.875C522.812 35.8438 523.859 40.0781 523.859 46.5781V49.9531C523.859 53.6094 523.734 58.3906 523.484 64.2969C523.172 71.4844 523.016 75.25 523.016 75.5938C522.891 75.9062 522.438 76.375 521.656 77C520.969 77.5625 519.891 78.2344 518.422 79.0156C517.047 79.7344 514.422 80.0938 510.547 80.0938C506.641 80.0938 503.703 78.9844 501.734 76.7656C499.797 74.4844 498.828 71.9531 498.828 69.1719L499.297 49.5781C499.297 47.3281 498.25 46.2031 496.156 46.2031C494.125 46.2344 492.609 47.4219 491.609 49.7656V77.3281C489.984 79.0469 486.156 79.9062 480.125 79.9062Z" fill="white"/>
</svg>
