<svg width="404" height="96" viewBox="0 0 404 96" fill="none" xmlns="http://www.w3.org/2000/svg">
<g filter="url(#filter0_d_177_20)">
<path d="M376.687 67.0601C376.687 67.0601 277.539 84 202 84C118.736 84 27.3126 67.0601 27.3126 67.0601C16.6426 67.0601 8 60.7382 8 52.9435V24.0804C8 16.2812 16.6488 9.96384 27.3126 9.96384L202 7.66168L376.687 9.96384C387.357 9.96384 396 16.2857 396 24.0804V52.9435C396.006 60.7382 387.357 67.0601 376.687 67.0601Z" fill="#C81212"/>
<path d="M376.687 63.3984C376.687 63.3984 277.539 80.3383 202 80.3383C118.736 80.3383 27.3126 63.3984 27.3126 63.3984C16.6426 63.3984 8 57.0765 8 49.2818V20.4187C8 12.6195 16.6488 6.30216 27.3126 6.30216L202 4L376.687 6.30216C387.357 6.30216 396 12.624 396 20.4187V49.2818C396.006 57.0811 387.357 63.3984 376.687 63.3984Z" fill="url(#paint0_linear_177_20)"/>
<path d="M373.135 63.2447C373.135 63.2447 276.287 79 202.5 79C121.167 79 31.8646 63.2447 31.8646 63.2447C21.4421 63.2447 13 57.3649 13 50.1153V23.2706C13 16.0167 21.4482 10.1412 31.8646 10.1412L202.5 8L373.135 10.1412C383.558 10.1412 392 16.021 392 23.2706V50.1153C392.006 57.3691 383.558 63.2447 373.135 63.2447Z" stroke="white" stroke-linecap="round" stroke-dasharray="5 5"/>
<path d="M48.4824 36.4219V46.1426C48.4824 46.3613 48.3685 46.6667 48.1406 47.0586C47.9219 47.4505 47.6621 47.7786 47.3613 48.043C47.0697 48.2982 46.6185 48.526 46.0078 48.7266C45.4154 48.9271 44.7865 49.0273 44.1211 49.0273C42.9635 49.0273 42.084 48.7721 41.4824 48.2617C41.2272 48.0247 40.9401 47.6829 40.6211 47.2363C40.293 46.7715 40.0697 46.0605 39.9512 45.1035V36.4219H36.5059C35.8496 35.4102 35.5215 34.2754 35.5215 33.0176C35.5215 31.7415 35.8223 30.7435 36.4238 30.0234C37.0254 29.2943 37.8822 28.9297 38.9941 28.9297L51.6543 28.834C52.3105 29.8275 52.6387 30.9622 52.6387 32.2383C52.6387 33.5143 52.3379 34.5306 51.7363 35.2871C51.1348 36.0436 50.2871 36.4219 49.1934 36.4219H48.4824ZM61.2246 42.5879V46.9492C60.9421 47.4961 60.5729 47.9746 60.1172 48.3848C59.6706 48.7949 58.9961 49 58.0938 49C54.9401 49 53.3633 47.3184 53.3633 43.9551L53.1582 29.8457C54.2702 29.1712 55.5143 28.834 56.8906 28.834C58.2852 28.834 59.3835 29.1393 60.1855 29.75C60.9967 30.3698 61.4023 31.2539 61.4023 32.4023C61.4023 34.5625 61.3932 36.3626 61.375 37.8027H63.6035L63.5488 29.8457C64.679 29.1712 65.9232 28.834 67.2812 28.834C68.6576 28.834 69.7467 29.1393 70.5488 29.75C71.3691 30.3607 71.7793 31.2448 71.7793 32.4023C71.7793 34.3346 71.7246 37.9622 71.6152 43.2852V46.9492C71.4421 47.3958 71.1003 47.8516 70.5898 48.3164C70.0794 48.7721 69.3958 49 68.5391 49C65.4948 49 63.9089 47.3184 63.7812 43.9551L63.7266 42.5879H61.2246ZM82.9766 28.834C84.3984 28.834 85.6745 29.1621 86.8047 29.8184C87.9714 30.4928 88.8783 31.181 89.5254 31.8828C90.209 32.612 90.7741 33.5872 91.2207 34.8086C91.6764 36.0482 91.9043 37.4245 91.9043 38.9375C91.9043 40.4779 91.681 41.8496 91.2344 43.0527C90.7786 44.2832 90.2227 45.2539 89.5664 45.9648C88.8919 46.694 87.9805 47.3822 86.832 48.0293C85.6745 48.6764 84.3893 49 82.9766 49C81.0443 49 79.5677 48.7585 78.5469 48.2754C77.5534 47.7923 76.3913 46.9857 75.0605 45.8555C73.748 44.7161 73.0918 42.2005 73.0918 38.3086C73.0918 35.5195 74.0124 33.2454 75.8535 31.4863C77.7038 29.7181 80.0781 28.834 82.9766 28.834ZM82.7168 35.6426C81.8509 35.6426 81.1217 35.9388 80.5293 36.5312C79.9551 37.1146 79.668 37.8438 79.668 38.7188C79.668 40.3594 80.0234 41.3802 80.7344 41.7812C81.4362 42.1732 82.0286 42.3691 82.5117 42.3691C82.9857 42.3691 83.4141 42.2871 83.7969 42.123C84.1797 41.9408 84.5488 41.5807 84.9043 41.043C85.2598 40.4961 85.4375 39.7305 85.4375 38.7461C85.4375 37.7617 85.1276 37.0007 84.5078 36.4629C83.8971 35.916 83.3001 35.6426 82.7168 35.6426ZM86.2168 25.5664C86.5723 25.849 86.75 26.2682 86.75 26.8242C86.6862 27.2161 86.5312 27.5352 86.2852 27.7812C86.0755 27.9909 85.6061 28.2598 84.877 28.5879C83.8835 27.8496 83.0905 27.2161 82.498 26.6875L80.0918 28.7246C79.5358 28.4876 79.0664 28.1823 78.6836 27.8086C78.3828 27.4622 78.2188 27.1341 78.1914 26.8242V26.6328C78.1914 26.1862 78.3783 25.8307 78.752 25.5664L81.4316 23.5977C81.8874 23.2057 82.2383 23.0098 82.4844 23.0098C82.7122 23.0098 83.4049 23.4427 84.5625 24.3086L86.2168 25.5664ZM107.107 28.9023C108.639 28.9023 109.76 29.3672 110.471 30.2969C111.182 31.2266 111.537 32.4935 111.537 34.0977L111.428 41.4121C111.4 43.4993 111.373 45.0488 111.346 46.0605L111.305 47.127C111.305 47.2728 111.049 47.6419 110.539 48.2344C110.038 48.8177 108.999 49.1094 107.422 49.1094C105.836 49.1094 104.455 48.3027 103.279 46.6895C102.104 45.0762 101.338 43.235 100.982 41.166H100.777L101.283 47.9336C100.964 48.2526 100.467 48.526 99.793 48.7539C99.1003 48.9909 98.403 49.1094 97.7012 49.1094C96.4069 49.1094 95.3268 48.6855 94.4609 47.8379C93.6133 46.9902 93.1895 45.7643 93.1895 44.1602V29.791C94.1374 29.153 95.4134 28.834 97.0176 28.834C98.6126 28.834 99.793 29.3353 100.559 30.3379C101.333 31.3405 101.876 32.5846 102.186 34.0703C102.505 35.5742 102.86 36.8275 103.252 37.8301H103.58C103.452 33.1908 103.389 30.7435 103.389 30.4883C103.389 30.0508 103.434 29.7728 103.525 29.6543C103.635 29.5176 103.963 29.3626 104.51 29.1895C105.084 28.998 105.95 28.9023 107.107 28.9023ZM123.35 48.9727C120.533 48.9727 118.136 47.9974 116.158 46.0469C114.189 44.0872 113.205 41.7174 113.205 38.9375C113.205 36.1484 114.189 33.7695 116.158 31.8008C118.136 29.8229 120.469 28.834 123.158 28.834C125.847 28.834 127.829 29.4036 129.105 30.543C130.391 31.6823 131.065 32.7852 131.129 33.8516V34.0703C131.129 35.5469 130.336 36.7044 128.75 37.543C128.404 37.7982 127.87 37.9577 127.15 38.0215L126.959 37.6387C126.649 37.0736 126.184 36.6042 125.564 36.2305C124.954 35.8568 124.298 35.6699 123.596 35.6699C122.511 35.6699 121.595 36.0163 120.848 36.709C120.109 37.4017 119.74 38.2311 119.74 39.1973C119.74 40.1543 120.118 40.9837 120.875 41.6855C121.622 42.3783 122.529 42.7246 123.596 42.7246C123.933 42.7246 124.27 42.6882 124.607 42.6152L124.525 39.2246C125.537 38.8327 126.676 38.6367 127.943 38.6367C129.192 38.6367 130.186 38.8145 130.924 39.1699C131.662 39.5254 132.031 40.0221 132.031 40.6602V43.7637L131.881 49.1094C131.288 49.8932 130.35 50.2852 129.064 50.2852C127.05 50.2852 125.742 49.8203 125.141 48.8906C124.53 48.9453 123.933 48.9727 123.35 48.9727ZM150.721 36.4219V46.1426C150.721 46.3613 150.607 46.6667 150.379 47.0586C150.16 47.4505 149.9 47.7786 149.6 48.043C149.308 48.2982 148.857 48.526 148.246 48.7266C147.654 48.9271 147.025 49.0273 146.359 49.0273C145.202 49.0273 144.322 48.7721 143.721 48.2617C143.465 48.0247 143.178 47.6829 142.859 47.2363C142.531 46.7715 142.308 46.0605 142.189 45.1035V36.4219H138.744C138.088 35.4102 137.76 34.2754 137.76 33.0176C137.76 31.7415 138.061 30.7435 138.662 30.0234C139.264 29.2943 140.12 28.9297 141.232 28.9297L153.893 28.834C154.549 29.8275 154.877 30.9622 154.877 32.2383C154.877 33.5143 154.576 34.5306 153.975 35.2871C153.373 36.0436 152.525 36.4219 151.432 36.4219H150.721ZM163.668 32.3066C163.668 34.4941 163.659 36.2988 163.641 37.7207L163.463 46.9492C163.189 47.4596 162.829 47.9382 162.383 48.3848C161.964 48.7949 161.289 49 160.359 49C157.188 49 155.602 47.3092 155.602 43.9277L155.396 29.7637C156.508 29.1439 157.753 28.834 159.129 28.834C160.523 28.834 161.626 29.1257 162.438 29.709C163.258 30.2832 163.668 31.1491 163.668 32.3066ZM179.268 28.9023C180.799 28.9023 181.92 29.3672 182.631 30.2969C183.342 31.2266 183.697 32.4935 183.697 34.0977L183.588 41.4121C183.561 43.4993 183.533 45.0488 183.506 46.0605L183.465 47.127C183.465 47.2728 183.21 47.6419 182.699 48.2344C182.198 48.8177 181.159 49.1094 179.582 49.1094C177.996 49.1094 176.615 48.3027 175.439 46.6895C174.264 45.0762 173.498 43.235 173.143 41.166H172.938L173.443 47.9336C173.124 48.2526 172.628 48.526 171.953 48.7539C171.26 48.9909 170.563 49.1094 169.861 49.1094C168.567 49.1094 167.487 48.6855 166.621 47.8379C165.773 46.9902 165.35 45.7643 165.35 44.1602V29.791C166.298 29.153 167.574 28.834 169.178 28.834C170.773 28.834 171.953 29.3353 172.719 30.3379C173.493 31.3405 174.036 32.5846 174.346 34.0703C174.665 35.5742 175.02 36.8275 175.412 37.8301H175.74C175.613 33.1908 175.549 30.7435 175.549 30.4883C175.549 30.0508 175.594 29.7728 175.686 29.6543C175.795 29.5176 176.123 29.3626 176.67 29.1895C177.244 28.998 178.11 28.9023 179.268 28.9023ZM202.838 36.4219V46.1426C202.838 46.3613 202.724 46.6667 202.496 47.0586C202.277 47.4505 202.018 47.7786 201.717 48.043C201.425 48.2982 200.974 48.526 200.363 48.7266C199.771 48.9271 199.142 49.0273 198.477 49.0273C197.319 49.0273 196.439 48.7721 195.838 48.2617C195.583 48.0247 195.296 47.6829 194.977 47.2363C194.648 46.7715 194.425 46.0605 194.307 45.1035V36.4219H190.861C190.205 35.4102 189.877 34.2754 189.877 33.0176C189.877 31.7415 190.178 30.7435 190.779 30.0234C191.381 29.2943 192.238 28.9297 193.35 28.9297L206.01 28.834C206.666 29.8275 206.994 30.9622 206.994 32.2383C206.994 33.5143 206.693 34.5306 206.092 35.2871C205.49 36.0436 204.643 36.4219 203.549 36.4219H202.838ZM215.58 42.5879V46.9492C215.298 47.4961 214.928 47.9746 214.473 48.3848C214.026 48.7949 213.352 49 212.449 49C209.296 49 207.719 47.3184 207.719 43.9551L207.514 29.8457C208.626 29.1712 209.87 28.834 211.246 28.834C212.641 28.834 213.739 29.1393 214.541 29.75C215.352 30.3698 215.758 31.2539 215.758 32.4023C215.758 34.5625 215.749 36.3626 215.73 37.8027H217.959L217.904 29.8457C219.035 29.1712 220.279 28.834 221.637 28.834C223.013 28.834 224.102 29.1393 224.904 29.75C225.725 30.3607 226.135 31.2448 226.135 32.4023C226.135 34.3346 226.08 37.9622 225.971 43.2852V46.9492C225.798 47.3958 225.456 47.8516 224.945 48.3164C224.435 48.7721 223.751 49 222.895 49C219.85 49 218.264 47.3184 218.137 43.9551L218.082 42.5879H215.58ZM246.656 46.2793C246.656 46.735 246.433 47.2272 245.986 47.7559C245.813 47.9564 245.458 48.2161 244.92 48.5352C244.391 48.8451 243.635 49 242.65 49C240.928 49 239.743 48.0475 239.096 46.1426C238.932 45.6686 238.763 45.1491 238.59 44.584L238.33 43.7363L238.303 43.5176C237.2 43.2988 236.174 43.2988 235.227 43.5176C234.397 45.4863 233.951 46.7897 233.887 47.4277C233.823 47.5645 233.723 47.7103 233.586 47.8652C233.431 48.0658 233.098 48.3027 232.588 48.5762C232.077 48.8587 231.485 49 230.811 49C229.68 49 228.755 48.7038 228.035 48.1113C227.324 47.5098 226.969 46.7533 226.969 45.8418C226.969 45.2311 227.074 44.6113 227.283 43.9824C227.265 44.1191 228.997 39.4069 232.479 29.8457C232.761 29.6178 233.29 29.3945 234.064 29.1758C234.83 28.9479 235.865 28.834 237.168 28.834C238.462 28.834 239.479 29.1074 240.217 29.6543C240.955 30.1738 241.648 31.2493 242.295 32.8809C242.942 34.5033 243.475 36.0664 243.895 37.5703C244.305 38.9831 244.56 39.8444 244.66 40.1543L246.656 46.2793ZM235.924 39.4844H237.893L237.195 35.082C237.195 34.7995 237.127 34.6582 236.99 34.6582C236.917 34.6764 236.854 34.8268 236.799 35.1094L235.924 39.4844ZM261.271 28.9023C262.803 28.9023 263.924 29.3672 264.635 30.2969C265.346 31.2266 265.701 32.4935 265.701 34.0977L265.592 41.4121C265.564 43.4993 265.537 45.0488 265.51 46.0605L265.469 47.127C265.469 47.2728 265.214 47.6419 264.703 48.2344C264.202 48.8177 263.163 49.1094 261.586 49.1094C260 49.1094 258.619 48.3027 257.443 46.6895C256.268 45.0762 255.502 43.235 255.146 41.166H254.941L255.447 47.9336C255.128 48.2526 254.632 48.526 253.957 48.7539C253.264 48.9909 252.567 49.1094 251.865 49.1094C250.571 49.1094 249.491 48.6855 248.625 47.8379C247.777 46.9902 247.354 45.7643 247.354 44.1602V29.791C248.301 29.153 249.577 28.834 251.182 28.834C252.777 28.834 253.957 29.3353 254.723 30.3379C255.497 31.3405 256.04 32.5846 256.35 34.0703C256.669 35.5742 257.024 36.8275 257.416 37.8301H257.744C257.617 33.1908 257.553 30.7435 257.553 30.4883C257.553 30.0508 257.598 29.7728 257.689 29.6543C257.799 29.5176 258.127 29.3626 258.674 29.1895C259.248 28.998 260.114 28.9023 261.271 28.9023ZM275.436 42.5879V46.9492C275.153 47.4961 274.784 47.9746 274.328 48.3848C273.882 48.7949 273.207 49 272.305 49C269.151 49 267.574 47.3184 267.574 43.9551L267.369 29.8457C268.481 29.1712 269.725 28.834 271.102 28.834C272.496 28.834 273.594 29.1393 274.396 29.75C275.208 30.3698 275.613 31.2539 275.613 32.4023C275.613 34.5625 275.604 36.3626 275.586 37.8027H277.814L277.76 29.8457C278.89 29.1712 280.134 28.834 281.492 28.834C282.868 28.834 283.958 29.1393 284.76 29.75C285.58 30.3607 285.99 31.2448 285.99 32.4023C285.99 34.3346 285.936 37.9622 285.826 43.2852V46.9492C285.653 47.3958 285.311 47.8516 284.801 48.3164C284.29 48.7721 283.607 49 282.75 49C279.706 49 278.12 47.3184 277.992 43.9551L277.938 42.5879H275.436ZM305.131 36.4219V46.1426C305.131 46.3613 305.017 46.6667 304.789 47.0586C304.57 47.4505 304.311 47.7786 304.01 48.043C303.718 48.2982 303.267 48.526 302.656 48.7266C302.064 48.9271 301.435 49.0273 300.77 49.0273C299.612 49.0273 298.732 48.7721 298.131 48.2617C297.876 48.0247 297.589 47.6829 297.27 47.2363C296.941 46.7715 296.718 46.0605 296.6 45.1035V36.4219H293.154C292.498 35.4102 292.17 34.2754 292.17 33.0176C292.17 31.7415 292.471 30.7435 293.072 30.0234C293.674 29.2943 294.531 28.9297 295.643 28.9297L308.303 28.834C308.959 29.8275 309.287 30.9622 309.287 32.2383C309.287 33.5143 308.986 34.5306 308.385 35.2871C307.783 36.0436 306.936 36.4219 305.842 36.4219H305.131ZM319.336 28.834C320.758 28.834 322.034 29.1621 323.164 29.8184C324.331 30.4928 325.238 31.181 325.885 31.8828C326.568 32.612 327.133 33.5872 327.58 34.8086C328.036 36.0482 328.264 37.4245 328.264 38.9375C328.264 40.4779 328.04 41.8496 327.594 43.0527C327.138 44.2832 326.582 45.2539 325.926 45.9648C325.251 46.694 324.34 47.3822 323.191 48.0293C322.034 48.6764 320.749 49 319.336 49C317.404 49 315.927 48.7585 314.906 48.2754C313.913 47.7923 312.751 46.9857 311.42 45.8555C310.107 44.7161 309.451 42.2005 309.451 38.3086C309.451 35.5195 310.372 33.2454 312.213 31.4863C314.063 29.7181 316.438 28.834 319.336 28.834ZM319.076 35.6426C318.21 35.6426 317.481 35.9388 316.889 36.5312C316.314 37.1146 316.027 37.8438 316.027 38.7188C316.027 40.3594 316.383 41.3802 317.094 41.7812C317.796 42.1732 318.388 42.3691 318.871 42.3691C319.345 42.3691 319.773 42.2871 320.156 42.123C320.539 41.9408 320.908 41.5807 321.264 41.043C321.619 40.4961 321.797 39.7305 321.797 38.7461C321.797 37.7617 321.487 37.0007 320.867 36.4629C320.257 35.916 319.66 35.6426 319.076 35.6426ZM337.793 24.8691C338.148 24.5866 339.283 23.8027 341.197 22.5176L342.127 21.9023C342.519 21.9023 342.947 22.1621 343.412 22.6816C343.877 23.2012 344.109 23.7344 344.109 24.2812C344.109 24.4544 343.932 24.7415 343.576 25.1426C343.257 25.498 341.653 26.61 338.764 28.4785C338.244 28.4785 337.784 28.2871 337.383 27.9043C336.982 27.5215 336.781 27.043 336.781 26.4688C336.781 25.8945 337.118 25.3613 337.793 24.8691ZM348.402 46.2793C348.329 46.7533 348.047 47.3229 347.555 47.9883C347.044 48.6628 345.96 49 344.301 49C342.642 49 341.489 48.0475 340.842 46.1426C340.386 44.8392 340.122 43.9642 340.049 43.5176L338.436 43.3672C337.916 43.3672 337.428 43.4173 336.973 43.5176L336.672 44.2695C336.061 45.7188 335.715 46.7715 335.633 47.4277C335.478 47.7467 335.132 48.0885 334.594 48.4531C334.065 48.8177 333.309 49 332.324 49C331.349 49 330.501 48.7038 329.781 48.1113C329.07 47.5098 328.715 46.8034 328.715 45.9922C328.715 45.1719 328.838 44.4564 329.084 43.8457C330.005 41.4212 331.718 36.7546 334.225 29.8457C334.507 29.6178 335.036 29.3945 335.811 29.1758C336.576 28.9479 337.611 28.834 338.914 28.834C340.208 28.834 341.225 29.1074 341.963 29.6543C342.701 30.1738 343.394 31.2493 344.041 32.8809C344.661 34.4395 345.212 36.0618 345.695 37.748C346.178 39.3704 347.081 42.2142 348.402 46.2793ZM338.941 35C338.941 34.7721 338.873 34.6582 338.736 34.6582H338.709C338.636 34.7311 338.577 34.9134 338.531 35.2051C338.486 35.5241 338.199 36.9505 337.67 39.4844H339.639L338.941 35.082V35ZM363.018 28.9023C364.549 28.9023 365.67 29.3672 366.381 30.2969C367.092 31.2266 367.447 32.4935 367.447 34.0977L367.338 41.4121C367.311 43.4993 367.283 45.0488 367.256 46.0605L367.215 47.127C367.215 47.2728 366.96 47.6419 366.449 48.2344C365.948 48.8177 364.909 49.1094 363.332 49.1094C361.746 49.1094 360.365 48.3027 359.189 46.6895C358.014 45.0762 357.248 43.235 356.893 41.166H356.688L357.193 47.9336C356.874 48.2526 356.378 48.526 355.703 48.7539C355.01 48.9909 354.313 49.1094 353.611 49.1094C352.317 49.1094 351.237 48.6855 350.371 47.8379C349.523 46.9902 349.1 45.7643 349.1 44.1602V29.791C350.048 29.153 351.324 28.834 352.928 28.834C354.523 28.834 355.703 29.3353 356.469 30.3379C357.243 31.3405 357.786 32.5846 358.096 34.0703C358.415 35.5742 358.77 36.8275 359.162 37.8301H359.49C359.363 33.1908 359.299 30.7435 359.299 30.4883C359.299 30.0508 359.344 29.7728 359.436 29.6543C359.545 29.5176 359.873 29.3626 360.42 29.1895C360.994 28.998 361.86 28.9023 363.018 28.9023Z" fill="white"/>
</g>
<defs>
<filter id="filter0_d_177_20" x="0" y="0" width="404" height="96" filterUnits="userSpaceOnUse" color-interpolation-filters="sRGB">
<feFlood flood-opacity="0" result="BackgroundImageFix"/>
<feColorMatrix in="SourceAlpha" type="matrix" values="0 0 0 0 0 0 0 0 0 0 0 0 0 0 0 0 0 0 127 0" result="hardAlpha"/>
<feOffset dy="4"/>
<feGaussianBlur stdDeviation="4"/>
<feColorMatrix type="matrix" values="0 0 0 0 0.645833 0 0 0 0 0.0592014 0 0 0 0 0.0592014 0 0 0 0.45 0"/>
<feBlend mode="normal" in2="BackgroundImageFix" result="effect1_dropShadow_177_20"/>
<feBlend mode="normal" in="SourceGraphic" in2="effect1_dropShadow_177_20" result="shape"/>
</filter>
<linearGradient id="paint0_linear_177_20" x1="202" y1="-9" x2="203.27" y2="83.8515" gradientUnits="userSpaceOnUse">
<stop stop-color="#FF000A"/>
<stop offset="1" stop-color="#C2000B"/>
</linearGradient>
</defs>
</svg>
