<svg width="404" height="96" viewBox="0 0 404 96" fill="none" xmlns="http://www.w3.org/2000/svg">
<g filter="url(#filter0_d_161_1334)">
<path d="M376.687 67.0601C376.687 67.0601 277.539 84 202 84C118.736 84 27.3126 67.0601 27.3126 67.0601C16.6426 67.0601 8 60.7382 8 52.9435V24.0804C8 16.2812 16.6488 9.96384 27.3126 9.96384L202 7.66168L376.687 9.96384C387.357 9.96384 396 16.2857 396 24.0804V52.9435C396.006 60.7382 387.357 67.0601 376.687 67.0601Z" fill="#C81212"/>
<path d="M376.687 63.3984C376.687 63.3984 277.539 80.3383 202 80.3383C118.736 80.3383 27.3126 63.3984 27.3126 63.3984C16.6426 63.3984 8 57.0765 8 49.2818V20.4187C8 12.6195 16.6488 6.30216 27.3126 6.30216L202 4L376.687 6.30216C387.357 6.30216 396 12.624 396 20.4187V49.2818C396.006 57.0811 387.357 63.3984 376.687 63.3984Z" fill="url(#paint0_linear_161_1334)"/>
<path d="M373.135 63.2447C373.135 63.2447 276.287 79 202.5 79C121.167 79 31.8646 63.2447 31.8646 63.2447C21.4421 63.2447 13 57.3649 13 50.1153V23.2706C13 16.0167 21.4482 10.1412 31.8646 10.1412L202.5 8L373.135 10.1412C383.558 10.1412 392 16.021 392 23.2706V50.1153C392.006 57.3691 383.558 63.2447 373.135 63.2447Z" stroke="white" stroke-linecap="round" stroke-dasharray="5 5"/>
<path d="M56.1108 50C54.6981 50 53.4357 49.6217 52.3237 48.8652C51.23 48.1178 50.4552 47.0104 49.9995 45.543C46.9461 38.0508 45.2554 34.1862 44.9272 33.9492C44.9272 32.9375 45.4696 32.026 46.5542 31.2148C47.6388 30.3945 48.7144 29.9844 49.7808 29.9844C51.3485 29.9844 52.6017 30.9551 53.5405 32.8965C54.4793 34.8379 55.2313 37.8958 55.7964 42.0703H56.0151C56.9722 37.2669 57.592 33.5436 57.8745 30.9004L58.189 30.6133C58.3439 30.4857 58.6629 30.3216 59.146 30.1211C60.1942 29.6745 61.4657 29.7201 62.9604 30.2578C64.8472 31.0234 65.7905 32.4772 65.7905 34.6191C65.7905 36.7611 65.0522 39.1445 63.5757 41.7695C62.1082 44.3945 60.896 46.3542 59.939 47.6484L58.5444 49.6309C57.7697 49.877 56.9585 50 56.1108 50ZM73.064 25.6641C73.547 25.2904 74.6864 24.5065 76.4819 23.3125L77.3979 22.6973C77.7899 22.6973 78.2183 22.9616 78.6831 23.4902C79.1571 24.0007 79.394 24.5293 79.394 25.0762C79.394 25.2676 79.2254 25.5456 78.8882 25.9102C78.5509 26.2747 76.9377 27.3958 74.0483 29.2734C73.5379 29.2734 73.0731 29.0866 72.6538 28.7129C72.2528 28.3301 72.0522 27.8516 72.0522 27.2773C72.0522 26.7122 72.3895 26.1745 73.064 25.6641ZM67.5815 33.3613C67.5815 32.6413 67.8276 31.9941 68.3198 31.4199C69.2586 30.3079 70.8582 29.752 73.1187 29.752L79.4761 29.6699C79.6401 29.6699 80.0503 29.8158 80.7065 30.1074C81.3446 30.39 81.6636 31.2331 81.6636 32.6367C81.6636 34.7422 80.5789 35.7995 78.4097 35.8086L75.5249 35.7812L75.5522 37.5723L79.1753 37.3945C79.5034 37.3945 79.8361 37.5632 80.1733 37.9004C80.5106 38.2376 80.6792 38.8346 80.6792 39.6914C80.6792 40.5482 80.4285 41.1816 79.9272 41.5918C79.4168 41.9928 78.8563 42.1934 78.2456 42.1934C78.1636 42.1934 77.284 42.1432 75.6069 42.043V44.0938L80.7886 43.6973L81.021 44.0254C81.1395 44.1712 81.2716 44.5358 81.4175 45.1191C81.5815 45.7025 81.6636 46.3314 81.6636 47.0059C81.6636 48.2546 81.299 49.0794 80.5698 49.4805C79.8498 49.8633 79.1753 50.0547 78.5464 50.0547L74.937 50.1914C74.1167 50.1914 73.3784 50.1686 72.7222 50.123C72.1753 50.0866 71.5418 49.9681 70.8218 49.7676C70.12 49.5579 69.4318 49.1569 68.7573 48.5645C68.0737 47.9447 67.7 46.7324 67.6362 44.9277C67.5998 44.8913 67.5815 41.0358 67.5815 33.3613ZM106.683 35.0703C106.683 36.5469 105.89 37.7044 104.304 38.543C103.958 38.7799 103.425 38.9395 102.705 39.0215L102.513 38.6387C101.775 37.3262 100.645 36.6699 99.1226 36.6699C98.0379 36.6699 97.1219 37.0163 96.3745 37.709C95.6271 38.4017 95.2534 39.2357 95.2534 40.2109C95.2534 41.1862 95.6271 42.0202 96.3745 42.7129C97.1219 43.4056 98.0379 43.752 99.1226 43.752C100.526 43.752 101.579 43.2324 102.281 42.1934C102.682 42.0384 103.101 41.9518 103.539 41.9336C104.368 41.9336 105.061 42.2936 105.617 43.0137C106.182 43.752 106.46 44.5495 106.451 45.4062C106.451 45.8711 106.36 46.377 106.177 46.9238C105.466 48.0996 104.491 48.9062 103.251 49.3438C102.012 49.7812 100.549 50 98.8628 50C96.0555 50 93.6629 49.0202 91.6851 47.0605C89.7163 45.1009 88.7319 42.7266 88.7319 39.9375C88.7319 37.1484 89.7163 34.7695 91.6851 32.8008C93.6538 30.8229 96.0464 29.834 98.8628 29.834C99.9474 29.834 101.064 30.0072 102.212 30.3535C103.324 30.6908 104.332 31.2604 105.234 32.0625C106.136 32.8646 106.619 33.7943 106.683 34.8516V35.0703ZM117.375 29.834C118.796 29.834 120.072 30.1621 121.203 30.8184C122.369 31.4928 123.276 32.181 123.923 32.8828C124.607 33.612 125.172 34.5872 125.619 35.8086C126.074 37.0482 126.302 38.4245 126.302 39.9375C126.302 41.4779 126.079 42.8496 125.632 44.0527C125.177 45.2832 124.621 46.2539 123.964 46.9648C123.29 47.694 122.378 48.3822 121.23 49.0293C120.072 49.6764 118.787 50 117.375 50C115.442 50 113.966 49.7585 112.945 49.2754C111.951 48.7923 110.789 47.9857 109.458 46.8555C108.146 45.7161 107.49 43.2005 107.49 39.3086C107.49 36.5195 108.41 34.2454 110.251 32.4863C112.102 30.7181 114.476 29.834 117.375 29.834ZM117.115 36.6426C116.249 36.6426 115.52 36.9388 114.927 37.5312C114.353 38.1146 114.066 38.8438 114.066 39.7188C114.066 41.3594 114.421 42.3802 115.132 42.7812C115.834 43.1732 116.427 43.3691 116.91 43.3691C117.384 43.3691 117.812 43.2871 118.195 43.123C118.578 42.9408 118.947 42.5807 119.302 42.043C119.658 41.4961 119.835 40.7305 119.835 39.7461C119.835 38.7617 119.526 38.0007 118.906 37.4629C118.295 36.916 117.698 36.6426 117.115 36.6426ZM120.615 26.5664C120.97 26.849 121.148 27.2682 121.148 27.8242C121.084 28.2161 120.929 28.5352 120.683 28.7812C120.473 28.9909 120.004 29.2598 119.275 29.5879C118.281 28.8496 117.488 28.2161 116.896 27.6875L114.49 29.7246C113.934 29.4876 113.464 29.1823 113.082 28.8086C112.781 28.4622 112.617 28.1341 112.589 27.8242V27.6328C112.589 27.1862 112.776 26.8307 113.15 26.5664L115.83 24.5977C116.285 24.2057 116.636 24.0098 116.882 24.0098C117.11 24.0098 117.803 24.4427 118.96 25.3086L120.615 26.5664ZM119.986 19.2246C121.408 18.6048 122.779 18.6595 124.101 19.3887C124.748 19.9538 125.072 20.6738 125.072 21.5488C125.072 22.4238 124.698 23.153 123.951 23.7363C123.668 24.0736 123.231 24.4518 122.638 24.8711C121.499 25.4089 120.792 25.1582 120.519 24.1191C120.519 23.6361 120.679 23.2441 120.998 22.9434L121.476 22.5879C122.005 22.2415 122.292 21.8952 122.337 21.5488C122.319 21.1751 122.082 20.9883 121.626 20.9883L120.628 21.125C120.109 21.125 119.799 20.7969 119.699 20.1406C119.699 19.7305 119.794 19.4251 119.986 19.2246ZM141.505 29.9023C143.037 29.9023 144.158 30.3672 144.869 31.2969C145.58 32.2266 145.935 33.4935 145.935 35.0977L145.826 42.4121C145.798 44.4993 145.771 46.0488 145.744 47.0605L145.703 48.127C145.703 48.2728 145.447 48.6419 144.937 49.2344C144.436 49.8177 143.397 50.1094 141.82 50.1094C140.234 50.1094 138.853 49.3027 137.677 47.6895C136.501 46.0762 135.736 44.235 135.38 42.166H135.175L135.681 48.9336C135.362 49.2526 134.865 49.526 134.191 49.7539C133.498 49.9909 132.801 50.1094 132.099 50.1094C130.805 50.1094 129.725 49.6855 128.859 48.8379C128.011 47.9902 127.587 46.7643 127.587 45.1602V30.791C128.535 30.153 129.811 29.834 131.416 29.834C133.011 29.834 134.191 30.3353 134.957 31.3379C135.731 32.3405 136.274 33.5846 136.583 35.0703C136.903 36.5742 137.258 37.8275 137.65 38.8301H137.978C137.85 34.1908 137.787 31.7435 137.787 31.4883C137.787 31.0508 137.832 30.7728 137.923 30.6543C138.033 30.5176 138.361 30.3626 138.908 30.1895C139.482 29.998 140.348 29.9023 141.505 29.9023ZM157.748 49.9727C154.931 49.9727 152.534 48.9974 150.556 47.0469C148.587 45.0872 147.603 42.7174 147.603 39.9375C147.603 37.1484 148.587 34.7695 150.556 32.8008C152.534 30.8229 154.867 29.834 157.556 29.834C160.245 29.834 162.227 30.4036 163.503 31.543C164.789 32.6823 165.463 33.7852 165.527 34.8516V35.0703C165.527 36.5469 164.734 37.7044 163.148 38.543C162.802 38.7982 162.268 38.9577 161.548 39.0215L161.357 38.6387C161.047 38.0736 160.582 37.6042 159.962 37.2305C159.352 36.8568 158.695 36.6699 157.994 36.6699C156.909 36.6699 155.993 37.0163 155.246 37.709C154.507 38.4017 154.138 39.2311 154.138 40.1973C154.138 41.1543 154.516 41.9837 155.273 42.6855C156.02 43.3783 156.927 43.7246 157.994 43.7246C158.331 43.7246 158.668 43.6882 159.005 43.6152L158.923 40.2246C159.935 39.8327 161.074 39.6367 162.341 39.6367C163.59 39.6367 164.583 39.8145 165.322 40.1699C166.06 40.5254 166.429 41.0221 166.429 41.6602V44.7637L166.279 50.1094C165.686 50.8932 164.748 51.2852 163.462 51.2852C161.448 51.2852 160.14 50.8203 159.539 49.8906C158.928 49.9453 158.331 49.9727 157.748 49.9727ZM182.015 39.9512C183.774 39.9512 184.654 40.7259 184.654 42.2754C184.654 43.8249 183.774 44.5996 182.015 44.5996H176.027C174.268 44.5996 173.388 43.8249 173.388 42.2754C173.388 40.7259 174.268 39.9512 176.027 39.9512H182.015ZM203.548 50C202.136 50 200.873 49.6217 199.761 48.8652C198.667 48.1178 197.893 47.0104 197.437 45.543C194.384 38.0508 192.693 34.1862 192.365 33.9492C192.365 32.9375 192.907 32.026 193.992 31.2148C195.076 30.3945 196.152 29.9844 197.218 29.9844C198.786 29.9844 200.039 30.9551 200.978 32.8965C201.917 34.8379 202.669 37.8958 203.234 42.0703H203.453C204.41 37.2669 205.029 33.5436 205.312 30.9004L205.626 30.6133C205.781 30.4857 206.1 30.3216 206.583 30.1211C207.632 29.6745 208.903 29.7201 210.398 30.2578C212.285 31.0234 213.228 32.4772 213.228 34.6191C213.228 36.7611 212.49 39.1445 211.013 41.7695C209.546 44.3945 208.333 46.3542 207.376 47.6484L205.982 49.6309C205.207 49.877 204.396 50 203.548 50ZM220.501 25.6641C220.985 25.2904 222.124 24.5065 223.919 23.3125L224.835 22.6973C225.227 22.6973 225.656 22.9616 226.121 23.4902C226.595 24.0007 226.832 24.5293 226.832 25.0762C226.832 25.2676 226.663 25.5456 226.326 25.9102C225.988 26.2747 224.375 27.3958 221.486 29.2734C220.975 29.2734 220.511 29.0866 220.091 28.7129C219.69 28.3301 219.49 27.8516 219.49 27.2773C219.49 26.7122 219.827 26.1745 220.501 25.6641ZM215.019 33.3613C215.019 32.6413 215.265 31.9941 215.757 31.4199C216.696 30.3079 218.296 29.752 220.556 29.752L226.914 29.6699C227.078 29.6699 227.488 29.8158 228.144 30.1074C228.782 30.39 229.101 31.2331 229.101 32.6367C229.101 34.7422 228.016 35.7995 225.847 35.8086L222.962 35.7812L222.99 37.5723L226.613 37.3945C226.941 37.3945 227.274 37.5632 227.611 37.9004C227.948 38.2376 228.117 38.8346 228.117 39.6914C228.117 40.5482 227.866 41.1816 227.365 41.5918C226.854 41.9928 226.294 42.1934 225.683 42.1934C225.601 42.1934 224.722 42.1432 223.044 42.043V44.0938L228.226 43.6973L228.458 44.0254C228.577 44.1712 228.709 44.5358 228.855 45.1191C229.019 45.7025 229.101 46.3314 229.101 47.0059C229.101 48.2546 228.736 49.0794 228.007 49.4805C227.287 49.8633 226.613 50.0547 225.984 50.0547L222.375 50.1914C221.554 50.1914 220.816 50.1686 220.16 50.123C219.613 50.0866 218.979 49.9681 218.259 49.7676C217.557 49.5579 216.869 49.1569 216.195 48.5645C215.511 47.9447 215.138 46.7324 215.074 44.9277C215.037 44.8913 215.019 41.0358 215.019 33.3613ZM246.587 49.9727C243.771 49.9727 241.374 48.9974 239.396 47.0469C237.427 45.0872 236.443 42.7174 236.443 39.9375C236.443 37.1484 237.427 34.7695 239.396 32.8008C241.374 30.8229 243.707 29.834 246.396 29.834C249.085 29.834 251.067 30.4036 252.343 31.543C253.628 32.6823 254.303 33.7852 254.367 34.8516V35.0703C254.367 36.5469 253.574 37.7044 251.988 38.543C251.641 38.7982 251.108 38.9577 250.388 39.0215L250.197 38.6387C249.887 38.0736 249.422 37.6042 248.802 37.2305C248.192 36.8568 247.535 36.6699 246.833 36.6699C245.749 36.6699 244.833 37.0163 244.085 37.709C243.347 38.4017 242.978 39.2311 242.978 40.1973C242.978 41.1543 243.356 41.9837 244.113 42.6855C244.86 43.3783 245.767 43.7246 246.833 43.7246C247.171 43.7246 247.508 43.6882 247.845 43.6152L247.763 40.2246C248.775 39.8327 249.914 39.6367 251.181 39.6367C252.43 39.6367 253.423 39.8145 254.162 40.1699C254.9 40.5254 255.269 41.0221 255.269 41.6602V44.7637L255.119 50.1094C254.526 50.8932 253.587 51.2852 252.302 51.2852C250.288 51.2852 248.98 50.8203 248.378 49.8906C247.768 49.9453 247.171 49.9727 246.587 49.9727ZM264.757 33.3066C264.757 35.4941 264.748 37.2988 264.73 38.7207L264.552 47.9492C264.279 48.4596 263.919 48.9382 263.472 49.3848C263.053 49.7949 262.378 50 261.449 50C258.277 50 256.691 48.3092 256.691 44.9277L256.486 30.7637C257.598 30.1439 258.842 29.834 260.218 29.834C261.613 29.834 262.716 30.1257 263.527 30.709C264.347 31.2832 264.757 32.1491 264.757 33.3066ZM285.292 47.2793C285.292 47.735 285.069 48.2272 284.623 48.7559C284.449 48.9564 284.094 49.2161 283.556 49.5352C283.028 49.8451 282.271 50 281.287 50C279.564 50 278.379 49.0475 277.732 47.1426C277.568 46.6686 277.399 46.1491 277.226 45.584L276.966 44.7363L276.939 44.5176C275.836 44.2988 274.811 44.2988 273.863 44.5176C273.033 46.4863 272.587 47.7897 272.523 48.4277C272.459 48.5645 272.359 48.7103 272.222 48.8652C272.067 49.0658 271.735 49.3027 271.224 49.5762C270.714 49.8587 270.121 50 269.447 50C268.317 50 267.391 49.7038 266.671 49.1113C265.96 48.5098 265.605 47.7533 265.605 46.8418C265.605 46.2311 265.71 45.6113 265.919 44.9824C265.901 45.1191 267.633 40.4069 271.115 30.8457C271.397 30.6178 271.926 30.3945 272.701 30.1758C273.466 29.9479 274.501 29.834 275.804 29.834C277.098 29.834 278.115 30.1074 278.853 30.6543C279.591 31.1738 280.284 32.2493 280.931 33.8809C281.578 35.5033 282.111 37.0664 282.531 38.5703C282.941 39.9831 283.196 40.8444 283.296 41.1543L285.292 47.2793ZM274.56 40.4844H276.529L275.832 36.082C275.832 35.7995 275.763 35.6582 275.626 35.6582C275.554 35.6764 275.49 35.8268 275.435 36.1094L274.56 40.4844ZM292.183 48.6328C292.147 46.4909 292.119 44.1849 292.101 41.7148H291.226C290.944 41.7148 290.711 41.5781 290.529 41.3047C290.347 41.0221 290.255 40.6348 290.255 40.1426C290.255 38.6478 290.816 37.9004 291.937 37.9004L292.046 37.873L291.992 31.3242C291.992 31.2513 292.32 31.1055 292.976 30.8867C293.651 30.6497 294.621 30.4173 295.888 30.1895C297.201 29.9525 298.408 29.834 299.511 29.834C300.651 29.834 301.621 29.9023 302.423 30.0391C303.216 30.1576 304.069 30.4355 304.98 30.873C305.864 31.2923 306.611 31.8574 307.222 32.5684C307.833 33.2611 308.339 34.2363 308.74 35.4941C309.141 36.752 309.341 38.2148 309.341 39.8828C309.341 41.5508 309.127 43.0273 308.699 44.3125C308.279 45.5794 307.742 46.582 307.085 47.3203C306.438 48.0495 305.668 48.6374 304.775 49.084C303.918 49.5215 303.075 49.8177 302.246 49.9727C301.489 50.1185 300.596 50.1914 299.566 50.1914C298.545 50.1914 297.415 50.0638 296.175 49.8086C294.972 49.5625 293.988 49.2982 293.222 49.0156L292.183 48.6328ZM300.619 39.7461C300.619 41.0312 300.195 41.6875 299.347 41.7148L298.144 41.7695L298.171 43.1367C298.882 43.4193 299.611 43.5605 300.359 43.5605C302.227 43.5514 303.162 42.2799 303.162 39.7461C303.162 37.2122 302.227 35.9453 300.359 35.9453C299.602 35.9453 299.037 36.0319 298.664 36.2051C298.281 36.3691 298.089 36.4603 298.089 36.4785L298.117 37.873H300.25C300.496 38.4473 300.619 39.0716 300.619 39.7461ZM319.117 33.3066C319.117 35.4941 319.108 37.2988 319.089 38.7207L318.912 47.9492C318.638 48.4596 318.278 48.9382 317.832 49.3848C317.412 49.7949 316.738 50 315.808 50C312.636 50 311.05 48.3092 311.05 44.9277L310.845 30.7637C311.957 30.1439 313.201 29.834 314.578 29.834C315.972 29.834 317.075 30.1257 317.886 30.709C318.707 31.2832 319.117 32.1491 319.117 33.3066ZM309.738 25.1855C309.738 24.6478 309.97 24.1191 310.435 23.5996C310.9 23.071 311.328 22.8066 311.72 22.8066C314.181 24.4199 315.626 25.4089 316.054 25.7734C316.729 26.2839 317.066 26.8216 317.066 27.3867C317.066 27.9427 316.865 28.4212 316.464 28.8223C316.072 29.2051 315.612 29.3965 315.083 29.3965C312.203 27.5371 310.595 26.4251 310.257 26.0605C309.911 25.6595 309.738 25.3678 309.738 25.1855ZM334.716 29.9023C336.248 29.9023 337.369 30.3672 338.08 31.2969C338.791 32.2266 339.146 33.4935 339.146 35.0977L339.037 42.4121C339.009 44.4993 338.982 46.0488 338.955 47.0605L338.914 48.127C338.914 48.2728 338.658 48.6419 338.148 49.2344C337.647 49.8177 336.608 50.1094 335.031 50.1094C333.445 50.1094 332.064 49.3027 330.888 47.6895C329.712 46.0762 328.947 44.235 328.591 42.166H328.386L328.892 48.9336C328.573 49.2526 328.076 49.526 327.402 49.7539C326.709 49.9909 326.012 50.1094 325.31 50.1094C324.016 50.1094 322.936 49.6855 322.07 48.8379C321.222 47.9902 320.798 46.7643 320.798 45.1602V30.791C321.746 30.153 323.022 29.834 324.626 29.834C326.222 29.834 327.402 30.3353 328.167 31.3379C328.942 32.3405 329.485 33.5846 329.794 35.0703C330.113 36.5742 330.469 37.8275 330.861 38.8301H331.189C331.061 34.1908 330.998 31.7435 330.998 31.4883C330.998 31.0508 331.043 30.7728 331.134 30.6543C331.244 30.5176 331.572 30.3626 332.119 30.1895C332.693 29.998 333.559 29.9023 334.716 29.9023ZM348.88 43.5879V47.9492C348.598 48.4961 348.229 48.9746 347.773 49.3848C347.326 49.7949 346.652 50 345.75 50C342.596 50 341.019 48.3184 341.019 44.9551L340.814 30.8457C341.926 30.1712 343.17 29.834 344.546 29.834C345.941 29.834 347.039 30.1393 347.841 30.75C348.653 31.3698 349.058 32.2539 349.058 33.4023C349.058 35.5625 349.049 37.3626 349.031 38.8027H351.259L351.205 30.8457C352.335 30.1712 353.579 29.834 354.937 29.834C356.313 29.834 357.403 30.1393 358.205 30.75C359.025 31.3607 359.435 32.2448 359.435 33.4023C359.435 35.3346 359.38 38.9622 359.271 44.2852V47.9492C359.098 48.3958 358.756 48.8516 358.246 49.3164C357.735 49.7721 357.052 50 356.195 50C353.151 50 351.565 48.3184 351.437 44.9551L351.382 43.5879H348.88Z" fill="white"/>
</g>
<defs>
<filter id="filter0_d_161_1334" x="0" y="0" width="404" height="96" filterUnits="userSpaceOnUse" color-interpolation-filters="sRGB">
<feFlood flood-opacity="0" result="BackgroundImageFix"/>
<feColorMatrix in="SourceAlpha" type="matrix" values="0 0 0 0 0 0 0 0 0 0 0 0 0 0 0 0 0 0 127 0" result="hardAlpha"/>
<feOffset dy="4"/>
<feGaussianBlur stdDeviation="4"/>
<feColorMatrix type="matrix" values="0 0 0 0 0.645833 0 0 0 0 0.0592014 0 0 0 0 0.0592014 0 0 0 0.45 0"/>
<feBlend mode="normal" in2="BackgroundImageFix" result="effect1_dropShadow_161_1334"/>
<feBlend mode="normal" in="SourceGraphic" in2="effect1_dropShadow_161_1334" result="shape"/>
</filter>
<linearGradient id="paint0_linear_161_1334" x1="202" y1="-9" x2="203.27" y2="83.8515" gradientUnits="userSpaceOnUse">
<stop stop-color="#FF000A"/>
<stop offset="1" stop-color="#C2000B"/>
</linearGradient>
</defs>
</svg>
