<svg width="300" height="96" viewBox="0 0 300 96" fill="none" xmlns="http://www.w3.org/2000/svg">
<g filter="url(#filter0_d_194_402)">
<path d="M277.864 67.0601C277.864 67.0601 205.292 84 150 84C89.054 84 22.136 67.0601 22.136 67.0601C14.326 67.0601 8 60.7382 8 52.9435V24.0804C8 16.2812 14.3306 9.96384 22.136 9.96384L150 7.66168L277.864 9.96384C285.674 9.96384 292 16.2857 292 24.0804V52.9435C292.005 60.7382 285.674 67.0601 277.864 67.0601Z" fill="#C81212"/>
<path d="M277.864 63.3984C277.864 63.3984 205.292 80.3383 150 80.3383C89.054 80.3383 22.136 63.3984 22.136 63.3984C14.326 63.3984 8 57.0765 8 49.2818V20.4187C8 12.6195 14.3306 6.30216 22.136 6.30216L150 4L277.864 6.30216C285.674 6.30216 292 12.624 292 20.4187V49.2818C292.005 57.0811 285.674 63.3984 277.864 63.3984Z" fill="url(#paint0_linear_194_402)"/>
<path d="M274.312 63.2447C274.312 63.2447 204.039 79 150.5 79C91.4854 79 26.688 63.2447 26.688 63.2447C19.1256 63.2447 13 57.3649 13 50.1153V23.2706C13 16.0167 19.13 10.1412 26.688 10.1412L150.5 8L274.312 10.1412C281.874 10.1412 288 16.021 288 23.2706V50.1153C288.004 57.3691 281.874 63.2447 274.312 63.2447Z" stroke="white" stroke-linecap="round" stroke-dasharray="5 5"/>
<path d="M81.0621 50C79.6494 50 78.387 49.6217 77.275 48.8652C76.1813 48.1178 75.4065 47.0104 74.9508 45.543C71.8974 38.0508 70.2067 34.1862 69.8785 33.9492C69.8785 32.9375 70.4209 32.026 71.5055 31.2148C72.5901 30.3945 73.6656 29.9844 74.7321 29.9844C76.2998 29.9844 77.553 30.9551 78.4918 32.8965C79.4306 34.8379 80.1826 37.8958 80.7477 42.0703H80.9664C81.9235 37.2669 82.5433 33.5436 82.8258 30.9004L83.1403 30.6133C83.2952 30.4857 83.6142 30.3216 84.0973 30.1211C85.1455 29.6745 86.417 29.7201 87.9117 30.2578C89.7985 31.0234 90.7418 32.4772 90.7418 34.6191C90.7418 36.7611 90.0035 39.1445 88.527 41.7695C87.0595 44.3945 85.8473 46.3542 84.8903 47.6484L83.4957 49.6309C82.721 49.877 81.9098 50 81.0621 50ZM98.0153 25.6641C98.4983 25.2904 99.6377 24.5065 101.433 23.3125L102.349 22.6973C102.741 22.6973 103.17 22.9616 103.634 23.4902C104.108 24.0007 104.345 24.5293 104.345 25.0762C104.345 25.2676 104.177 25.5456 103.839 25.9102C103.502 26.2747 101.889 27.3958 98.9996 29.2734C98.4892 29.2734 98.0244 29.0866 97.6051 28.7129C97.2041 28.3301 97.0035 27.8516 97.0035 27.2773C97.0035 26.7122 97.3408 26.1745 98.0153 25.6641ZM92.5328 33.3613C92.5328 32.6413 92.7789 31.9941 93.2711 31.4199C94.2099 30.3079 95.8095 29.752 98.0699 29.752L104.427 29.6699C104.591 29.6699 105.002 29.8158 105.658 30.1074C106.296 30.39 106.615 31.2331 106.615 32.6367C106.615 34.7422 105.53 35.7995 103.361 35.8086L100.476 35.7812L100.504 37.5723L104.127 37.3945C104.455 37.3945 104.787 37.5632 105.125 37.9004C105.462 38.2376 105.63 38.8346 105.63 39.6914C105.63 40.5482 105.38 41.1816 104.879 41.5918C104.368 41.9928 103.808 42.1934 103.197 42.1934C103.115 42.1934 102.235 42.1432 100.558 42.043V44.0938L105.74 43.6973L105.972 44.0254C106.091 44.1712 106.223 44.5358 106.369 45.1191C106.533 45.7025 106.615 46.3314 106.615 47.0059C106.615 48.2546 106.25 49.0794 105.521 49.4805C104.801 49.8633 104.127 50.0547 103.498 50.0547L99.8883 50.1914C99.068 50.1914 98.3297 50.1686 97.6735 50.123C97.1266 50.0866 96.4931 49.9681 95.7731 49.7676C95.0712 49.5579 94.3831 49.1569 93.7086 48.5645C93.025 47.9447 92.6513 46.7324 92.5875 44.9277C92.5511 44.8913 92.5328 41.0358 92.5328 33.3613ZM131.634 35.0703C131.634 36.5469 130.841 37.7044 129.255 38.543C128.909 38.7799 128.376 38.9395 127.656 39.0215L127.464 38.6387C126.726 37.3262 125.596 36.6699 124.074 36.6699C122.989 36.6699 122.073 37.0163 121.326 37.709C120.578 38.4017 120.205 39.2357 120.205 40.2109C120.205 41.1862 120.578 42.0202 121.326 42.7129C122.073 43.4056 122.989 43.752 124.074 43.752C125.477 43.752 126.53 43.2324 127.232 42.1934C127.633 42.0384 128.052 41.9518 128.49 41.9336C129.319 41.9336 130.012 42.2936 130.568 43.0137C131.133 43.752 131.411 44.5495 131.402 45.4062C131.402 45.8711 131.311 46.377 131.129 46.9238C130.418 48.0996 129.442 48.9062 128.203 49.3438C126.963 49.7812 125.5 50 123.814 50C121.007 50 118.614 49.0202 116.636 47.0605C114.668 45.1009 113.683 42.7266 113.683 39.9375C113.683 37.1484 114.668 34.7695 116.636 32.8008C118.605 30.8229 120.998 29.834 123.814 29.834C124.899 29.834 126.015 30.0072 127.164 30.3535C128.276 30.6908 129.283 31.2604 130.185 32.0625C131.088 32.8646 131.571 33.7943 131.634 34.8516V35.0703ZM147.056 29.834C148.396 29.834 149.376 30.1393 149.996 30.75C150.606 31.3698 150.912 32.3633 150.912 33.7305L150.857 40.7578C150.83 41.4232 150.729 42.1523 150.556 42.9453C150.374 43.7839 150.178 44.4538 149.968 44.9551C149.777 45.4382 149.444 46.0352 148.97 46.7461C148.095 48.0404 146.806 48.9746 145.101 49.5488C144.144 49.8678 142.991 50.0273 141.642 50.0273C140.293 50.0273 139.004 49.7995 137.773 49.3438C136.57 48.888 135.645 48.332 134.998 47.6758C134.36 47.0195 133.785 46.1217 133.275 44.9824C132.774 43.8613 132.523 42.5488 132.523 41.0449V30.5996C132.523 30.5632 132.655 30.4948 132.92 30.3945C133.166 30.2943 133.64 30.1803 134.341 30.0527C135.034 29.9251 135.782 29.8613 136.584 29.8613C139.163 29.8613 140.453 31.1784 140.453 33.8125L140.357 42.3574C140.357 42.9225 140.48 43.3828 140.726 43.7383C140.981 44.1029 141.337 44.2943 141.793 44.3125C142.631 44.2943 143.05 43.6426 143.05 42.3574L142.968 34.9883C142.968 33.6667 142.977 32.1764 142.996 30.5176C142.996 30.3717 143.465 30.2259 144.404 30.0801C145.352 29.916 146.236 29.834 147.056 29.834ZM139.769 21.2891C141.191 20.6693 142.563 20.724 143.884 21.4531C144.532 22.0182 144.855 22.7383 144.855 23.6133C144.855 24.4883 144.481 25.2174 143.734 25.8008C143.451 26.138 143.014 26.5163 142.422 26.9355C141.282 27.4733 140.576 27.2227 140.302 26.1836C140.302 25.7005 140.462 25.3086 140.781 25.0078L141.259 24.6523C141.788 24.306 142.075 23.9596 142.121 23.6133C142.102 23.2396 141.866 23.0527 141.41 23.0527L140.412 23.1895C139.892 23.1895 139.582 22.8613 139.482 22.2051C139.482 21.7949 139.578 21.4896 139.769 21.2891ZM171.119 47.2793C171.119 47.735 170.895 48.2272 170.449 48.7559C170.276 48.9564 169.92 49.2161 169.382 49.5352C168.854 49.8451 168.097 50 167.113 50C165.39 50 164.205 49.0475 163.558 47.1426C163.394 46.6686 163.226 46.1491 163.052 45.584L162.793 44.7363L162.765 44.5176C161.662 44.2988 160.637 44.2988 159.689 44.5176C158.86 46.4863 158.413 47.7897 158.349 48.4277C158.285 48.5645 158.185 48.7103 158.048 48.8652C157.894 49.0658 157.561 49.3027 157.05 49.5762C156.54 49.8587 155.948 50 155.273 50C154.143 50 153.218 49.7038 152.498 49.1113C151.787 48.5098 151.431 47.7533 151.431 46.8418C151.431 46.2311 151.536 45.6113 151.746 44.9824C151.727 45.1191 153.459 40.4069 156.941 30.8457C157.224 30.6178 157.752 30.3945 158.527 30.1758C159.293 29.9479 160.327 29.834 161.63 29.834C162.925 29.834 163.941 30.1074 164.679 30.6543C165.418 31.1738 166.11 32.2493 166.757 33.8809C167.405 35.5033 167.938 37.0664 168.357 38.5703C168.767 39.9831 169.022 40.8444 169.123 41.1543L171.119 47.2793ZM160.386 40.4844H162.355L161.658 36.082C161.658 35.7995 161.589 35.6582 161.453 35.6582C161.38 35.6764 161.316 35.8268 161.261 36.1094L160.386 40.4844ZM193.322 35.2754C193.322 37.3991 192.547 39.0215 190.998 40.1426C191.617 40.2975 192.123 40.5391 192.515 40.8672C193.354 41.5508 193.773 42.5625 193.773 43.9023C193.773 45.707 193.053 47.179 191.613 48.3184C190.182 49.4395 188.113 50 185.406 50C183.847 50 182.43 49.9089 181.154 49.7266C179.923 49.5352 179.089 49.3483 178.652 49.166L177.982 48.9062C177.754 46.7188 177.64 42.5306 177.64 36.3418L177.668 30.8457C179.673 30.1712 182.243 29.834 185.379 29.834C187.739 29.834 189.653 30.3216 191.121 31.2969C192.588 32.2721 193.322 33.5983 193.322 35.2754ZM185.994 42.6855C185.073 42.6855 184.39 42.8451 183.943 43.1641V45.543C184.554 45.7526 185.16 45.8574 185.761 45.8574C187.056 45.8574 187.785 45.3516 187.949 44.3398C187.949 43.237 187.297 42.6855 185.994 42.6855ZM185.406 34.9062C184.686 34.9062 184.153 35.0475 183.806 35.3301V38.666C183.916 38.8483 184.298 38.9395 184.955 38.9395C186.595 38.9395 187.416 38.2467 187.416 36.8613C187.416 35.5579 186.746 34.9062 185.406 34.9062ZM213.502 47.2793C213.502 47.735 213.278 48.2272 212.832 48.7559C212.658 48.9564 212.303 49.2161 211.765 49.5352C211.237 49.8451 210.48 50 209.496 50C207.773 50 206.588 49.0475 205.941 47.1426C205.777 46.6686 205.608 46.1491 205.435 45.584L205.175 44.7363L205.148 44.5176C204.045 44.2988 203.02 44.2988 202.072 44.5176C201.242 46.4863 200.796 47.7897 200.732 48.4277C200.668 48.5645 200.568 48.7103 200.431 48.8652C200.276 49.0658 199.944 49.3027 199.433 49.5762C198.923 49.8587 198.33 50 197.656 50C196.526 50 195.601 49.7038 194.88 49.1113C194.17 48.5098 193.814 47.7533 193.814 46.8418C193.814 46.2311 193.919 45.6113 194.129 44.9824C194.11 45.1191 195.842 40.4069 199.324 30.8457C199.606 30.6178 200.135 30.3945 200.91 30.1758C201.675 29.9479 202.71 29.834 204.013 29.834C205.308 29.834 206.324 30.1074 207.062 30.6543C207.8 31.1738 208.493 32.2493 209.14 33.8809C209.787 35.5033 210.321 37.0664 210.74 38.5703C211.15 39.9831 211.405 40.8444 211.505 41.1543L213.502 47.2793ZM202.769 40.4844H204.738L204.041 36.082C204.041 35.7995 203.972 35.6582 203.836 35.6582C203.763 35.6764 203.699 35.8268 203.644 36.1094L202.769 40.4844ZM202.291 55.9062C201.926 55.5417 201.744 55.0951 201.744 54.5664C201.744 54.0378 201.922 53.582 202.277 53.1992C202.642 52.8073 203.088 52.6113 203.617 52.6113C204.145 52.6113 204.601 52.8073 204.984 53.1992C205.376 53.582 205.572 54.0378 205.572 54.5664C205.572 55.0859 205.38 55.5326 204.998 55.9062C204.624 56.2708 204.168 56.4531 203.63 56.4531C203.102 56.4531 202.655 56.2708 202.291 55.9062ZM228.117 29.9023C229.648 29.9023 230.769 30.3672 231.48 31.2969C232.191 32.2266 232.547 33.4935 232.547 35.0977L232.437 42.4121C232.41 44.4993 232.382 46.0488 232.355 47.0605L232.314 48.127C232.314 48.2728 232.059 48.6419 231.548 49.2344C231.047 49.8177 230.008 50.1094 228.431 50.1094C226.845 50.1094 225.464 49.3027 224.289 47.6895C223.113 46.0762 222.347 44.235 221.992 42.166H221.787L222.293 48.9336C221.974 49.2526 221.477 49.526 220.802 49.7539C220.11 49.9909 219.412 50.1094 218.711 50.1094C217.416 50.1094 216.336 49.6855 215.47 48.8379C214.623 47.9902 214.199 46.7643 214.199 45.1602V30.791C215.147 30.153 216.423 29.834 218.027 29.834C219.622 29.834 220.802 30.3353 221.568 31.3379C222.343 32.3405 222.885 33.5846 223.195 35.0703C223.514 36.5742 223.869 37.8275 224.261 38.8301H224.589C224.462 34.1908 224.398 31.7435 224.398 31.4883C224.398 31.0508 224.444 30.7728 224.535 30.6543C224.644 30.5176 224.972 30.3626 225.519 30.1895C226.093 29.998 226.959 29.9023 228.117 29.9023Z" fill="white"/>
</g>
<defs>
<filter id="filter0_d_194_402" x="0" y="0" width="300" height="96" filterUnits="userSpaceOnUse" color-interpolation-filters="sRGB">
<feFlood flood-opacity="0" result="BackgroundImageFix"/>
<feColorMatrix in="SourceAlpha" type="matrix" values="0 0 0 0 0 0 0 0 0 0 0 0 0 0 0 0 0 0 127 0" result="hardAlpha"/>
<feOffset dy="4"/>
<feGaussianBlur stdDeviation="4"/>
<feColorMatrix type="matrix" values="0 0 0 0 0.645833 0 0 0 0 0.0592014 0 0 0 0 0.0592014 0 0 0 0.45 0"/>
<feBlend mode="normal" in2="BackgroundImageFix" result="effect1_dropShadow_194_402"/>
<feBlend mode="normal" in="SourceGraphic" in2="effect1_dropShadow_194_402" result="shape"/>
</filter>
<linearGradient id="paint0_linear_194_402" x1="150" y1="-9" x2="151.734" y2="83.8365" gradientUnits="userSpaceOnUse">
<stop stop-color="#FF000A"/>
<stop offset="1" stop-color="#C2000B"/>
</linearGradient>
</defs>
</svg>
