<svg width="48" height="48" viewBox="0 0 48 48" fill="none" xmlns="http://www.w3.org/2000/svg">
<path d="M23.9999 47.9999C37.2548 47.9999 47.9999 37.2548 47.9999 23.9999C47.9999 10.7451 37.2548 0 23.9999 0C10.7451 0 0 10.7451 0 23.9999C0 37.2548 10.7451 47.9999 23.9999 47.9999Z" fill="#44C4A1"/>
<path d="M37.9448 14.0899C36.7988 12.9376 34.934 12.9376 33.7882 14.09L21.4022 26.5464C20.2293 27.726 18.3205 27.726 17.1476 26.5464L13.2119 22.5885C12.066 21.4361 10.2012 21.436 9.05524 22.5884C7.9183 23.7316 7.91823 25.5785 9.05507 26.7218L17.1476 34.8605C18.3205 36.0401 20.2293 36.0401 21.4023 34.8605L37.945 18.2233C39.0818 17.08 39.0817 15.2331 37.9448 14.0899Z" fill="#EBF0F3"/>
</svg>
