<svg width="429" height="111" viewBox="0 0 429 111" fill="none" xmlns="http://www.w3.org/2000/svg">
<path d="M7.125 105.312C7 97.9688 6.90625 90.0625 6.84375 81.5938H3.84375C2.875 81.5938 2.07812 81.125 1.45312 80.1875C0.828125 79.2188 0.515625 77.8906 0.515625 76.2031C0.515625 71.0781 2.4375 68.5156 6.28125 68.5156L6.65625 68.4219L6.46875 45.9688C6.46875 45.7188 7.59375 45.2188 9.84375 44.4688C12.1562 43.6562 15.4844 42.8594 19.8281 42.0781C24.3281 41.2656 28.4688 40.8594 32.25 40.8594C36.1562 40.8594 39.4844 41.0938 42.2344 41.5625C44.9531 41.9688 47.875 42.9219 51 44.4219C54.0312 45.8594 56.5938 47.7969 58.6875 50.2344C60.7812 52.6094 62.5156 55.9531 63.8906 60.2656C65.2656 64.5781 65.9531 69.5938 65.9531 75.3125C65.9531 81.0312 65.2188 86.0938 63.75 90.5C62.3125 94.8438 60.4688 98.2812 58.2188 100.812C56 103.312 53.3594 105.328 50.2969 106.859C47.3594 108.359 44.4688 109.375 41.625 109.906C39.0312 110.406 35.9688 110.656 32.4375 110.656C28.9375 110.656 25.0625 110.219 20.8125 109.344C16.6875 108.5 13.3125 107.594 10.6875 106.625L7.125 105.312ZM36.0469 74.8438C36.0469 79.25 34.5938 81.5 31.6875 81.5938L27.5625 81.7812L27.6562 86.4688C30.0938 87.4375 32.5938 87.9219 35.1562 87.9219C41.5625 87.8906 44.7656 83.5312 44.7656 74.8438C44.7656 66.1562 41.5625 61.8125 35.1562 61.8125C32.5625 61.8125 30.625 62.1094 29.3438 62.7031C28.0312 63.2656 27.375 63.5781 27.375 63.6406L27.4688 68.4219H34.7812C35.625 70.3906 36.0469 72.5312 36.0469 74.8438ZM114.609 29.6562C115.828 30.625 116.438 32.0625 116.438 33.9688C116.219 35.3125 115.688 36.4062 114.844 37.25C114.125 37.9688 112.516 38.8906 110.016 40.0156C106.609 37.4844 103.891 35.3125 101.859 33.5L93.6094 40.4844C91.7031 39.6719 90.0938 38.625 88.7812 37.3438C87.7812 36.1875 87.2031 35.0625 87.0469 33.9688V33.3125C87.0469 31.7812 87.6875 30.5625 88.9688 29.6562L98.2031 22.9062C99.7656 21.5625 100.969 20.8906 101.812 20.8906C102.594 20.8906 104.969 22.375 108.938 25.3438L114.609 29.6562ZM135.75 100.672C135.5 102.297 134.531 104.25 132.844 106.531C131.094 108.844 127.375 110 121.688 110C116 110 112.047 106.734 109.828 100.203C108.266 95.7344 107.359 92.7344 107.109 91.2031L101.578 90.6875C99.7969 90.6875 98.125 90.8594 96.5625 91.2031L95.5312 93.7812C93.4375 98.75 92.25 102.359 91.9688 104.609C91.4375 105.703 90.25 106.875 88.4062 108.125C86.5938 109.375 84 110 80.625 110C77.2812 110 74.375 108.984 71.9062 106.953C69.4688 104.891 68.25 102.469 68.25 99.6875C68.25 96.875 68.6719 94.4219 69.5156 92.3281C72.6719 84.0156 78.5469 68.0156 87.1406 44.3281C88.1094 43.5469 89.9219 42.7812 92.5781 42.0312C95.2031 41.25 98.75 40.8594 103.219 40.8594C107.656 40.8594 111.141 41.7969 113.672 43.6719C116.203 45.4531 118.578 49.1406 120.797 54.7344C122.922 60.0781 124.812 65.6406 126.469 71.4219C128.125 76.9844 131.219 86.7344 135.75 100.672ZM103.312 62C103.312 61.2188 103.078 60.8281 102.609 60.8281H102.516C102.266 61.0781 102.062 61.7031 101.906 62.7031C101.75 63.7969 100.766 68.6875 98.9531 77.375H105.703L103.312 62.2812V62ZM97.875 8.60938C97.875 6.76562 98.6719 4.95312 100.266 3.17188C101.891 1.35938 103.375 0.453125 104.719 0.453125C113.156 5.98438 118.109 9.375 119.578 10.625C121.891 12.375 123.047 14.2188 123.047 16.1562C123.047 18.0625 122.344 19.7031 120.938 21.0781C119.594 22.3906 118.016 23.0469 116.203 23.0469C106.328 16.6719 100.812 12.8594 99.6562 11.6094C98.4688 10.2344 97.875 9.23438 97.875 8.60938ZM183.75 64.2031C184.188 62.0469 185.031 59.5156 186.281 56.6094C187.562 53.6406 188.922 51.1562 190.359 49.1562C191.891 47.0625 194 45.2031 196.688 43.5781C199.438 41.9219 202.172 41.0938 204.891 41.0938C207.672 41.0938 210 41.5312 211.875 42.4062C213.875 43.2812 215.484 44.2812 216.703 45.4062C217.984 46.5938 219.156 48.2188 220.219 50.2812C221.344 52.4062 222.172 54.1719 222.703 55.5781C223.266 56.9531 223.844 59 224.438 61.7188C224.969 63.9062 225.891 69.6875 227.203 79.0625C228.422 88 229.312 94.1875 229.875 97.625C230.438 101.031 230.719 102.781 230.719 102.875C230.719 104.031 229.922 105.344 228.328 106.812C226.797 108.219 224.75 109.188 222.188 109.719C219.781 110.219 217.984 110.469 216.797 110.469C212.953 110.469 210.109 109.594 208.266 107.844C206.484 106.156 205.094 102.359 204.094 96.4531L201.422 72.2656C198.734 72.2656 197.391 74.7031 197.391 79.5781C197.391 84.3594 197.938 90.8594 199.031 99.0781L199.594 103.203L199.125 103.953C198.906 104.328 197.812 105.453 195.844 107.328C193.844 109.234 190.125 110.188 184.688 110.188C180.469 110.188 177.188 108.875 174.844 106.25C172.531 103.594 171.375 100.719 171.375 97.625L170.812 76.2031C170.875 75.7031 170.906 75.25 170.906 74.8438C170.906 72.875 170.172 71.8906 168.703 71.8906L168.422 71.9844H168.188L163.875 105.688L162.562 106.953C162.125 107.391 160.875 108.078 158.812 109.016C156.906 109.859 155.062 110.281 153.281 110.281C151.469 110.281 150.266 110.219 149.672 110.094C145.797 109.562 142.906 107.812 141 104.844C139.094 101.812 138.141 98.0938 138.141 93.6875C138.234 92.1875 138.344 90.6562 138.469 89.0938C138.656 86.875 139.641 82.0781 141.422 74.7031C143.234 67.2344 144.969 60.5938 146.625 54.7812L149.109 45.9688C149.547 45.4688 149.984 45 150.422 44.5625C151.016 43.9688 152.312 43.2031 154.312 42.2656C156.344 41.3281 158.406 40.8594 160.5 40.8594C162.625 40.8594 164.359 40.9531 165.703 41.1406C166.984 41.2656 168.688 41.7656 170.812 42.6406C172.875 43.4219 174.641 44.5938 176.109 46.1562C179.766 49.9375 182.312 55.9531 183.75 64.2031ZM306 88.2031C306 94.7969 303.812 100 299.438 103.812C295.094 107.594 289.156 109.656 281.625 110H280.875C273.406 109.844 267.438 108.469 262.969 105.875C258.5 103.25 256.266 99.9531 256.266 95.9844C256.266 93.6719 256.641 91.6719 257.391 89.9844C258.203 88.2344 258.984 87.125 259.734 86.6562L260.812 85.9062C267.906 89.0938 273.594 90.6875 277.875 90.6875C280.688 90.6875 282.125 89.9531 282.188 88.4844C282.188 87.5781 280.938 86.4844 278.438 85.2031C275.938 83.8594 273.484 82.7812 271.078 81.9688L267.328 80.6094C264.422 79.5156 262.016 78.0156 260.109 76.1094C258.203 74.1719 256.797 71.8281 255.891 69.0781C254.984 66.2344 254.547 63.5312 254.578 60.9688C254.641 58.2812 255.219 55.7188 256.312 53.2812C257.469 50.75 259.531 48.3906 262.5 46.2031C265.5 43.9531 268.938 42.5 272.812 41.8438C276.719 41.1875 279.734 40.8594 281.859 40.8594C286.797 40.8594 291.703 41.875 296.578 43.9062C299.141 44.9688 301.219 46.5625 302.812 48.6875C304.438 50.7812 305.25 53.0312 305.25 55.4375C305.25 57.8125 304.688 60.0625 303.562 62.1875C302.469 64.3438 301.266 65.625 299.953 66.0312C292.734 63.0312 287.234 61.5312 283.453 61.5312C280.703 61.5312 279.172 62.0781 278.859 63.1719L278.672 63.7344C278.672 64.5781 279.578 65.375 281.391 66.125C283.234 66.8438 285.078 67.3594 286.922 67.6719L289.688 68.1406C292.75 69.0156 295.469 70.3438 297.844 72.125C300.156 73.875 302.094 76.2344 303.656 79.2031C305.219 82.1719 306 85.1719 306 88.2031ZM312.188 52.9531C312.188 50.4844 313.031 48.2656 314.719 46.2969C317.938 42.4844 323.422 40.5781 331.172 40.5781L352.969 40.2969C353.531 40.2969 354.938 40.7969 357.188 41.7969C359.375 42.7656 360.469 45.6562 360.469 50.4688C360.469 57.6875 356.75 61.3125 349.312 61.3438L339.422 61.25L339.516 67.3906L351.938 66.7812C353.062 66.7812 354.203 67.3594 355.359 68.5156C356.516 69.6719 357.094 71.7188 357.094 74.6562C357.094 77.5938 356.234 79.7656 354.516 81.1719C352.766 82.5469 350.844 83.2344 348.75 83.2344C348.469 83.2344 345.453 83.0625 339.703 82.7188V89.75L357.469 88.3906L358.266 89.5156C358.672 90.0156 359.125 91.2656 359.625 93.2656C360.188 95.2656 360.469 97.4219 360.469 99.7344C360.469 104.016 359.219 106.844 356.719 108.219C354.25 109.531 351.938 110.188 349.781 110.188L337.406 110.656C334.594 110.656 332.062 110.578 329.812 110.422C327.938 110.297 325.766 109.891 323.297 109.203C320.891 108.484 318.531 107.109 316.219 105.078C313.875 102.953 312.594 98.7969 312.375 92.6094C312.25 92.4844 312.188 79.2656 312.188 52.9531ZM413.391 41.0938C418.641 41.0938 422.484 42.6875 424.922 45.875C427.359 49.0625 428.578 53.4062 428.578 58.9062L428.203 83.9844C428.109 91.1406 428.016 96.4531 427.922 99.9219L427.781 103.578C427.781 104.078 426.906 105.344 425.156 107.375C423.438 109.375 419.875 110.375 414.469 110.375C409.031 110.375 404.297 107.609 400.266 102.078C396.234 96.5469 393.609 90.2344 392.391 83.1406H391.688L393.422 106.344C392.328 107.438 390.625 108.375 388.312 109.156C385.938 109.969 383.547 110.375 381.141 110.375C376.703 110.375 373 108.922 370.031 106.016C367.125 103.109 365.672 98.9062 365.672 93.4062V44.1406C368.922 41.9531 373.297 40.8594 378.797 40.8594C384.266 40.8594 388.312 42.5781 390.938 46.0156C393.594 49.4531 395.453 53.7188 396.516 58.8125C397.609 63.9688 398.828 68.2656 400.172 71.7031H401.297C400.859 55.7969 400.641 47.4062 400.641 46.5312C400.641 45.0312 400.797 44.0781 401.109 43.6719C401.484 43.2031 402.609 42.6719 404.484 42.0781C406.453 41.4219 409.422 41.0938 413.391 41.0938Z" fill="white"/>
</svg>
